Medium-Italic.sfdir
StartChar: exclam
Encoding: 33 33 1
Width: 249
Flags: MW
LayerCount: 2
Back
Fore
SplineSet
68 50 m 0
 68 58 90 80 94 83 c 0
 116 100 126 116 142 116 c 0
 150 116 157 102 173 83 c 0
 182 73 191 62 191 55 c 0
 191 43 176 30 161 16 c 0
 149 4 135 -11 129 -11 c 0
 117 -11 109 -2 98 11 c 0
 85 27 68 40 68 50 c 0
133 211 m 0
 133 218 134 228 135 239 c 2
 161 627 l 2
 162 647 158 687 209 687 c 0
 227 687 245 680 245 654 c 0
 245 618 230 609 209 457 c 0
 198 378 185 300 167 214 c 0
 166 208 158 194 146 194 c 0
 136 194 133 200 133 211 c 0
EndSplineSet
EndChar
StartChar: quotedbl
Encoding: 34 34 2
Width: 410
Flags: MW
LayerCount: 2
Back
Fore
SplineSet
36 439 m 0
 36 462 73 459 95 517 c 0
 100 529 107 544 107 562 c 0
 107 621 56 623 56 650 c 0
 56 659 92 708 113 708 c 0
 121 708 166 687 166 605 c 0
 166 498 68 427 48 427 c 0
 38 427 36 434 36 439 c 0
207 439 m 0
 207 462 244 459 266 517 c 0
 271 529 278 544 278 562 c 0
 278 621 227 623 227 650 c 0
 227 659 263 708 284 708 c 0
 292 708 337 687 337 605 c 0
 337 498 239 427 219 427 c 0
 209 427 207 434 207 439 c 0
EndSplineSet
EndChar
StartChar: dollar
Encoding: 36 36 4
Width: 488
Flags: MW
LayerCount: 2
Back
Fore
SplineSet
20 91 m 0
 20 100 38 168 54 168 c 0
 75 168 78 127 91 99 c 0
 114 48 156 17 188 17 c 0
 197 17 199 21 201 36 c 0
 217 172 237 308 237 315 c 0
 237 353 79 362 79 500 c 0
 79 627 183 680 270 682 c 0
 301 682 272 756 305 756 c 0
 314 756 330 754 330 738 c 0
 330 719 319 706 319 684 c 0
 319 677 341 676 350 674 c 0
 438 648 463 606 463 594 c 0
 463 545 441 534 436 534 c 0
 426 534 419 556 406 577 c 0
 388 606 342 645 320 645 c 0
 311 645 307 624 306 616 c 0
 290 469 280 437 280 407 c 0
 280 364 468 376 468 189 c 0
 468 65 378 -13 245 -13 c 0
 236 -13 228 -19 228 -24 c 0
 216 -122 220 -160 195 -160 c 0
 176 -160 173 -154 173 -143 c 0
 173 -118 193 -34 193 -28 c 0
 193 -17 186 -17 183 -17 c 0
 100 -4 20 51 20 91 c 0
131 531 m 0
 131 498 151 466 174 451 c 0
 205 431 234 414 239 414 c 0
 249 414 251 423 252 436 c 0
 277 631 277 634 277 635 c 0
 277 646 270 650 257 650 c 0
 233 650 131 634 131 531 c 0
234 28 m 0
 234 19 240 12 256 12 c 0
 282 12 401 44 401 177 c 0
 401 274 289 311 285 311 c 0
 272 311 270 304 269 295 c 0
 262 250 234 41 234 28 c 0
EndSplineSet
EndChar
StartChar: ampersand
Encoding: 38 38 6
Width: 834
Flags: MW
LayerCount: 2
Back
Fore
SplineSet
39 219 m 0
 39 298 92 376 136 413 c 0
 172 444 197 446 197 458 c 0
 197 465 190 477 190 519 c 0
 190 665 323 722 400 722 c 0
 431 722 507 709 507 638 c 0
 507 606 495 568 442 568 c 0
 433 568 430 571 430 575 c 0
 430 585 443 602 443 621 c 0
 443 640 418 664 382 664 c 0
 269 664 223 562 223 494 c 0
 223 478 229 476 235 476 c 0
 250 476 274 486 307 486 c 0
 363 486 391 452 391 419 c 0
 391 386 364 354 311 354 c 0
 237 354 215 423 202 423 c 0
 186 423 121 357 121 265 c 0
 121 158 200 31 360 31 c 0
 485 31 599 129 599 234 c 0
 599 288 567 332 509 332 c 0
 464 332 424 303 424 252 c 0
 424 214 451 199 465 199 c 0
 492 199 493 221 506 221 c 0
 511 221 513 216 513 212 c 0
 513 196 491 173 456 173 c 0
 397 173 373 237 373 267 c 0
 373 375 490 400 617 457 c 0
 716 501 774 548 774 620 c 0
 774 651 747 692 696 692 c 0
 680 692 641 684 641 640 c 0
 641 609 688 614 688 595 c 0
 688 576 679 554 641 554 c 0
 611 554 594 582 594 617 c 0
 594 678 657 719 707 719 c 0
 765 719 815 667 815 605 c 0
 815 439 593 390 593 369 c 0
 593 358 653 348 653 264 c 0
 653 208 632 147 586 102 c 0
 510 26 434 -10 315 -10 c 0
 161 -10 39 66 39 219 c 0
246 430 m 0
 246 416 270 385 301 385 c 0
 321 385 339 400 339 419 c 0
 339 450 303 457 288 457 c 0
 267 457 246 444 246 430 c 0
EndSplineSet
EndChar
StartChar: quotesingle
Encoding: 39 39 7
Width: 239
Flags: MW
LayerCount: 2
Back
Fore
SplineSet
36 439 m 0
 36 462 73 459 95 517 c 0
 100 529 107 544 107 562 c 0
 107 621 56 623 56 650 c 0
 56 659 92 708 113 708 c 0
 121 708 166 687 166 605 c 0
 166 498 68 427 48 427 c 0
 38 427 36 434 36 439 c 0
EndSplineSet
EndChar
StartChar: parenleft
Encoding: 40 40 8
Width: 288
Flags: MW
LayerCount: 2
Back
Fore
SplineSet
63 207 m 0
 63 546 298 772 326 772 c 0
 340 772 343 764 343 755 c 0
 343 716 146 631 109 277 c 0
 106 248 104 221 104 195 c 0
 104 -61 241 -168 241 -194 c 0
 241 -205 227 -214 220 -214 c 0
 192 -214 63 -36 63 207 c 0
EndSplineSet
EndChar
StartChar: parenright
Encoding: 41 41 9
Width: 288
Flags: MW
LayerCount: 2
Back
Fore
SplineSet
-55 -197 m 0
 -55 -158 142 -73 179 281 c 0
 182 310 184 337 184 363 c 0
 184 619 47 727 47 753 c 0
 47 764 61 772 68 772 c 0
 96 772 225 595 225 352 c 0
 225 13 -10 -214 -38 -214 c 0
 -52 -214 -55 -206 -55 -197 c 0
EndSplineSet
EndChar
StartChar: asterisk
Encoding: 42 42 10
Width: 431
Flags: MW
LayerCount: 2
Back
Fore
SplineSet
59 383 m 0
 59 405 167 438 167 447 c 0
 167 458 59 492 59 513 c 0
 59 522 71 548 91 548 c 0
 107 548 173 495 182 495 c 0
 185 495 187 500 187 514 c 0
 187 535 184 567 184 593 c 0
 184 610 189 614 210 614 c 0
 240 614 247 612 247 578 c 0
 247 560 243 533 243 513 c 0
 243 499 245 495 248 495 c 0
 259 495 328 549 340 549 c 0
 358 549 373 526 373 514 c 0
 373 493 264 458 264 448 c 0
 264 436 373 404 373 383 c 0
 373 373 360 348 339 348 c 0
 324 348 256 401 249 401 c 0
 245 401 244 396 244 382 c 0
 244 363 247 339 247 324 c 0
 247 286 244 282 211 282 c 0
 196 282 184 285 184 306 c 0
 184 324 187 355 187 378 c 0
 187 395 186 401 182 401 c 0
 173 401 103 348 91 348 c 0
 72 348 59 373 59 383 c 0
EndSplineSet
EndChar
StartChar: plus
Encoding: 43 43 11
Width: 508
Flags: MW
LayerCount: 2
Back
Fore
SplineSet
21 212 m 0
 21 225 22 232 40 232 c 2
 209 232 l 2
 228 232 231 240 231 251 c 2
 231 427 l 2
 231 442 238 442 252 442 c 0
 266 442 276 442 276 422 c 2
 276 259 l 2
 276 245 277 232 293 232 c 2
 470 232 l 2
 486 232 486 225 486 211 c 0
 486 194 486 188 465 188 c 2
 293 188 l 2
 276 188 276 182 276 170 c 2
 276 -5 l 2
 276 -22 267 -22 256 -22 c 0
 236 -22 231 -22 231 -4 c 2
 231 170 l 2
 231 188 225 188 208 188 c 2
 39 188 l 2
 21 188 21 195 21 212 c 0
EndSplineSet
EndChar
StartChar: comma
Encoding: 44 44 12
Width: 226
Flags: MW
LayerCount: 2
Back
Fore
SplineSet
42 -153 m 0
 42 -140 65 -128 75 -117 c 0
 94 -96 112 -64 112 -26 c 0
 112 28 57 35 57 56 c 0
 57 59 96 118 114 118 c 0
 134 118 172 87 172 0 c 0
 172 -73 87 -166 57 -166 c 0
 50 -166 42 -161 42 -153 c 0
EndSplineSet
EndChar
StartChar: period
Encoding: 46 46 14
Width: 222
Flags: MW
LayerCount: 2
Back
Fore
SplineSet
49 46 m 0
 49 55 66 70 82 84 c 0
 95 96 110 113 123 113 c 0
 132 113 140 101 152 83 c 0
 160 72 173 67 173 46 c 0
 173 33 157 24 142 10 c 0
 130 -2 120 -15 106 -15 c 0
 90 -15 86 2 73 15 c 0
 58 30 49 36 49 46 c 0
EndSplineSet
EndChar
StartChar: zero
Encoding: 48 48 16
Width: 518
Flags: MW
LayerCount: 2
Back
Fore
SplineSet
32 170 m 0
 32 295 123 434 284 434 c 0
 393 434 486 353 486 232 c 0
 486 64 352 -25 229 -25 c 0
 126 -25 32 37 32 170 c 0
91 170 m 0
 91 71 158 24 232 24 c 0
 325 24 430 97 430 230 c 0
 430 333 360 384 283 384 c 0
 191 384 91 312 91 170 c 0
EndSplineSet
EndChar
StartChar: one
Encoding: 49 49 17
Width: 309
Flags: MW
LayerCount: 2
Back
Fore
SplineSet
20 14 m 0
 20 18 23 26 45 26 c 0
 105 26 106 113 113 158 c 0
 126 241 133 338 133 344 c 0
 133 359 128 389 77 392 c 0
 67 392 42 399 42 417 c 0
 42 425 48 431 57 431 c 0
 72 431 86 423 109 423 c 0
 138 423 132 422 172 422 c 0
 215 422 241 428 266 428 c 0
 283 428 289 418 289 413 c 0
 289 396 267 396 255 396 c 0
 201 396 199 338 179 114 c 0
 178 104 175 93 175 81 c 0
 175 61 182 42 212 32 c 0
 220 30 272 30 272 9 c 0
 272 -1 266 -4 253 -4 c 0
 222 -4 189 3 146 3 c 0
 104 3 70 -4 43 -4 c 0
 27 -4 20 2 20 14 c 0
EndSplineSet
EndChar
StartChar: two
Encoding: 50 50 18
Width: 450
Flags: MW
LayerCount: 2
Back
Fore
SplineSet
20 11 m 0
 20 27 97 48 194 128 c 0
 285 202 340 269 340 316 c 0
 340 379 262 400 235 400 c 0
 190 400 143 392 143 354 c 0
 143 333 158 311 158 297 c 0
 158 291 153 284 144 284 c 0
 111 284 76 287 76 319 c 0
 76 346 123 433 260 433 c 0
 334 433 420 403 420 325 c 0
 420 219 172 93 172 68 c 0
 172 61 188 60 217 60 c 2
 283 60 l 2
 360 60 374 91 393 113 c 0
 399 120 406 125 409 125 c 0
 417 125 421 120 421 114 c 0
 421 105 407 99 382 41 c 0
 380 36 369 0 350 0 c 2
 202 0 l 2
 92 0 70 -2 43 -2 c 0
 25 -2 20 3 20 11 c 0
EndSplineSet
EndChar
StartChar: three
Encoding: 51 51 19
Width: 390
Flags: MW
LayerCount: 2
Back
Fore
SplineSet
-20 -116 m 0
 -20 -104 -13 -94 0 -94 c 0
 10 -94 45 -144 109 -144 c 0
 211 -144 292 -42 292 21 c 0
 292 84 226 131 168 131 c 0
 147 131 96 123 93 123 c 0
 83 123 81 128 81 135 c 0
 81 151 109 150 169 184 c 0
 231 219 283 262 283 315 c 0
 283 362 238 399 174 399 c 0
 119 399 101 368 81 368 c 0
 69 368 67 376 67 382 c 0
 67 403 153 436 217 436 c 0
 271 436 350 418 350 344 c 0
 350 264 273 226 237 201 c 0
 209 180 204 180 204 176 c 0
 204 164 360 167 360 53 c 0
 360 -30 251 -185 52 -185 c 0
 -3 -185 -20 -180 -20 -116 c 0
EndSplineSet
EndChar
StartChar: four
Encoding: 52 52 20
Width: 496
Flags: MW
LayerCount: 2
Back
Fore
SplineSet
10 14 m 0
 10 34 36 54 62 81 c 2
 344 373 l 2
 358 388 389 423 408 423 c 0
 416 423 421 418 421 406 c 0
 421 379 407 365 388 240 c 2
 379 184 l 2
 371 131 361 77 361 68 c 0
 361 57 370 52 388 52 c 0
 464 52 445 76 466 76 c 0
 471 76 477 73 477 64 c 0
 477 55 465 33 459 20 c 0
 453 8 443 0 428 0 c 0
 391 0 362 3 357 3 c 0
 344 3 349 -8 342 -83 c 0
 335 -155 341 -189 292 -189 c 0
 269 -189 261 -173 261 -165 c 0
 261 -151 287 -23 287 -14 c 0
 287 4 272 4 223 4 c 0
 107 4 97 -2 32 -2 c 0
 14 -2 10 5 10 14 c 0
104 69 m 0
 104 55 119 53 170 53 c 0
 193 53 225 54 250 54 c 2
 272 54 l 1
 277 54 l 2
 304 54 300 66 309 119 c 0
 317 167 335 281 335 297 c 0
 335 305 334 312 331 312 c 0
 323 312 307 293 297 283 c 0
 236 223 104 77 104 69 c 0
EndSplineSet
EndChar
StartChar: five
Encoding: 53 53 21
Width: 373
Flags: MW
LayerCount: 2
Back
Fore
SplineSet
-35 -115 m 0
 -35 -102 -32 -92 -19 -92 c 0
 4 -92 15 -143 102 -143 c 0
 176 -143 282 -69 282 59 c 0
 282 143 226 219 79 219 c 0
 58 219 49 220 49 239 c 0
 49 242 51 248 75 318 c 2
 102 400 l 2
 106 412 109 426 138 426 c 0
 157 426 167 420 233 420 c 0
 307 420 338 423 349 436 c 0
 354 442 365 462 375 462 c 0
 379 462 384 461 384 454 c 0
 384 442 374 434 350 388 c 0
 342 373 334 360 319 360 c 2
 186 360 l 2
 150 360 145 361 141 361 c 0
 134 361 123 359 120 342 c 0
 116 322 107 298 107 295 c 0
 107 262 230 296 306 207 c 0
 332 177 343 140 343 99 c 0
 343 30 309 -45 249 -104 c 0
 208 -144 146 -187 19 -187 c 0
 10 -187 -5 -185 -14 -175 c 0
 -22 -166 -35 -139 -35 -115 c 0
EndSplineSet
EndChar
StartChar: six
Encoding: 54 54 22
Width: 490
Flags: MW
LayerCount: 2
Back
Fore
SplineSet
32 246 m 0
 32 464 266 692 421 692 c 0
 432 692 444 686 444 679 c 0
 444 656 410 670 348 641 c 0
 244 593 130 451 130 386 c 0
 130 383 132 381 134 381 c 0
 145 381 184 435 267 435 c 0
 401 435 463 336 463 232 c 0
 463 113 382 -13 236 -13 c 0
 74 -13 32 110 32 246 c 0
103 239 m 0
 103 96 184 19 260 19 c 0
 344 19 388 107 388 198 c 0
 388 297 337 399 232 399 c 0
 142 399 103 323 103 239 c 0
EndSplineSet
EndChar
StartChar: seven
Encoding: 55 55 23
Width: 473
Flags: MW
LayerCount: 2
Back
Fore
SplineSet
-23 -152 m 0
 -23 -141 -15 -118 6 -93 c 0
 62 -25 134 75 211 165 c 0
 293 262 365 345 365 355 c 0
 365 359 357 361 342 361 c 0
 332 361 318 360 302 360 c 2
 224 360 l 2
 193 360 143 357 114 357 c 0
 60 357 63 346 58 334 c 0
 53 324 54 315 39 315 c 0
 25 315 20 322 20 332 c 0
 20 347 31 369 40 392 c 0
 50 417 44 429 73 429 c 2
 89 429 l 2
 127 429 224 424 332 424 c 2
 396 424 l 2
 422 424 427 439 443 439 c 0
 449 439 453 437 453 428 c 0
 453 414 435 397 419 376 c 2
 335 260 l 1
 146 -11 l 2
 82 -108 77 -115 77 -135 c 2
 77 -140 l 2
 77 -161 57 -163 52 -163 c 2
 -1 -163 l 2
 -13 -163 -23 -161 -23 -152 c 0
EndSplineSet
EndChar
StartChar: eight
Encoding: 56 56 24
Width: 526
Flags: MW
LayerCount: 2
Back
Fore
SplineSet
42 148 m 0
 42 303 212 346 212 351 c 0
 212 357 103 411 103 511 c 0
 103 583 167 688 306 688 c 0
 399 688 493 643 493 539 c 0
 493 409 356 390 356 380 c 0
 356 371 494 327 494 195 c 0
 494 63 382 -25 243 -25 c 0
 123 -25 42 46 42 148 c 0
101 158 m 0
 101 87 143 5 247 5 c 0
 286 5 311 10 357 41 c 0
 394 66 426 109 426 178 c 0
 426 238 383 278 339 303 c 0
 318 315 247 340 242 340 c 0
 233 340 169 310 143 271 c 0
 129 250 101 203 101 158 c 0
153 533 m 0
 153 434 314 393 324 393 c 0
 355 393 440 448 440 535 c 0
 440 586 396 659 300 659 c 0
 224 659 153 618 153 533 c 0
EndSplineSet
EndChar
StartChar: nine
Encoding: 57 57 25
Width: 502
Flags: MW
LayerCount: 2
Back
Fore
SplineSet
32 184 m 0
 32 287 114 434 263 434 c 0
 370 434 471 366 471 211 c 0
 471 115 437 33 393 -31 c 0
 346 -99 285 -145 219 -177 c 0
 172 -199 128 -205 85 -205 c 0
 54 -205 53 -196 53 -188 c 0
 53 -173 63 -172 73 -172 c 0
 201 -172 335 -29 335 1 c 0
 335 3 334 5 331 5 c 0
 313 5 285 -19 230 -19 c 0
 133 -19 32 35 32 184 c 0
103 216 m 0
 103 131 151 21 266 21 c 0
 372 21 394 116 394 190 c 0
 394 307 317 400 246 400 c 0
 161 400 103 311 103 216 c 0
EndSplineSet
EndChar
StartChar: colon
Encoding: 58 58 26
Width: 298
Flags: MW
LayerCount: 2
Back
Fore
SplineSet
70 50 m 0
 70 58 94 80 98 83 c 0
 120 100 130 116 146 116 c 0
 154 116 161 102 177 83 c 0
 186 73 195 64 195 57 c 0
 195 45 180 30 165 16 c 0
 153 4 139 -14 133 -14 c 0
 121 -14 113 -2 102 11 c 0
 89 27 70 40 70 50 c 0
104 368 m 0
 104 379 161 429 172 429 c 0
 182 429 223 378 223 374 c 0
 223 354 162 310 154 310 c 0
 147 310 137 328 128 337 c 0
 114 351 104 359 104 368 c 0
EndSplineSet
EndChar
StartChar: semicolon
Encoding: 59 59 27
Width: 298
Flags: MW
LayerCount: 2
Back
Fore
SplineSet
66 -153 m 0
 66 -140 88 -128 98 -117 c 0
 117 -96 136 -64 136 -26 c 0
 136 28 81 35 81 56 c 0
 81 59 120 118 138 118 c 0
 158 118 195 87 195 0 c 0
 195 -73 110 -166 80 -166 c 0
 73 -166 66 -161 66 -153 c 0
100 368 m 0
 100 374 163 431 167 431 c 0
 177 431 220 373 220 369 c 0
 220 351 160 304 152 304 c 0
 145 304 133 325 124 334 c 0
 110 348 100 359 100 368 c 0
EndSplineSet
EndChar
StartChar: less
Encoding: 60 60 28
Width: 508
Flags: MW
LayerCount: 2
Back
Fore
SplineSet
31 211 m 0
 31 221 31 225 46 231 c 0
 453 379 452 381 458 381 c 0
 467 381 477 377 477 356 c 0
 477 347 469 342 461 340 c 2
 156 229 l 2
 137 222 114 213 114 208 c 0
 114 203 136 197 156 190 c 2
 466 78 l 2
 472 76 477 72 477 65 c 0
 477 57 472 41 454 41 c 0
 448 41 450 41 45 188 c 0
 31 193 31 197 31 211 c 0
EndSplineSet
EndChar
StartChar: equal
Encoding: 61 61 29
Width: 508
Flags: MW
LayerCount: 2
Back
Fore
SplineSet
21 114 m 0
 21 127 22 135 40 135 c 2
 470 135 l 2
 486 135 486 128 486 114 c 0
 486 97 486 90 465 90 c 2
 39 90 l 2
 21 90 21 97 21 114 c 0
21 310 m 0
 21 323 22 330 40 330 c 2
 470 330 l 2
 486 330 486 323 486 309 c 0
 486 292 486 286 465 286 c 2
 39 286 l 2
 21 286 21 293 21 310 c 0
EndSplineSet
EndChar
StartChar: greater
Encoding: 62 62 30
Width: 508
Flags: MW
LayerCount: 2
Back
Fore
SplineSet
31 65 m 0
 31 72 36 76 42 78 c 2
 352 190 l 2
 372 197 394 203 394 208 c 0
 394 213 371 222 352 229 c 2
 46 340 l 2
 38 342 31 347 31 356 c 0
 31 377 40 381 49 381 c 0
 55 381 54 379 461 231 c 0
 476 225 477 221 477 211 c 0
 477 197 476 193 462 188 c 0
 57 41 60 41 54 41 c 0
 36 41 31 57 31 65 c 0
EndSplineSet
EndChar
StartChar: question
Encoding: 63 63 31
Width: 413
Flags: MW
LayerCount: 2
Back
Fore
SplineSet
101 50 m 0
 101 62 132 81 136 84 c 0
 158 101 161 114 177 114 c 0
 185 114 192 102 208 83 c 0
 217 73 230 59 230 52 c 0
 230 42 212 30 197 16 c 0
 185 4 170 -14 164 -14 c 0
 152 -14 143 0 132 13 c 0
 119 29 101 40 101 50 c 0
145 608 m 0
 145 623 191 667 246 667 c 0
 305 667 372 621 372 548 c 0
 372 488 326 447 312 429 c 0
 241 340 197 292 197 237 c 0
 197 226 200 212 200 204 c 0
 200 196 194 194 190 194 c 0
 170 194 166 228 166 259 c 0
 166 345 297 481 297 545 c 0
 297 589 251 621 217 621 c 0
 183 621 169 602 153 602 c 0
 148 602 145 604 145 608 c 0
EndSplineSet
EndChar
StartChar: at
Encoding: 64 64 32
Width: 821
Flags: MW
LayerCount: 2
Back
Fore
SplineSet
44 286 m 0
 44 625 343 697 463 697 c 0
 652 697 777 559 777 392 c 0
 777 244 668 129 549 129 c 0
 456 129 474 209 465 209 c 0
 456 209 400 111 310 111 c 0
 244 111 217 152 217 208 c 0
 217 321 325 488 448 488 c 0
 480 488 511 479 520 479 c 0
 535 479 541 519 562 519 c 0
 570 519 570 509 570 500 c 0
 570 487 521 320 521 246 c 2
 521 233 l 2
 521 203 532 174 562 174 c 0
 658 174 736 246 736 397 c 0
 736 568 612 659 464 659 c 0
 267 659 104 516 104 297 c 0
 104 109 232 -27 423 -27 c 0
 566 -27 629 38 641 38 c 0
 646 38 652 35 652 26 c 0
 652 8 556 -64 405 -64 c 0
 197 -64 44 63 44 286 c 0
284 227 m 0
 284 185 312 167 346 167 c 0
 389 167 429 203 437 215 c 0
 448 231 451 238 462 281 c 0
 476 334 502 433 502 436 c 0
 502 444 464 456 440 456 c 0
 386 456 284 374 284 227 c 0
EndSplineSet
EndChar
StartChar: B
Encoding: 66 66 34
Width: 612
Flags: MW
LayerCount: 2
Back
Fore
SplineSet
20 9 m 0
 20 14 24 25 34 25 c 0
 89 25 91 87 96 122 c 0
 113 234 150 599 150 626 c 0
 150 640 146 654 125 669 c 0
 100 687 62 672 62 696 c 0
 62 704 71 708 75 708 c 0
 85 708 113 704 143 704 c 0
 179 704 232 705 250 705 c 0
 293 705 327 706 362 706 c 0
 470 706 565 662 565 547 c 0
 565 428 424 376 424 370 c 0
 424 359 568 354 568 209 c 0
 568 148 522 49 410 12 c 0
 375 1 333 -3 282 -3 c 0
 221 -3 170 0 147 0 c 0
 125 0 81 -6 41 -6 c 0
 31 -6 20 -2 20 9 c 0
164 75 m 0
 164 47 183 28 286 28 c 0
 433 28 483 136 483 195 c 0
 483 271 437 346 318 356 c 0
 276 359 251 361 236 361 c 2
 207 361 l 2
 196 361 194 325 179 201 c 2
 171 134 l 2
 168 106 164 81 164 75 c 0
208 404 m 0
 208 386 224 386 342 386 c 0
 453 386 486 486 486 532 c 0
 486 563 475 599 442 627 c 0
 412 652 382 669 290 669 c 0
 251 669 242 661 237 627 c 2
 225 545 l 2
 212 460 208 408 208 404 c 0
EndSplineSet
EndChar
StartChar: C
Encoding: 67 67 35
Width: 762
Flags: MW
LayerCount: 2
Back
Fore
SplineSet
39 312 m 0
 39 505 163 710 428 710 c 0
 566 710 661 634 670 634 c 0
 677 634 684 650 692 650 c 0
 698 650 704 649 704 634 c 0
 704 507 713 509 713 485 c 0
 713 473 710 461 699 461 c 0
 684 461 678 495 663 530 c 0
 646 572 631 589 600 610 c 0
 537 653 472 672 412 672 c 0
 223 672 124 501 124 334 c 0
 124 130 256 14 398 14 c 0
 473 14 552 47 614 117 c 0
 644 150 648 198 669 198 c 0
 671 198 685 197 685 180 c 0
 685 164 674 139 668 118 c 0
 656 79 660 61 645 53 c 0
 567 12 482 -23 378 -23 c 0
 145 -23 39 140 39 312 c 0
EndSplineSet
EndChar
StartChar: D
Encoding: 68 68 36
Width: 767
Flags: MW
LayerCount: 2
Back
Fore
SplineSet
20 13 m 0
 20 39 68 12 88 73 c 0
 92 87 94 96 97 116 c 2
 165 616 l 2
 166 624 167 629 167 634 c 0
 167 655 144 674 122 675 c 0
 91 677 76 686 76 697 c 0
 76 704 82 715 107 715 c 0
 143 715 161 704 208 704 c 0
 263 704 286 714 364 714 c 0
 635 714 733 581 733 432 c 0
 733 349 703 260 655 186 c 0
 623 136 554 75 524 57 c 0
 463 20 389 0 298 0 c 0
 239 0 230 3 143 3 c 0
 83 3 62 -5 42 -5 c 0
 29 -5 20 4 20 13 c 0
172 71 m 0
 172 49 180 34 220 34 c 2
 308 34 l 2
 359 34 453 59 512 113 c 0
 628 218 641 381 641 431 c 0
 641 528 588 672 353 672 c 0
 275 672 259 671 244 617 c 0
 234 578 172 73 172 71 c 0
EndSplineSet
EndChar
StartChar: F
Encoding: 70 70 38
Width: 585
Flags: MW
LayerCount: 2
Back
Fore
SplineSet
20 8 m 0
 20 15 28 24 41 25 c 0
 97 30 103 115 118 221 c 0
 146 415 168 610 168 620 c 0
 168 703 76 659 76 695 c 0
 76 705 81 711 99 711 c 0
 128 711 217 706 368 706 c 0
 408 706 518 708 548 708 c 0
 555 708 566 708 566 691 c 2
 566 638 l 2
 566 622 571 605 571 584 c 0
 571 565 566 557 559 557 c 0
 535 557 557 594 514 637 c 0
 502 650 480 663 417 666 c 0
 361 669 359 669 343 669 c 2
 309 669 l 2
 247 669 250 659 240 599 c 0
 236 571 215 413 215 400 c 0
 215 387 217 382 257 382 c 2
 318 382 l 2
 364 382 392 382 412 384 c 0
 475 390 458 448 484 448 c 0
 491 448 494 444 494 438 c 0
 494 406 475 364 475 291 c 0
 475 264 475 239 462 239 c 0
 453 239 446 244 446 260 c 2
 446 271 l 2
 446 337 421 340 242 340 c 0
 221 340 207 334 206 318 c 0
 198 247 177 106 177 89 c 0
 177 6 285 44 285 10 c 0
 285 1 282 -2 270 -2 c 0
 254 -2 224 3 167 3 c 0
 112 3 49 -5 45 -5 c 0
 27 -5 20 1 20 8 c 0
EndSplineSet
EndChar
StartChar: H
Encoding: 72 72 40
Width: 786
Flags: MW
LayerCount: 2
Back
Fore
SplineSet
20 11 m 0
 20 33 47 17 75 45 c 0
 96 66 98 121 122 326 c 0
 139 465 158 617 158 619 c 0
 158 678 87 670 72 677 c 0
 66 679 64 684 64 689 c 0
 64 697 70 704 91 704 c 0
 119 704 138 697 194 697 c 0
 237 697 268 704 288 704 c 0
 295 704 306 703 306 689 c 0
 306 673 269 681 254 663 c 0
 230 635 232 568 209 438 c 0
 206 419 205 406 205 399 c 0
 205 387 209 387 217 387 c 0
 250 387 283 386 550 384 c 2
 570 384 l 2
 592 384 596 388 600 425 c 0
 603 454 619 594 619 605 c 0
 619 639 600 661 579 670 c 0
 564 676 525 673 525 689 c 0
 525 697 531 702 552 702 c 0
 580 702 603 699 659 699 c 0
 702 699 725 703 745 703 c 0
 752 703 767 702 767 688 c 0
 767 672 735 680 720 662 c 0
 700 639 693 577 690 545 c 0
 662 281 636 137 636 100 c 0
 636 22 672 26 698 24 c 0
 713 23 731 17 731 6 c 0
 731 -4 723 -6 713 -6 c 0
 674 -6 653 3 611 3 c 0
 560 3 542 -5 521 -5 c 0
 499 -5 489 0 489 8 c 0
 489 19 496 22 508 23 c 0
 556 28 556 82 560 112 c 0
 570 183 588 323 588 328 c 0
 588 342 585 344 554 344 c 0
 534 344 503 343 454 343 c 2
 219 343 l 2
 196 343 198 342 195 318 c 2
 188 266 l 2
 175 176 167 120 167 99 c 0
 167 30 199 32 224 25 c 0
 240 21 254 20 254 9 c 0
 254 0 245 0 238 0 c 0
 196 0 185 2 132 2 c 0
 109 2 78 -3 54 -3 c 0
 34 -3 20 -1 20 11 c 0
EndSplineSet
EndChar
StartChar: J
Encoding: 74 74 42
Width: 405
Flags: MW
LayerCount: 2
Back
Fore
SplineSet
-10 -39 m 0
 -10 -34 5 38 27 38 c 0
 47 38 45 -17 93 -17 c 0
 151 -17 174 116 189 246 c 2
 231 604 l 2
 232 615 234 623 234 629 c 0
 234 667 190 672 166 674 c 0
 151 675 141 680 141 692 c 0
 141 700 149 708 167 708 c 0
 198 708 205 699 265 699 c 0
 321 699 347 707 362 707 c 0
 371 707 385 705 385 695 c 0
 385 658 330 719 310 597 c 0
 302 547 286 375 259 195 c 0
 252 148 239 104 222 66 c 0
 186 -16 99 -69 42 -69 c 0
 11 -69 -10 -57 -10 -39 c 0
EndSplineSet
EndChar
StartChar: O
Encoding: 79 79 47
Width: 815
Flags: MW
LayerCount: 2
Back
Fore
SplineSet
39 314 m 0
 39 509 181 716 434 716 c 0
 670 716 776 550 776 376 c 0
 776 192 655 -20 394 -20 c 0
 180 -20 39 114 39 314 c 0
125 347 m 0
 125 130 262 16 401 16 c 0
 584 16 688 204 688 380 c 0
 688 429 684 478 667 521 c 0
 630 616 547 686 420 686 c 0
 222 686 125 491 125 347 c 0
EndSplineSet
EndChar
StartChar: P
Encoding: 80 80 48
Width: 576
Flags: MW
LayerCount: 2
Back
Fore
SplineSet
19 10 m 0
 19 22 30 23 44 26 c 0
 59 29 78 39 87 78 c 0
 91 97 103 200 114 292 c 2
 114 292 152 588 152 636 c 0
 152 659 144 688 83 690 c 0
 69 690 65 698 65 704 c 0
 65 712 72 716 88 716 c 0
 121 716 228 710 245 710 c 0
 288 710 318 717 353 717 c 0
 461 717 537 663 537 551 c 0
 537 470 492 382 410 347 c 0
 381 335 346 331 304 331 c 0
 267 331 235 338 235 347 c 0
 235 348 235 349 238 349 c 0
 243 349 256 348 293 348 c 0
 358 348 458 415 458 540 c 0
 458 612 416 641 387 660 c 0
 357 679 321 684 294 684 c 0
 283 684 274 684 268 683 c 0
 251 682 246 683 235 638 c 0
 230 618 226 589 218 529 c 0
 209 459 196 348 173 160 c 0
 172 148 162 91 162 81 c 0
 162 19 254 30 254 10 c 0
 254 -1 246 -5 235 -5 c 0
 214 -5 184 2 132 2 c 0
 119 2 60 -4 51 -4 c 0
 35 -4 19 0 19 10 c 0
EndSplineSet
EndChar
StartChar: Q
Encoding: 81 81 49
Width: 807
Flags: MW
LayerCount: 2
Back
Fore
SplineSet
39 -40 m 0
 39 69 118 74 118 88 c 0
 118 107 39 160 39 300 c 0
 39 440 120 717 443 717 c 0
 576 717 634 659 650 646 c 0
 670 630 687 615 702 595 c 0
 755 523 773 433 773 367 c 0
 773 165 627 9 470 -10 c 0
 418 -16 416 -21 416 -28 c 0
 416 -31 594 -135 672 -135 c 0
 737 -135 748 -86 763 -86 c 0
 769 -86 771 -90 771 -96 c 0
 771 -129 709 -200 646 -200 c 0
 478 -200 212 37 146 37 c 0
 103 37 69 -10 69 -52 c 0
 69 -103 92 -120 92 -133 c 0
 92 -138 88 -146 80 -146 c 0
 63 -146 39 -131 39 -40 c 0
124 326 m 0
 124 167 209 14 404 14 c 0
 595 14 687 217 687 389 c 0
 687 453 674 513 649 556 c 0
 616 614 534 688 425 688 c 0
 265 688 124 560 124 326 c 0
EndSplineSet
EndChar
StartChar: S
Encoding: 83 83 51
Width: 481
Flags: MW
LayerCount: 2
Back
Fore
SplineSet
20 134 m 0
 20 139 22 157 36 157 c 0
 42 157 45 152 47 146 c 0
 66 85 120 22 224 22 c 0
 345 22 366 99 366 133 c 0
 366 181 339 217 295 262 c 2
 178 378 l 2
 138 419 83 483 83 555 c 0
 83 638 118 667 149 688 c 0
 172 704 207 716 251 716 c 0
 311 716 379 681 397 681 c 0
 401 681 419 697 428 697 c 0
 434 697 441 693 441 676 c 0
 441 665 440 654 440 641 c 2
 440 624 l 2
 440 598 452 551 452 538 c 0
 452 525 442 518 436 518 c 0
 409 518 429 569 362 634 c 0
 328 667 289 682 243 682 c 0
 162 682 151 623 151 593 c 0
 151 495 253 433 345 337 c 0
 397 283 436 241 436 158 c 0
 436 100 391 -14 201 -14 c 0
 157 -14 90 -11 57 8 c 0
 37 19 20 102 20 134 c 0
EndSplineSet
EndChar
StartChar: T
Encoding: 84 84 52
Width: 692
Flags: MW
LayerCount: 2
Back
Fore
SplineSet
29 573 m 0
 29 604 41 602 61 680 c 0
 67 702 77 706 107 706 c 0
 177 706 144 703 365 703 c 0
 535 703 612 707 646 707 c 0
 674 707 674 696 674 687 c 0
 674 629 678 595 678 576 c 0
 678 555 668 553 659 553 c 0
 643 553 652 562 632 617 c 0
 621 648 607 650 483 650 c 2
 438 650 l 2
 400 650 406 643 395 538 c 0
 372 317 342 137 342 86 c 0
 342 5 428 45 428 13 c 0
 428 1 419 -2 403 -2 c 0
 383 -2 340 4 296 4 c 0
 264 4 228 -1 210 -1 c 0
 193 -1 178 2 178 13 c 0
 178 29 192 28 209 30 c 0
 224 32 239 35 250 52 c 0
 257 63 259 78 261 93 c 0
 275 198 330 628 330 638 c 0
 330 654 314 654 259 654 c 0
 120 654 108 643 87 620 c 0
 56 584 67 551 42 551 c 0
 32 551 29 562 29 573 c 0
EndSplineSet
EndChar
StartChar: U
Encoding: 85 85 53
Width: 827
Flags: MW
LayerCount: 2
Back
Fore
SplineSet
44 694 m 0
 44 700 48 708 61 708 c 0
 76 708 102 702 175 702 c 0
 197 702 223 708 265 708 c 0
 273 708 285 705 285 694 c 0
 285 665 220 694 213 619 c 0
 198 465 172 295 172 192 c 0
 172 136 197 25 361 25 c 0
 511 25 585 98 620 184 c 0
 653 267 693 562 693 617 c 0
 693 688 606 661 606 692 c 0
 606 698 612 705 630 705 c 0
 642 705 666 701 685 701 c 0
 727 701 770 705 789 705 c 0
 799 705 807 698 807 692 c 0
 807 672 760 688 743 631 c 0
 735 605 702 272 657 164 c 0
 625 87 582 56 515 15 c 0
 480 -6 398 -19 364 -19 c 0
 242 -19 184 6 141 50 c 0
 98 93 94 138 94 215 c 0
 94 243 131 599 131 626 c 0
 131 697 44 662 44 694 c 0
EndSplineSet
EndChar
StartChar: V
Encoding: 86 86 54
Width: 780
Flags: MW
LayerCount: 2
Back
Fore
SplineSet
20 690 m 0
 20 701 31 705 56 705 c 0
 78 705 108 701 136 701 c 0
 156 701 193 705 214 705 c 0
 241 705 250 700 250 692 c 0
 250 665 196 696 196 622 c 0
 196 599 329 107 346 107 c 0
 356 107 624 594 624 638 c 0
 624 685 545 665 545 693 c 0
 545 702 547 707 565 707 c 0
 579 707 642 702 675 702 c 0
 691 702 687 704 726 704 c 0
 746 704 760 701 760 693 c 0
 760 671 739 687 709 662 c 0
 663 624 594 451 516 319 c 0
 445 198 347 21 312 -16 c 0
 308 -20 303 -21 301 -21 c 0
 286 -21 283 -2 272 39 c 2
 135 535 l 2
 120 590 108 638 73 660 c 0
 46 677 20 662 20 690 c 0
EndSplineSet
EndChar
StartChar: X
Encoding: 88 88 56
Width: 737
Flags: MW
LayerCount: 2
Back
Fore
SplineSet
20 10 m 0
 20 40 49 8 125 84 c 0
 167 126 214 189 273 263 c 0
 345 354 345 353 345 358 c 0
 345 361 321 414 296 477 c 0
 260 569 212 645 178 653 c 0
 175 654 162 661 141 661 c 0
 88 661 61 616 61 577 c 0
 61 556 71 534 86 525 c 0
 96 519 113 521 113 500 c 0
 113 488 100 481 86 481 c 0
 49 481 24 538 24 591 c 0
 24 697 117 719 158 719 c 0
 249 719 289 670 337 570 c 0
 382 476 389 430 398 430 c 0
 401 430 405 434 417 450 c 2
 482 537 l 2
 532 603 554 637 554 657 c 0
 554 696 495 679 495 701 c 0
 495 711 502 716 512 716 c 0
 555 716 558 713 593 713 c 0
 629 713 656 716 676 716 c 0
 696 716 707 710 707 698 c 0
 707 692 703 686 693 684 c 0
 646 676 636 672 510 510 c 0
 417 390 416 395 416 390 c 0
 416 376 485 218 537 127 c 0
 565 78 594 33 661 33 c 0
 693 33 697 48 717 48 c 0
 725 48 727 41 727 37 c 0
 727 11 674 -7 629 -7 c 0
 515 -7 494 21 456 106 c 0
 375 289 371 313 362 313 c 0
 358 313 348 300 333 280 c 2
 240 156 l 2
 210 115 188 83 188 60 c 0
 188 51 196 31 248 27 c 0
 255 27 265 24 265 12 c 0
 265 0 256 -2 237 -2 c 0
 219 -2 137 3 128 3 c 0
 110 3 69 -7 48 -7 c 0
 32 -7 20 -4 20 10 c 0
EndSplineSet
EndChar
StartChar: Y
Encoding: 89 89 57
Width: 690
Flags: MW
LayerCount: 2
Back
Fore
SplineSet
20 700 m 0
 20 707 26 714 53 714 c 0
 66 714 129 710 146 710 c 0
 169 710 218 714 235 714 c 0
 261 714 265 706 265 699 c 0
 265 678 215 683 215 657 c 0
 215 627 244 566 259 540 c 0
 298 468 341 359 348 359 c 0
 351 359 534 602 534 654 c 0
 534 696 463 665 463 698 c 0
 463 709 470 712 489 712 c 0
 500 712 526 710 542 710 c 0
 587 710 607 713 645 713 c 0
 670 713 671 705 671 698 c 0
 671 683 629 682 607 659 c 0
 564 614 432 405 396 365 c 0
 371 337 361 321 353 248 c 0
 341 133 337 85 337 79 c 0
 337 62 345 52 359 40 c 0
 391 14 432 30 432 8 c 0
 432 0 431 -6 413 -6 c 0
 399 -6 331 1 300 1 c 0
 254 1 240 -7 216 -7 c 0
 195 -7 189 0 189 6 c 0
 189 24 209 22 227 27 c 0
 247 33 252 50 257 89 c 2
 257 89 284 273 284 302 c 0
 284 331 261 365 155 570 c 0
 112 654 89 673 67 680 c 0
 55 684 20 677 20 700 c 0
EndSplineSet
EndChar
StartChar: bracketleft
Encoding: 91 91 59
Width: 266
Flags: MW
LayerCount: 2
Back
Fore
SplineSet
55 -179 m 0
 55 -170 57 -159 58 -143 c 2
 64 -82 l 2
 81 77 117 372 138 570 c 0
 149 671 152 721 154 738 c 0
 156 761 169 763 203 763 c 2
 243 763 l 2
 292 763 298 764 304 764 c 0
 312 764 317 756 317 746 c 0
 317 735 312 723 304 723 c 0
 287 723 227 722 218 722 c 2
 203 722 l 2
 193 722 197 722 180 559 c 0
 162 391 104 -101 104 -142 c 0
 104 -151 106 -159 113 -159 c 0
 130 -159 189 -158 197 -158 c 0
 212 -158 217 -162 217 -174 c 0
 217 -202 200 -204 165 -204 c 2
 82 -204 l 2
 61 -204 55 -201 55 -179 c 0
EndSplineSet
EndChar
StartChar: backslash
Encoding: 92 92 60
Width: 416
Flags: MW
LayerCount: 2
Back
Fore
SplineSet
20 723 m 0
 20 733 32 735 41 735 c 0
 59 735 65 732 70 717 c 0
 72 710 377 -113 377 -113 c 2
 385 -136 396 -158 396 -167 c 0
 396 -183 374 -183 363 -183 c 0
 354 -183 349 -181 338 -152 c 2
 34 679 l 2
 29 692 20 714 20 723 c 0
EndSplineSet
EndChar
StartChar: bracketright
Encoding: 93 93 61
Width: 266
Flags: MW
LayerCount: 2
Back
Fore
SplineSet
-51 -186 m 0
 -51 -175 -46 -163 -38 -163 c 2
 59 -163 l 1
 63 -163 l 2
 73 -163 69 -162 86 1 c 0
 104 169 162 661 162 702 c 0
 162 711 160 718 153 718 c 2
 69 718 l 2
 54 718 49 721 49 733 c 0
 49 746 53 762 67 762 c 0
 114 763 79 764 184 764 c 0
 205 764 211 760 211 738 c 0
 211 729 209 719 208 703 c 2
 202 642 l 2
 185 483 149 188 128 -10 c 0
 117 -111 114 -161 112 -178 c 0
 110 -201 97 -204 63 -204 c 2
 23 -204 l 1
 -38 -204 l 2
 -46 -204 -51 -196 -51 -186 c 0
EndSplineSet
EndChar
StartChar: underscore
Encoding: 95 95 63
Width: 213
Flags: MW
LayerCount: 2
Back
Fore
SplineSet
0 -38 m 0
 0 -25 1 -17 19 -17 c 2
 197 -17 l 2
 213 -17 213 -24 213 -38 c 0
 213 -55 213 -62 192 -62 c 2
 18 -62 l 2
 0 -62 0 -55 0 -38 c 0
EndSplineSet
EndChar
StartChar: grave
Encoding: 96 96 64
Width: 439
Flags: MW
LayerCount: 2
Back
Fore
SplineSet
131 634 m 0
 131 653 178 660 183 660 c 0
 186 660 194 658 199 642 c 0
 237 521 258 504 258 492 c 0
 258 486 253 482 248 482 c 0
 234 482 131 608 131 634 c 0
EndSplineSet
EndChar
StartChar: a
Encoding: 97 97 65
Width: 518
Flags: MW
LayerCount: 2
Back
Fore
SplineSet
32 114 m 0
 32 170 57 227 88 277 c 0
 124 334 170 382 223 407 c 0
 250 420 270 425 296 425 c 0
 327 425 348 414 381 414 c 0
 401 414 413 463 433 463 c 0
 439 463 444 459 444 448 c 0
 444 432 431 408 424 379 c 0
 415 342 409 296 401 251 c 0
 393 207 383 161 383 123 c 0
 383 97 398 64 417 64 c 0
 450 64 471 129 490 129 c 0
 498 129 499 122 499 118 c 0
 499 108 494 93 481 75 c 0
 456 39 411 -7 384 -7 c 0
 320 -7 329 105 322 105 c 0
 317 105 234 -15 139 -15 c 0
 44 -15 32 49 32 114 c 0
102 120 m 0
 102 70 138 40 180 40 c 0
 252 40 299 112 308 130 c 0
 332 178 359 362 359 365 c 0
 359 393 314 400 293 400 c 0
 252 400 199 370 169 319 c 0
 140 271 116 226 107 174 c 0
 104 156 102 138 102 120 c 0
EndSplineSet
EndChar
StartChar: b
Encoding: 98 98 66
Width: 471
Flags: MW
LayerCount: 2
Back
Fore
SplineSet
44 71 m 0
 44 135 67 239 81 320 c 0
 99 424 111 521 126 595 c 0
 135 638 141 673 141 697 c 0
 141 702 136 709 116 709 c 0
 101 709 90 707 75 707 c 0
 64 707 56 707 56 721 c 0
 56 741 84 740 130 746 c 0
 169 751 187 757 193 757 c 0
 204 757 212 750 212 739 c 0
 212 721 148 423 148 351 c 0
 148 344 151 336 153 336 c 0
 167 336 214 429 329 429 c 0
 404 429 439 367 439 302 c 0
 439 166 321 -13 166 -13 c 0
 107 -13 44 13 44 71 c 0
110 83 m 0
 110 49 125 15 187 15 c 0
 277 15 369 159 369 274 c 0
 369 330 326 376 271 376 c 0
 247 376 182 366 150 279 c 0
 121 200 110 93 110 83 c 0
EndSplineSet
EndChar
StartChar: c
Encoding: 99 99 67
Width: 418
Flags: MW
LayerCount: 2
Back
Fore
SplineSet
32 149 m 0
 32 286 144 436 286 436 c 0
 296 436 386 421 386 364 c 0
 386 344 371 325 353 325 c 0
 310 325 301 397 231 397 c 0
 222 397 193 386 166 362 c 0
 154 351 100 290 100 199 c 0
 100 97 140 46 218 46 c 0
 300 46 334 100 352 100 c 0
 360 100 365 93 365 87 c 0
 365 73 294 -12 183 -12 c 0
 110 -12 32 15 32 149 c 0
EndSplineSet
EndChar
StartChar: f
Encoding: 102 102 70
Width: 302
Flags: MW
LayerCount: 2
Back
Fore
SplineSet
-43 -156 m 0
 -43 -148 -34 -88 -14 -88 c 0
 -9 -88 -2 -92 -1 -102 c 0
 3 -126 24 -138 29 -138 c 0
 61 -138 63 -20 76 73 c 2
 76 73 116 359 116 361 c 0
 116 369 113 374 106 374 c 2
 45 374 l 2
 23 374 20 380 20 392 c 0
 20 411 23 417 46 417 c 2
 46 417 96 415 118 415 c 0
 121 415 124 415 125 422 c 0
 135 491 153 587 211 670 c 0
 246 719 284 750 337 750 c 0
 370 750 384 739 384 713 c 0
 384 705 381 656 367 656 c 0
 346 656 329 697 284 697 c 0
 232 697 185 439 185 425 c 0
 185 417 189 415 197 415 c 0
 218 415 252 417 278 417 c 0
 293 417 297 410 297 400 c 0
 297 390 294 373 277 373 c 0
 238 373 220 375 193 375 c 0
 175 375 177 366 175 350 c 0
 170 305 160 183 147 79 c 0
 139 12 129 -49 119 -73 c 0
 80 -167 14 -180 -7 -180 c 0
 -24 -180 -43 -172 -43 -156 c 0
EndSplineSet
EndChar
StartChar: h
Encoding: 104 104 72
Width: 485
Flags: MW
LayerCount: 2
Back
Fore
SplineSet
29 23 m 0
 29 50 50 151 58 206 c 0
 69 280 129 675 129 682 c 0
 129 699 119 705 101 705 c 0
 80 705 68 704 60 704 c 0
 54 704 47 706 47 716 c 0
 47 721 51 727 85 730 c 0
 167 737 171 747 193 747 c 0
 200 747 205 741 205 734 c 0
 205 712 145 442 145 351 c 0
 145 345 146 340 149 340 c 0
 159 340 213 425 294 425 c 0
 363 425 383 374 383 312 c 0
 383 255 359 156 359 110 c 0
 359 83 368 64 383 64 c 0
 399 64 412 74 425 82 c 0
 446 95 458 123 466 123 c 0
 472 123 476 120 476 115 c 0
 476 69 390 -3 346 -3 c 0
 305 -3 297 47 297 90 c 0
 297 152 315 234 315 294 c 0
 315 357 288 372 258 372 c 0
 222 372 166 354 139 285 c 0
 119 235 113 131 99 29 c 0
 95 3 83 -1 62 -1 c 0
 51 -1 29 3 29 23 c 0
EndSplineSet
EndChar
StartChar: i
Encoding: 105 105 73
Width: 250
Flags: MW
LayerCount: 2
Back
Fore
SplineSet
20 396 m 0
 20 409 32 410 43 410 c 2
 53 410 l 2
 93 410 110 419 167 419 c 0
 174 419 181 415 181 408 c 0
 181 382 162 343 154 292 c 0
 124 103 124 105 124 93 c 0
 124 79 134 66 144 66 c 0
 178 66 192 118 206 118 c 0
 212 118 216 114 216 107 c 0
 216 95 198 61 187 49 c 1
 187 49 132 -10 95 -10 c 0
 65 -10 58 30 58 73 c 0
 58 149 103 305 103 362 c 0
 103 379 97 383 79 383 c 0
 58 383 42 384 34 384 c 0
 28 384 20 386 20 396 c 0
126 593 m 0
 126 602 158 646 176 646 c 0
 196 646 215 611 215 593 c 0
 215 573 180 540 171 540 c 0
 153 540 126 583 126 593 c 0
EndSplineSet
EndChar
StartChar: j
Encoding: 106 106 74
Width: 242
Flags: MW
LayerCount: 2
Back
Fore
SplineSet
-73 -131 m 0
 -73 -123 -70 -115 -60 -115 c 0
 -38 -115 -23 -157 4 -157 c 0
 25 -157 34 -121 56 54 c 0
 73 188 96 350 96 359 c 0
 96 379 76 383 64 383 c 2
 38 383 l 2
 24 383 20 389 20 395 c 0
 20 403 25 411 40 411 c 0
 48 411 59 412 71 412 c 0
 97 412 118 421 145 421 c 0
 167 421 168 412 168 405 c 0
 168 361 154 318 146 258 c 0
 104 -60 115 -99 46 -164 c 0
 28 -181 14 -200 -30 -200 c 0
 -55 -200 -69 -196 -70 -172 c 0
 -71 -145 -73 -139 -73 -131 c 0
109 591 m 0
 109 607 139 644 160 644 c 0
 175 644 197 616 197 594 c 0
 197 575 168 540 155 540 c 0
 130 540 109 584 109 591 c 0
EndSplineSet
EndChar
StartChar: k
Encoding: 107 107 75
Width: 452
Flags: MW
LayerCount: 2
Back
Fore
SplineSet
29 23 m 0
 29 50 48 151 56 206 c 2
 76 339 l 2
 104 528 104 556 118 639 c 0
 123 667 126 685 126 686 c 0
 126 695 119 705 101 705 c 0
 80 705 68 707 60 707 c 0
 54 707 45 709 45 719 c 0
 45 724 47 734 60 734 c 0
 142 737 156 749 182 749 c 0
 189 749 200 745 200 734 c 0
 200 730 196 706 193 688 c 2
 184 630 l 2
 157 470 151 416 144 363 c 2
 135 294 l 2
 134 285 126 255 126 234 c 0
 126 220 126 215 135 215 c 0
 145 215 257 293 290 347 c 0
 312 384 310 433 357 433 c 0
 377 433 389 416 389 396 c 0
 389 337 235 260 235 254 c 0
 235 249 261 207 285 164 c 0
 312 116 336 67 353 67 c 0
 388 67 410 123 423 123 c 0
 430 123 432 114 432 105 c 0
 432 68 372 -3 335 -3 c 0
 278 -3 211 218 179 218 c 0
 177 218 166 211 155 205 c 0
 112 181 118 190 114 160 c 2
 96 29 l 2
 93 3 77 -1 62 -1 c 0
 51 -1 29 3 29 23 c 0
EndSplineSet
EndChar
StartChar: o
Encoding: 111 111 79
Width: 446
Flags: MW
LayerCount: 2
Back
Fore
SplineSet
32 169 m 0
 32 293 116 435 268 435 c 0
 368 435 414 352 414 258 c 0
 414 133 332 -10 185 -10 c 0
 103 -10 32 47 32 169 c 0
109 168 m 0
 109 67 149 20 196 20 c 0
 303 20 340 187 340 270 c 0
 340 364 300 405 254 405 c 0
 206 405 152 361 129 280 c 0
 119 245 109 209 109 168 c 0
EndSplineSet
EndChar
StartChar: p
Encoding: 112 112 80
Width: 488
Flags: MW
LayerCount: 2
Back
Fore
SplineSet
3 -183 m 0
 3 -157 40 -163 47 -142 c 0
 49 -136 50 -127 53 -103 c 0
 114 372 118 369 118 372 c 0
 118 375 117 377 113 377 c 0
 102 377 74 359 62 359 c 0
 52 359 49 365 49 371 c 2
 49 375 l 2
 49 380 50 385 56 388 c 0
 136 421 124 399 133 450 c 0
 147 525 142 545 173 561 c 0
 181 565 191 568 202 568 c 0
 212 568 216 561 216 551 c 0
 216 521 189 460 189 432 c 2
 189 428 l 2
 189 425 190 423 194 423 c 0
 203 423 225 428 279 428 c 0
 371 428 456 400 456 294 c 0
 456 232 447 196 417 145 c 0
 395 107 384 81 330 42 c 0
 288 12 247 0 198 0 c 0
 183 0 158 4 144 4 c 0
 129 4 132 3 124 -56 c 0
 120 -86 114 -119 114 -129 c 0
 114 -179 197 -160 197 -183 c 0
 197 -192 191 -196 183 -196 c 0
 149 -196 111 -195 83 -195 c 0
 61 -195 41 -196 29 -196 c 2
 20 -196 l 2
 13 -196 3 -192 3 -183 c 0
141 51 m 0
 141 45 152 27 198 27 c 0
 298 27 383 167 383 257 c 0
 383 394 251 403 215 403 c 0
 199 403 197 400 191 400 c 0
 184 400 180 375 174 323 c 2
 161 212 l 2
 155 167 141 80 141 51 c 0
EndSplineSet
EndChar
StartChar: q
Encoding: 113 113 81
Width: 507
Flags: MW
LayerCount: 2
Back
Fore
SplineSet
22 116 m 0
 22 190 82 286 135 345 c 0
 194 409 260 427 309 427 c 0
 366 427 370 409 384 409 c 0
 407 409 425 487 446 487 c 0
 454 487 458 480 458 475 c 0
 458 454 434 412 423 324 c 0
 417 273 425 314 406 189 c 0
 367 -78 360 -112 360 -145 c 0
 360 -185 433 -155 433 -189 c 0
 433 -198 420 -199 409 -199 c 0
 369 -199 341 -195 321 -195 c 0
 273 -195 272 -200 248 -200 c 0
 222 -200 217 -191 217 -185 c 0
 217 -160 293 -192 303 -107 c 0
 316 -6 335 103 335 116 c 0
 335 119 334 122 333 122 c 0
 320 122 281 -10 116 -10 c 0
 76 -10 22 27 22 116 c 0
90 129 m 0
 90 80 124 35 176 35 c 0
 238 35 317 103 346 203 c 0
 358 244 368 332 368 346 c 0
 368 372 339 400 294 400 c 0
 184 400 90 220 90 129 c 0
EndSplineSet
EndChar
StartChar: r
Encoding: 114 114 82
Width: 352
Flags: MW
LayerCount: 2
Back
Fore
SplineSet
15 296 m 0
 15 410 100 434 109 434 c 0
 130 434 140 415 146 399 c 0
 171 334 172 333 174 333 c 0
 181 333 231 436 305 436 c 0
 331 436 342 419 342 405 c 0
 342 392 334 379 331 368 c 0
 329 361 327 330 309 330 c 0
 287 330 291 372 255 372 c 0
 210 372 185 241 180 199 c 2
 175 166 l 2
 153 -4 155 -4 119 -4 c 2
 114 -4 l 2
 104 -4 84 -2 84 22 c 0
 84 62 127 209 127 284 c 0
 127 334 111 352 93 352 c 0
 52 352 44 292 38 285 c 0
 35 282 32 279 27 279 c 0
 23 279 15 282 15 296 c 0
EndSplineSet
EndChar
StartChar: s
Encoding: 115 115 83
Width: 333
Flags: MW
LayerCount: 2
Back
Fore
SplineSet
15 54 m 0
 15 85 35 90 47 90 c 0
 98 90 81 21 142 21 c 0
 215 21 222 73 222 85 c 0
 222 132 189 161 153 197 c 0
 113 238 75 264 75 324 c 0
 75 391 133 437 211 437 c 0
 265 437 304 424 304 385 c 0
 304 354 271 351 266 351 c 0
 230 351 226 407 187 407 c 0
 149 407 134 384 134 354 c 0
 134 316 189 275 213 249 c 0
 244 214 282 186 282 119 c 0
 282 83 254 -12 126 -12 c 0
 87 -12 15 1 15 54 c 0
EndSplineSet
EndChar
StartChar: v
Encoding: 118 118 86
Width: 427
Flags: MW
LayerCount: 2
Back
Fore
SplineSet
10 253 m 0
 10 357 92 430 133 430 c 0
 165 430 178 388 178 349 c 0
 178 289 158 221 158 115 c 0
 158 84 180 54 208 54 c 0
 280 54 360 207 360 322 c 0
 360 356 339 374 339 397 c 0
 339 420 367 431 375 431 c 0
 388 431 407 423 407 377 c 0
 407 334 383 221 353 164 c 0
 332 123 290 57 238 23 c 0
 215 8 177 -13 163 -13 c 0
 105 -13 98 72 98 142 c 0
 98 162 10 124 10 253 c 0
36 242 m 0
 36 183 77 176 81 176 c 0
 98 176 97 187 100 208 c 2
 100 208 114 312 114 333 c 0
 114 339 112 351 100 351 c 0
 84 351 36 289 36 242 c 0
EndSplineSet
EndChar
StartChar: w
Encoding: 119 119 87
Width: 675
Flags: MW
LayerCount: 2
Back
Fore
SplineSet
10 248 m 0
 10 348 90 429 131 429 c 0
 163 429 173 380 173 350 c 0
 173 268 161 217 161 117 c 0
 161 86 181 56 200 56 c 0
 250 56 303 149 324 198 c 0
 338 232 354 289 367 381 c 0
 372 415 373 427 401 427 c 0
 424 427 430 417 430 402 c 0
 430 361 403 290 403 198 c 0
 403 168 406 137 413 103 c 0
 420 73 429 53 455 53 c 0
 531 53 607 229 607 287 c 0
 607 376 588 364 588 396 c 0
 588 412 610 429 626 429 c 0
 639 429 655 423 655 384 c 0
 655 332 630 223 600 166 c 0
 534 40 446 -10 406 -10 c 0
 377 -10 349 24 347 163 c 0
 347 177 345 182 344 182 c 0
 339 182 257 -11 161 -11 c 0
 110 -11 100 74 100 144 c 0
 100 161 10 137 10 248 c 0
43 243 m 0
 43 229 44 217 47 209 c 0
 57 187 73 182 86 182 c 0
 102 182 104 194 109 242 c 0
 112 268 114 306 114 320 c 0
 114 328 110 342 99 342 c 0
 83 342 43 293 43 243 c 0
EndSplineSet
EndChar
StartChar: x
Encoding: 120 120 88
Width: 475
Flags: MW
LayerCount: 2
Back
Fore
SplineSet
20 23 m 0
 20 56 35 64 55 64 c 0
 75 64 82 54 98 54 c 0
 135 54 215 208 215 208 c 2
 215 210 182 310 163 339 c 0
 155 352 147 355 140 355 c 0
 92 355 104 295 82 295 c 0
 72 295 68 302 68 330 c 0
 68 343 77 380 93 402 c 0
 107 422 133 436 147 436 c 0
 214 436 246 278 258 278 c 0
 267 278 321 438 408 438 c 0
 429 438 445 417 445 397 c 0
 445 378 433 360 411 360 c 0
 392 360 380 367 368 367 c 0
 335 367 265 256 265 247 c 0
 265 238 314 128 343 70 c 0
 356 44 376 30 393 30 c 0
 405 30 418 32 427 32 c 0
 435 32 441 27 441 20 c 0
 441 -6 382 -12 375 -12 c 0
 277 -12 275 42 266 65 c 0
 247 113 232 166 224 166 c 0
 216 166 152 -15 56 -15 c 0
 35 -15 20 2 20 23 c 0
EndSplineSet
EndChar
StartChar: braceleft
Encoding: 123 123 91
Width: 266
Flags: MW
LayerCount: 2
Back
Fore
SplineSet
52 -175 m 0
 52 -161 95 192 95 208 c 0
 95 240 68 239 68 263 c 0
 68 299 105 287 108 321 c 0
 122 450 133 589 148 734 c 0
 149 749 160 752 167 752 c 0
 186 752 201 744 224 744 c 0
 258 744 271 750 287 750 c 0
 293 750 303 748 303 741 c 0
 303 707 233 685 204 685 c 0
 200 685 196 680 196 676 c 0
 146 239 114 -104 114 -106 c 0
 114 -116 152 -114 180 -131 c 0
 186 -135 208 -150 208 -169 c 0
 208 -174 207 -181 200 -181 c 0
 195 -181 170 -172 133 -172 c 0
 84 -172 81 -186 62 -186 c 0
 56 -186 52 -181 52 -175 c 0
EndSplineSet
EndChar
StartChar: bar
Encoding: 124 124 92
Width: 209
Flags: MW
LayerCount: 2
Back
Fore
SplineSet
78 -87 m 2
 78 72 84 372 84 570 c 0
 84 671 83 721 83 738 c 0
 83 755 89 762 108 762 c 0
 127 762 130 754 130 737 c 0
 130 731 129 723 129 714 c 0
 129 698 131 652 131 559 c 0
 131 402 126 160 126 10 c 0
 126 -32 126 -87 127 -137 c 0
 127 -142 128 -152 128 -163 c 2
 128 -171 l 2
 128 -190 127 -209 111 -209 c 0
 81 -209 78 -203 78 -148 c 2
 78 -87 l 2
EndSplineSet
EndChar
StartChar: braceright
Encoding: 125 125 93
Width: 266
Flags: MW
LayerCount: 2
Back
Fore
SplineSet
-35 -174 m 0
 -35 -157 -13 -139 2 -131 c 0
 34 -114 72 -115 73 -105 c 0
 115 286 78 -106 155 677 c 0
 155 681 152 685 149 685 c 0
 125 685 62 702 62 737 c 0
 62 745 66 750 80 750 c 0
 96 750 108 744 142 744 c 0
 165 744 182 752 201 752 c 0
 208 752 215 749 215 737 c 0
 215 720 168 331 168 317 c 0
 168 290 197 297 197 271 c 0
 197 237 162 244 158 202 c 0
 117 -175 129 -186 108 -186 c 0
 89 -186 90 -172 41 -172 c 0
 4 -172 -23 -181 -28 -181 c 0
 -33 -181 -35 -177 -35 -174 c 0
EndSplineSet
EndChar
StartChar: exclamdown
Encoding: 161 161 100
Width: 249
Flags: MW
LayerCount: 2
Back
Fore
SplineSet
68 21 m 0
 68 57 83 67 104 219 c 0
 115 298 128 375 146 461 c 0
 147 467 155 481 167 481 c 0
 177 481 180 475 180 464 c 0
 180 457 179 448 178 437 c 2
 152 48 l 2
 151 28 155 -11 104 -11 c 0
 86 -11 68 -5 68 21 c 0
122 620 m 0
 122 632 137 646 152 660 c 0
 164 672 178 687 184 687 c 0
 196 687 204 677 215 664 c 0
 228 648 245 635 245 625 c 0
 245 617 223 596 219 593 c 0
 197 576 187 560 171 560 c 0
 163 560 156 574 140 593 c 0
 131 603 122 613 122 620 c 0
EndSplineSet
EndChar
StartChar: cent
Encoding: 162 162 101
Width: 418
Flags: MW
LayerCount: 2
Back
Fore
SplineSet
32 159 m 0
 32 273 98 379 200 416 c 0
 236 429 236 417 239 445 c 2
 243 481 l 2
 243 487 250 491 258 491 c 0
 277 491 280 485 280 481 c 0
 280 475 274 441 274 436 c 0
 274 418 325 436 370 409 c 0
 376 405 380 404 380 387 c 2
 380 387 378 305 362 305 c 0
 343 305 358 331 290 369 c 0
 279 375 277 376 274 376 c 0
 271 376 268 373 266 356 c 2
 231 45 l 2
 231 44 230 42 230 41 c 0
 230 35 234 31 246 31 c 0
 320 31 362 83 374 83 c 0
 379 83 383 79 383 74 c 0
 383 62 330 -7 236 -19 c 0
 217 -21 224 -16 216 -91 c 0
 215 -100 205 -102 195 -102 c 0
 183 -102 181 -97 181 -90 c 0
 181 -79 187 -28 187 -24 c 0
 187 -14 177 -26 133 -9 c 0
 69 15 32 73 32 159 c 0
105 199 m 0
 105 94 179 43 189 43 c 0
 192 43 195 46 196 58 c 2
 231 374 l 1
 231 381 l 2
 231 388 229 388 217 388 c 0
 173 388 105 314 105 199 c 0
EndSplineSet
EndChar
StartChar: sterling
Encoding: 163 163 102
Width: 530
Flags: MW
LayerCount: 2
Back
Fore
SplineSet
20 37 m 0
 20 66 40 100 90 100 c 0
 126 100 156 79 162 79 c 0
 168 82 189 123 189 167 c 0
 189 224 165 294 160 311 c 0
 154 329 155 333 139 333 c 0
 127 333 106 332 64 332 c 0
 60 332 53 334 53 348 c 0
 53 360 56 375 68 375 c 2
 123 375 l 2
 137 375 139 376 139 377 c 0
 139 383 123 432 123 490 c 0
 123 646 230 719 333 719 c 0
 409 719 479 680 479 623 c 0
 479 589 444 565 435 565 c 0
 417 565 419 602 403 635 c 0
 388 665 352 683 313 683 c 0
 272 683 192 663 192 540 c 0
 192 482 210 431 220 396 c 0
 225 378 228 376 236 376 c 2
 379 376 l 2
 394 376 398 373 398 364 c 0
 398 333 387 333 373 333 c 2
 260 333 l 2
 248 333 239 332 239 329 c 0
 239 324 253 278 253 228 c 0
 253 140 201 68 200 67 c 1
 210 64 266 50 327 50 c 0
 455 50 484 151 500 151 c 0
 506 151 511 146 511 138 c 0
 511 112 465 -17 350 -17 c 0
 262 -17 176 24 169 27 c 0
 155 26 130 -11 71 -11 c 0
 36 -11 20 13 20 37 c 0
55 42 m 0
 55 31 67 17 84 17 c 0
 111 17 136 43 138 47 c 0
 135 52 106 63 84 63 c 0
 60 63 55 51 55 42 c 0
EndSplineSet
EndChar
StartChar: yen
Encoding: 165 165 95
Width: 690
Flags: MW
LayerCount: 2
Back
Fore
SplineSet
20 700 m 0
 20 707 26 714 53 714 c 0
 66 714 129 710 146 710 c 0
 169 710 218 714 235 714 c 0
 261 714 265 706 265 699 c 0
 265 678 215 683 215 657 c 0
 215 619 239 585 312 431 c 0
 323 407 321 405 332 405 c 2
 375 405 l 2
 389 405 384 406 398 425 c 0
 399 426 534 608 534 654 c 0
 534 696 463 665 463 698 c 0
 463 709 470 712 489 712 c 0
 500 712 526 710 542 710 c 0
 587 710 607 713 645 713 c 0
 670 713 671 705 671 698 c 0
 671 683 629 682 607 659 c 0
 577 627 499 508 447 435 c 0
 436 419 427 411 427 408 c 0
 427 405 427 405 520 405 c 0
 525 405 531 400 531 388 c 0
 531 364 521 362 516 362 c 2
 430 362 l 2
 380 362 387 359 375 338 c 0
 359 311 352 253 352 247 c 0
 352 242 354 241 362 241 c 0
 414 241 478 242 491 242 c 0
 508 242 511 238 511 229 c 0
 511 200 501 197 484 197 c 2
 358 197 l 2
 346 197 347 197 346 182 c 0
 344 161 337 89 337 79 c 0
 337 62 345 52 359 40 c 0
 391 14 432 30 432 8 c 0
 432 0 431 -6 413 -6 c 0
 399 -6 331 1 300 1 c 0
 254 1 240 -7 216 -7 c 0
 195 -7 189 0 189 6 c 0
 189 24 209 22 227 27 c 0
 247 33 252 51 257 89 c 0
 269 173 270 182 270 184 c 0
 270 194 266 197 239 197 c 0
 135 197 148 198 125 198 c 0
 120 198 114 202 114 214 c 0
 114 226 116 241 128 241 c 2
 257 241 l 2
 282 241 278 242 280 261 c 0
 281 273 284 294 284 302 c 0
 284 313 280 323 271 344 c 0
 264 360 266 361 248 361 c 2
 153 361 l 2
 136 361 134 365 134 374 c 0
 134 404 144 405 160 405 c 2
 228 405 l 2
 237 405 240 406 240 408 c 0
 240 410 236 414 232 422 c 2
 155 570 l 2
 112 654 89 673 67 680 c 0
 55 684 20 677 20 700 c 0
EndSplineSet
EndChar
StartChar: brokenbar
Encoding: 166 166 96
Width: 208
Flags: MW
LayerCount: 2
Back
Fore
SplineSet
78 -148 m 0
 78 -101 80 -124 80 176 c 0
 80 193 87 201 106 201 c 0
 125 201 127 193 127 176 c 0
 127 -151 128 -119 128 -171 c 0
 128 -190 127 -209 111 -209 c 0
 81 -209 78 -203 78 -148 c 0
83 414 m 2
 83 738 l 2
 83 755 89 762 108 762 c 0
 127 762 130 754 130 737 c 2
 130 391 l 2
 130 372 130 353 114 353 c 0
 84 353 83 359 83 414 c 2
EndSplineSet
EndChar
StartChar: section
Encoding: 167 167 105
Width: 542
Flags: MW
LayerCount: 2
Back
Fore
SplineSet
59 12 m 0
 59 22 62 40 75 40 c 0
 90 40 90 25 95 6 c 0
 107 -39 143 -136 236 -136 c 0
 329 -136 393 -79 393 -17 c 0
 393 92 83 80 83 258 c 0
 83 383 195 418 195 426 c 0
 195 438 125 454 125 536 c 0
 125 631 206 720 323 720 c 0
 398 720 418 693 440 693 c 0
 444 693 456 700 463 700 c 0
 468 700 478 697 478 690 c 0
 479 650 483 589 483 564 c 0
 483 545 479 526 468 526 c 0
 437 526 465 616 380 665 c 0
 361 676 337 683 304 683 c 0
 223 683 187 617 187 577 c 0
 187 460 481 491 481 306 c 0
 481 182 394 138 394 131 c 0
 394 123 425 119 441 65 c 0
 445 50 448 35 448 21 c 0
 448 -64 377 -181 224 -181 c 0
 175 -181 139 -177 83 -143 c 0
 64 -132 59 -12 59 12 c 0
144 299 m 0
 144 273 157 247 189 225 c 0
 217 205 350 153 355 153 c 0
 371 153 425 207 425 263 c 0
 425 334 340 364 300 381 c 0
 275 392 242 404 236 404 c 0
 223 404 144 366 144 299 c 0
EndSplineSet
EndChar
StartChar: dieresis
Encoding: 168 168 215
Width: 439
Flags: MW
LayerCount: 2
Back
Fore
SplineSet
122 589 m 0
 122 604 151 640 172 640 c 0
 192 640 212 612 212 593 c 0
 212 570 174 540 166 540 c 0
 140 540 122 572 122 589 c 0
276 589 m 0
 276 604 306 640 327 640 c 0
 347 640 367 612 367 593 c 0
 367 570 328 540 320 540 c 0
 294 540 276 572 276 589 c 0
EndSplineSet
EndChar
StartChar: copyright
Encoding: 169 169 143
Width: 796
Flags: MW
LayerCount: 2
Back
Fore
SplineSet
44 335 m 0
 44 528 199 692 400 692 c 0
 599 692 756 529 756 335 c 0
 756 144 603 -21 399 -21 c 0
 207 -21 44 134 44 335 c 0
86 335 m 0
 86 158 231 21 400 21 c 0
 567 21 714 155 714 336 c 0
 714 503 579 649 399 649 c 0
 223 649 86 506 86 335 c 0
164 322 m 0
 164 451 245 559 401 559 c 0
 487 559 555 515 562 515 c 0
 566 515 566 521 574 521 c 0
 592 521 585 503 595 438 c 0
 596 431 597 426 597 422 c 0
 597 415 594 407 584 407 c 0
 578 407 573 412 570 418 c 0
 535 482 480 525 401 525 c 0
 301 525 230 458 230 358 c 0
 230 276 270 146 431 146 c 0
 497 146 543 191 567 225 c 0
 584 249 578 263 597 263 c 0
 602 263 604 259 604 255 c 0
 604 238 597 196 592 172 c 0
 590 163 582 159 579 158 c 0
 530 136 490 109 415 109 c 0
 194 109 164 263 164 322 c 0
EndSplineSet
EndChar
StartChar: guillemotleft
Encoding: 171 171 108
Width: 351
Flags: MW
LayerCount: 2
Back
Fore
SplineSet
20 215 m 0
 20 221 25 225 27 227 c 0
 173 349 172 349 176 349 c 0
 182 349 188 337 188 331 c 0
 188 319 89 227 89 217 c 0
 89 204 164 116 164 103 c 0
 164 97 154 84 147 84 c 0
 143 84 144 84 24 208 c 0
 22 210 20 212 20 215 c 0
143 215 m 0
 143 222 148 226 149 227 c 0
 295 349 294 349 299 349 c 0
 305 349 312 337 312 331 c 0
 312 319 212 228 212 217 c 0
 212 205 286 112 286 102 c 0
 286 99 278 84 270 84 c 0
 265 84 267 84 147 208 c 0
 145 210 143 212 143 215 c 0
EndSplineSet
EndChar
StartChar: logicalnot
Encoding: 172 172 144
Width: 508
Flags: MW
LayerCount: 2
Back
Fore
SplineSet
21 215 m 0
 21 232 31 232 40 232 c 2
 467 232 l 2
 484 232 487 230 487 213 c 2
 487 55 l 2
 487 45 485 40 472 40 c 0
 453 40 442 40 442 60 c 2
 442 171 l 2
 442 185 432 188 416 188 c 2
 41 188 l 2
 22 188 21 196 21 215 c 0
EndSplineSet
EndChar
StartChar: softhyphen
Encoding: 173 173 142
Width: 282
Flags: MW
LayerCount: 2
Back
Fore
SplineSet
39 185 m 0
 39 200 43 213 83 225 c 0
 193 258 198 268 221 268 c 0
 231 268 243 264 243 246 c 0
 243 208 235 213 168 190 c 0
 90 163 77 152 56 152 c 0
 43 152 39 164 39 185 c 0
EndSplineSet
EndChar
StartChar: registered
Encoding: 174 174 145
Width: 478
Flags: MW
LayerCount: 2
Back
Fore
SplineSet
29 546 m 0
 29 663 122 757 237 757 c 0
 354 757 449 663 449 546 c 0
 449 432 354 337 237 337 c 0
 122 337 29 432 29 546 c 0
59 546 m 0
 59 450 141 369 237 369 c 0
 336 369 418 450 418 546 c 0
 418 645 336 726 237 726 c 0
 141 726 59 645 59 546 c 0
123 658 m 0
 123 662 126 667 135 667 c 2
 158 667 l 2
 207 667 220 669 234 669 c 0
 278 669 321 652 321 605 c 0
 321 561 276 559 276 554 c 0
 276 552 290 539 298 525 c 0
 309 505 326 481 335 469 c 0
 345 456 350 454 356 454 c 0
 357 454 360 455 362 455 c 0
 366 455 367 452 367 451 c 0
 367 447 362 434 342 434 c 0
 334 434 328 434 315 441 c 0
 286 457 253 543 236 547 c 1
 211 547 l 2
 203 547 201 547 201 525 c 0
 201 490 203 481 204 475 c 0
 213 441 245 458 245 444 c 0
 245 441 243 438 238 438 c 0
 236 438 191 440 187 440 c 0
 169 440 146 438 142 438 c 0
 138 438 135 441 135 445 c 0
 135 457 158 442 162 472 c 0
 163 482 163 493 163 505 c 2
 163 529 l 2
 163 590 164 604 164 625 c 0
 164 648 147 651 134 651 c 0
 126 651 123 656 123 658 c 0
201 596 m 2
 201 571 202 562 215 562 c 0
 225 562 223 561 229 561 c 0
 269 561 282 571 282 604 c 0
 282 617 269 652 218 652 c 0
 203 652 201 648 201 629 c 2
 201 596 l 2
EndSplineSet
EndChar
StartChar: macron
Encoding: 175 175 127
Width: 439
Flags: MW
LayerCount: 2
Back
Fore
SplineSet
125 581 m 0
 125 593 131 608 145 608 c 0
 285 608 238 606 325 606 c 0
 335 606 338 605 338 592 c 0
 338 576 335 563 321 563 c 0
 303 563 169 564 133 564 c 0
 128 564 125 572 125 581 c 0
EndSplineSet
EndChar
StartChar: plusminus
Encoding: 177 177 147
Width: 508
Flags: MW
LayerCount: 2
Back
Fore
SplineSet
21 90 m 0
 21 108 22 117 40 117 c 2
 468 117 l 2
 483 117 486 112 486 97 c 0
 486 82 485 73 465 73 c 2
 39 73 l 2
 28 73 21 75 21 90 c 0
21 324 m 0
 21 336 25 346 40 346 c 2
 221 346 l 2
 230 346 231 350 231 356 c 2
 231 365 l 1
 231 495 l 2
 231 506 238 510 247 510 c 0
 271 510 275 507 275 493 c 2
 275 365 l 1
 275 357 l 2
 275 351 277 346 287 346 c 2
 471 346 l 2
 480 346 486 344 486 331 c 0
 486 311 486 301 465 301 c 2
 287 301 l 2
 277 301 275 294 275 284 c 2
 275 152 l 2
 275 139 269 138 259 138 c 0
 238 138 231 139 231 152 c 2
 231 284 l 2
 231 297 230 301 215 301 c 2
 39 301 l 2
 22 301 21 309 21 324 c 0
EndSplineSet
EndChar
StartChar: two.superior
Encoding: 178 178 148
Width: 327
Flags: MW
LayerCount: 2
Back
Fore
SplineSet
37 356 m 2
 37 358 l 2
 37 379 93 418 186 564 c 0
 211 603 223 640 223 670 c 0
 223 709 204 736 167 736 c 0
 111 736 97 677 82 677 c 0
 75 677 75 685 75 688 c 0
 75 698 112 784 187 784 c 0
 228 784 290 762 290 680 c 0
 290 583 117 442 117 413 c 0
 117 411 127 410 134 410 c 0
 258 410 245 424 268 451 c 0
 272 456 275 458 278 458 c 0
 284 458 284 453 284 451 c 0
 284 443 245 350 224 350 c 0
 160 350 146 352 120 352 c 0
 106 352 67 350 52 350 c 0
 37 350 37 353 37 356 c 2
EndSplineSet
EndChar
StartChar: three.superior
Encoding: 179 179 149
Width: 327
Flags: MW
LayerCount: 2
Back
Fore
SplineSet
25 383 m 0
 25 388 27 398 37 398 c 0
 46 398 52 379 106 379 c 0
 172 379 214 439 214 490 c 0
 214 530 190 564 130 564 c 0
 117 564 109 561 107 561 c 0
 100 561 99 569 99 572 c 0
 99 581 109 575 162 608 c 0
 199 631 215 664 215 691 c 0
 215 722 193 748 157 748 c 0
 115 748 90 718 78 718 c 0
 75 718 73 721 73 723 c 0
 73 744 121 785 180 785 c 0
 230 785 276 762 276 710 c 0
 276 643 190 611 190 601 c 0
 190 596 278 592 278 500 c 0
 278 427 211 347 119 347 c 0
 72 347 25 363 25 383 c 0
EndSplineSet
EndChar
StartChar: acute
Encoding: 180 180 216
Width: 439
Flags: MW
LayerCount: 2
Back
Fore
SplineSet
187 490 m 0
 187 503 210 511 278 642 c 0
 286 658 295 660 298 660 c 0
 306 660 345 653 345 637 c 0
 345 614 210 482 195 482 c 0
 190 482 187 486 187 490 c 0
EndSplineSet
EndChar
StartChar: paragraph
Encoding: 182 182 117
Width: 485
Flags: MW
LayerCount: 2
Back
Fore
SplineSet
39 474 m 0
 39 630 164 715 247 715 c 0
 296 715 332 716 372 716 c 0
 389 716 407 718 428 718 c 2
 439 718 l 2
 442 718 446 712 446 709 c 0
 446 693 419 696 401 677 c 0
 392 668 385 651 381 611 c 0
 360 409 345 296 324 94 c 0
 308 -60 225 -185 116 -185 c 0
 92 -185 76 -183 56 -170 c 0
 53 -168 51 -158 51 -149 c 0
 51 -127 73 -78 86 -78 c 0
 105 -78 86 -155 150 -155 c 0
 222 -155 236 59 241 116 c 2
 256 284 l 2
 257 293 258 301 258 306 c 0
 258 317 255 321 237 321 c 0
 153 321 39 334 39 474 c 0
206 429 m 0
 206 381 215 350 239 350 c 0
 265 350 267 371 270 404 c 0
 274 446 276 481 280 517 c 0
 296 670 297 644 297 666 c 0
 297 685 291 693 275 693 c 0
 266 693 244 688 238 672 c 0
 212 605 206 431 206 429 c 0
245 -51 m 0
 245 -56 246 -59 251 -59 c 0
 258 -59 293 13 304 120 c 2
 360 678 l 1
 360 679 l 2
 360 689 350 696 341 696 c 0
 334 696 324 691 323 683 c 0
 297 485 256 26 256 26 c 2
 249 -44 245 -39 245 -51 c 0
EndSplineSet
EndChar
StartChar: periodcentered
Encoding: 183 183 116
Width: 301
Flags: MW
LayerCount: 2
Back
Fore
SplineSet
104 332 m 0
 104 341 135 384 153 384 c 0
 173 384 192 349 192 331 c 0
 192 311 157 278 148 278 c 0
 130 278 104 322 104 332 c 0
EndSplineSet
EndChar
StartChar: cedilla
Encoding: 184 184 129
Width: 439
Flags: MW
LayerCount: 2
Back
Fore
SplineSet
172 -79 m 1
 172 -79 206 -46 220 -46 c 0
 224 -46 270 -61 270 -105 c 0
 270 -170 202 -199 189 -199 c 0
 186 -199 184 -197 184 -195 c 0
 184 -187 224 -180 224 -139 c 0
 224 -94 172 -96 172 -79 c 1
EndSplineSet
EndChar
StartChar: one.superior
Encoding: 185 185 151
Width: 327
Flags: MW
LayerCount: 2
Back
Fore
SplineSet
73 364 m 0
 73 369 77 379 92 379 c 2
 100 379 l 2
 136 379 139 401 139 404 c 0
 148 447 167 698 167 698 c 2
 167 712 163 720 151 720 c 0
 139 720 121 713 114 713 c 0
 106 713 104 717 104 722 c 0
 104 749 153 729 208 766 c 0
 220 774 222 783 235 783 c 0
 239 783 240 777 240 771 c 0
 240 767 239 772 218 583 c 0
 211 515 203 448 203 417 c 0
 203 385 226 379 246 378 c 0
 265 377 273 379 273 365 c 0
 273 355 267 352 255 352 c 0
 239 352 214 355 168 355 c 0
 139 355 107 351 88 351 c 0
 74 351 73 360 73 364 c 0
EndSplineSet
EndChar
StartChar: ordmasculine
Encoding: 186 186 135
Width: 291
Flags: MW
LayerCount: 2
Back
Fore
SplineSet
20 496 m 0
 20 572 71 658 175 658 c 0
 242 658 271 607 271 549 c 0
 271 473 221 385 121 385 c 0
 64 385 20 421 20 496 c 0
71 495 m 0
 71 435 96 408 128 408 c 0
 173 408 192 437 204 466 c 0
 216 494 222 527 222 556 c 0
 222 612 198 635 166 635 c 0
 90 635 71 533 71 495 c 0
EndSplineSet
EndChar
StartChar: guillemotright
Encoding: 187 187 122
Width: 351
Flags: MW
LayerCount: 2
Back
Fore
SplineSet
39 102 m 0
 39 114 139 209 139 215 c 0
 139 227 65 321 65 331 c 0
 65 334 73 349 81 349 c 0
 86 349 84 349 204 225 c 0
 206 223 208 220 208 217 c 0
 208 211 204 208 201 206 c 0
 55 84 57 84 52 84 c 0
 45 84 39 96 39 102 c 0
162 102 m 0
 162 114 261 206 261 216 c 0
 261 229 187 325 187 331 c 0
 187 338 197 349 204 349 c 0
 208 349 207 349 327 225 c 0
 329 223 331 220 331 217 c 0
 331 211 326 208 324 206 c 0
 178 84 179 84 175 84 c 0
 168 84 162 96 162 102 c 0
EndSplineSet
EndChar
StartChar: onequarter
Encoding: 188 188 152
Width: 874
Flags: MW
LayerCount: 2
Back
Fore
SplineSet
554 68 m 0
 554 70 555 89 555 91 c 0
 556 105 678 260 769 375 c 0
 782 391 792 405 800 405 c 0
 807 405 809 399 809 393 c 0
 809 388 776 137 776 121 c 0
 776 116 777 115 782 115 c 2
 796 115 l 2
 822 115 812 143 829 143 c 0
 834 143 836 136 836 135 c 2
 836 135 824 76 821 69 c 0
 818 64 815 60 812 60 c 2
 775 60 l 2
 769 60 771 46 766 -11 c 0
 762 -55 764 -51 736 -56 c 0
 728 -57 722 -59 718 -59 c 0
 707 -59 704 -55 704 -46 c 0
 704 -32 721 34 721 58 c 0
 721 60 719 61 715 61 c 0
 701 61 599 60 571 60 c 0
 554 60 554 61 554 68 c 0
607 120 m 0
 607 116 611 115 618 115 c 2
 712 115 l 2
 728 115 728 116 729 128 c 0
 743 237 751 292 751 300 c 0
 751 303 750 304 748 304 c 0
 743 304 607 138 607 120 c 0
216 -72 m 0
 216 -56 606 523 672 622 c 0
 672 623 690 650 699 650 c 0
 706 650 717 642 717 637 c 0
 717 630 711 621 708 616 c 0
 237 -88 255 -85 243 -89 c 0
 240 -90 235 -91 232 -91 c 0
 216 -91 216 -82 216 -72 c 0
73 187 m 0
 73 192 77 202 92 202 c 2
 100 202 l 2
 136 202 139 224 139 227 c 0
 148 270 167 521 167 521 c 2
 167 535 163 543 151 543 c 0
 139 543 121 536 114 536 c 0
 106 536 104 540 104 545 c 0
 104 572 153 552 208 589 c 0
 220 597 222 606 235 606 c 0
 239 606 240 600 240 594 c 0
 240 590 239 595 218 406 c 0
 211 338 203 271 203 240 c 0
 203 208 226 202 246 201 c 0
 265 200 273 202 273 188 c 0
 273 178 267 175 255 175 c 0
 239 175 214 178 168 178 c 0
 139 178 107 174 88 174 c 0
 74 174 73 183 73 187 c 0
EndSplineSet
EndChar
StartChar: onehalf
Encoding: 189 189 153
Width: 874
Flags: MW
LayerCount: 2
Back
Fore
SplineSet
584 -30 m 2
 584 -28 l 2
 584 -7 640 32 733 178 c 0
 758 217 770 254 770 284 c 0
 770 323 751 350 714 350 c 0
 658 350 644 291 629 291 c 0
 622 291 622 299 622 302 c 0
 622 312 659 398 734 398 c 0
 775 398 837 376 837 294 c 0
 837 197 664 56 664 27 c 0
 664 25 674 24 681 24 c 0
 805 24 792 38 815 65 c 0
 819 70 822 72 825 72 c 0
 831 72 831 67 831 65 c 0
 831 57 792 -36 771 -36 c 0
 707 -36 693 -34 667 -34 c 0
 653 -34 614 -36 599 -36 c 0
 584 -36 584 -33 584 -30 c 2
216 -72 m 0
 216 -56 606 523 672 622 c 0
 672 623 690 650 699 650 c 0
 706 650 717 642 717 637 c 0
 717 630 711 621 708 616 c 0
 237 -88 255 -85 243 -89 c 0
 240 -90 235 -91 232 -91 c 0
 216 -91 216 -82 216 -72 c 0
73 187 m 0
 73 192 77 202 92 202 c 2
 100 202 l 2
 136 202 139 224 139 227 c 0
 148 270 167 521 167 521 c 2
 167 535 163 543 151 543 c 0
 139 543 121 536 114 536 c 0
 106 536 104 540 104 545 c 0
 104 572 153 552 208 589 c 0
 220 597 222 606 235 606 c 0
 239 606 240 600 240 594 c 0
 240 590 239 595 218 406 c 0
 211 338 203 271 203 240 c 0
 203 208 226 202 246 201 c 0
 265 200 273 202 273 188 c 0
 273 178 267 175 255 175 c 0
 239 175 214 178 168 178 c 0
 139 178 107 174 88 174 c 0
 74 174 73 183 73 187 c 0
EndSplineSet
EndChar
StartChar: threequarters
Encoding: 190 190 154
Width: 874
Flags: MW
LayerCount: 2
Back
Fore
SplineSet
554 68 m 0
 554 70 555 89 555 91 c 0
 556 105 678 260 769 375 c 0
 782 391 792 405 800 405 c 0
 807 405 809 399 809 393 c 0
 809 388 776 137 776 121 c 0
 776 116 777 115 782 115 c 2
 796 115 l 2
 822 115 812 143 829 143 c 0
 834 143 836 136 836 135 c 2
 836 135 824 76 821 69 c 0
 818 64 815 60 812 60 c 2
 775 60 l 2
 769 60 771 46 766 -11 c 0
 762 -55 764 -51 736 -56 c 0
 728 -57 722 -59 718 -59 c 0
 707 -59 704 -55 704 -46 c 0
 704 -32 721 34 721 58 c 0
 721 60 719 61 715 61 c 0
 701 61 599 60 571 60 c 0
 554 60 554 61 554 68 c 0
607 120 m 0
 607 116 611 115 618 115 c 2
 712 115 l 2
 728 115 728 116 729 128 c 0
 743 237 751 292 751 300 c 0
 751 303 750 304 748 304 c 0
 743 304 607 138 607 120 c 0
216 -72 m 0
 216 -56 606 523 672 622 c 0
 672 623 690 650 699 650 c 0
 706 650 717 642 717 637 c 0
 717 630 711 621 708 616 c 0
 237 -88 255 -85 243 -89 c 0
 240 -90 235 -91 232 -91 c 0
 216 -91 216 -82 216 -72 c 0
25 206 m 0
 25 211 27 221 37 221 c 0
 46 221 52 202 106 202 c 0
 172 202 214 262 214 313 c 0
 214 353 190 387 130 387 c 0
 117 387 109 384 107 384 c 0
 100 384 99 392 99 395 c 0
 99 404 109 398 162 431 c 0
 199 454 215 487 215 514 c 0
 215 545 193 571 157 571 c 0
 115 571 90 541 78 541 c 0
 75 541 73 544 73 546 c 0
 73 567 121 608 180 608 c 0
 230 608 276 585 276 533 c 0
 276 466 190 434 190 424 c 0
 190 419 278 415 278 323 c 0
 278 250 211 170 119 170 c 0
 72 170 25 186 25 206 c 0
EndSplineSet
EndChar
StartChar: questiondown
Encoding: 191 191 125
Width: 354
Flags: MW
LayerCount: 2
Back
Fore
SplineSet
52 104 m 0
 52 164 98 206 112 224 c 0
 183 313 227 361 227 416 c 0
 227 427 224 441 224 449 c 0
 224 457 229 459 233 459 c 0
 253 459 258 425 258 394 c 0
 258 308 126 172 126 108 c 0
 126 64 173 32 207 32 c 0
 241 32 255 51 271 51 c 0
 276 51 279 49 279 45 c 0
 279 30 233 -14 178 -14 c 0
 119 -14 52 31 52 104 c 0
193 601 m 0
 193 611 212 623 227 637 c 0
 239 649 254 667 260 667 c 0
 272 667 281 653 292 640 c 0
 305 624 323 613 323 603 c 0
 323 591 292 571 288 568 c 0
 266 551 263 539 247 539 c 0
 239 539 232 551 216 570 c 0
 207 580 193 594 193 601 c 0
EndSplineSet
EndChar
StartChar: Agrave
Encoding: 192 192 155
Width: 771
Flags: MW
LayerCount: 2
Back
Fore
SplineSet
371 898 m 0
 371 917 418 924 423 924 c 0
 426 924 434 922 439 906 c 0
 477 785 498 768 498 756 c 0
 498 750 493 746 488 746 c 0
 474 746 371 872 371 898 c 0
20 9 m 0
 20 21 33 26 45 30 c 0
 105 52 81 66 445 698 c 0
 456 718 458 718 468 718 c 0
 484 718 477 718 524 560 c 0
 559 444 666 118 672 102 c 0
 695 42 699 40 736 28 c 0
 746 25 752 20 752 8 c 0
 752 1 748 -2 721 -2 c 0
 698 -2 684 1 656 1 c 0
 619 1 600 -4 563 -4 c 0
 553 -4 536 -3 536 7 c 0
 536 36 602 20 602 65 c 0
 602 103 570 191 561 229 c 0
 559 238 557 258 524 258 c 0
 503 258 468 257 403 257 c 0
 273 257 308 260 269 260 c 0
 252 260 240 256 234 245 c 0
 172 137 149 74 149 69 c 0
 149 12 217 38 217 12 c 0
 217 -3 211 -2 202 -2 c 0
 151 -1 132 0 115 0 c 0
 98 0 83 -1 40 -2 c 0
 26 -2 20 2 20 9 c 0
271 312 m 0
 271 305 285 304 304 304 c 0
 324 304 319 305 512 305 c 0
 529 305 528 313 528 320 c 0
 528 331 446 596 432 596 c 0
 424 596 271 316 271 312 c 0
EndSplineSet
EndChar
StartChar: Aacute
Encoding: 193 193 156
Width: 771
Flags: MW
LayerCount: 2
Back
Fore
SplineSet
427 754 m 0
 427 767 450 775 518 906 c 0
 526 922 535 924 538 924 c 0
 546 924 585 917 585 901 c 0
 585 878 450 746 435 746 c 0
 430 746 427 750 427 754 c 0
20 9 m 0
 20 21 33 26 45 30 c 0
 105 52 81 66 445 698 c 0
 456 718 458 718 468 718 c 0
 484 718 477 718 524 560 c 0
 559 444 666 118 672 102 c 0
 695 42 699 40 736 28 c 0
 746 25 752 20 752 8 c 0
 752 1 748 -2 721 -2 c 0
 698 -2 684 1 656 1 c 0
 619 1 600 -4 563 -4 c 0
 553 -4 536 -3 536 7 c 0
 536 36 602 20 602 65 c 0
 602 103 570 191 561 229 c 0
 559 238 557 258 524 258 c 0
 503 258 468 257 403 257 c 0
 273 257 308 260 269 260 c 0
 252 260 240 256 234 245 c 0
 172 137 149 74 149 69 c 0
 149 12 217 38 217 12 c 0
 217 -3 211 -2 202 -2 c 0
 151 -1 132 0 115 0 c 0
 98 0 83 -1 40 -2 c 0
 26 -2 20 2 20 9 c 0
271 312 m 0
 271 305 285 304 304 304 c 0
 324 304 319 305 512 305 c 0
 529 305 528 313 528 320 c 0
 528 331 446 596 432 596 c 0
 424 596 271 316 271 312 c 0
EndSplineSet
EndChar
StartChar: Adieresis
Encoding: 196 196 159
Width: 771
Flags: MW
LayerCount: 2
Back
Fore
SplineSet
362 853 m 0
 362 868 391 904 412 904 c 0
 432 904 452 876 452 857 c 0
 452 834 414 804 406 804 c 0
 380 804 362 836 362 853 c 0
516 853 m 0
 516 868 546 904 567 904 c 0
 587 904 607 876 607 857 c 0
 607 834 568 804 560 804 c 0
 534 804 516 836 516 853 c 0
20 9 m 0
 20 21 33 26 45 30 c 0
 105 52 81 66 445 698 c 0
 456 718 458 718 468 718 c 0
 484 718 477 718 524 560 c 0
 559 444 666 118 672 102 c 0
 695 42 699 40 736 28 c 0
 746 25 752 20 752 8 c 0
 752 1 748 -2 721 -2 c 0
 698 -2 684 1 656 1 c 0
 619 1 600 -4 563 -4 c 0
 553 -4 536 -3 536 7 c 0
 536 36 602 20 602 65 c 0
 602 103 570 191 561 229 c 0
 559 238 557 258 524 258 c 0
 503 258 468 257 403 257 c 0
 273 257 308 260 269 260 c 0
 252 260 240 256 234 245 c 0
 172 137 149 74 149 69 c 0
 149 12 217 38 217 12 c 0
 217 -3 211 -2 202 -2 c 0
 151 -1 132 0 115 0 c 0
 98 0 83 -1 40 -2 c 0
 26 -2 20 2 20 9 c 0
271 312 m 0
 271 305 285 304 304 304 c 0
 324 304 319 305 512 305 c 0
 529 305 528 313 528 320 c 0
 528 331 446 596 432 596 c 0
 424 596 271 316 271 312 c 0
EndSplineSet
EndChar
StartChar: Aring
Encoding: 197 197 160
Width: 771
Flags: MW
LayerCount: 2
Back
Fore
SplineSet
399 844 m 0
 399 890 443 930 483 930 c 0
 531 930 547 887 547 859 c 0
 547 801 481 776 466 776 c 0
 409 776 399 818 399 844 c 0
432 848 m 0
 432 826 446 810 469 810 c 0
 479 810 514 820 514 859 c 0
 514 875 508 895 478 895 c 0
 461 895 432 879 432 848 c 0
20 9 m 0
 20 21 33 26 45 30 c 0
 105 52 81 66 445 698 c 0
 456 718 458 718 468 718 c 0
 484 718 477 718 524 560 c 0
 559 444 666 118 672 102 c 0
 695 42 699 40 736 28 c 0
 746 25 752 20 752 8 c 0
 752 1 748 -2 721 -2 c 0
 698 -2 684 1 656 1 c 0
 619 1 600 -4 563 -4 c 0
 553 -4 536 -3 536 7 c 0
 536 36 602 20 602 65 c 0
 602 103 570 191 561 229 c 0
 559 238 557 258 524 258 c 0
 503 258 468 257 403 257 c 0
 273 257 308 260 269 260 c 0
 252 260 240 256 234 245 c 0
 172 137 149 74 149 69 c 0
 149 12 217 38 217 12 c 0
 217 -3 211 -2 202 -2 c 0
 151 -1 132 0 115 0 c 0
 98 0 83 -1 40 -2 c 0
 26 -2 20 2 20 9 c 0
271 312 m 0
 271 305 285 304 304 304 c 0
 324 304 319 305 512 305 c 0
 529 305 528 313 528 320 c 0
 528 331 446 596 432 596 c 0
 424 596 271 316 271 312 c 0
EndSplineSet
EndChar
StartChar: AE
Encoding: 198 198 130
Width: 1078
Flags: MW
LayerCount: 2
Back
Fore
SplineSet
20 7 m 0
 20 21 38 26 48 30 c 0
 106 51 89 67 502 604 c 1
 541 654 l 2
 543 657 546 662 546 667 c 0
 546 688 485 670 485 691 c 0
 485 701 490 705 508 705 c 2
 616 705 l 2
 658 705 721 703 815 703 c 0
 855 703 1016 708 1046 708 c 0
 1053 708 1063 705 1063 688 c 0
 1063 675 1060 659 1060 636 c 0
 1060 620 1063 603 1063 582 c 0
 1063 570 1058 553 1050 553 c 0
 1023 553 1048 593 1016 630 c 0
 1011 636 979 660 911 661 c 0
 831 662 813 664 756 664 c 0
 694 664 696 657 686 597 c 0
 682 569 661 407 661 394 c 0
 661 381 664 379 704 379 c 0
 885 379 892 384 908 404 c 0
 932 434 928 456 941 456 c 0
 950 456 954 452 954 444 c 0
 954 426 940 380 934 340 c 0
 929 305 937 241 916 241 c 0
 907 241 905 249 905 258 c 0
 905 277 905 306 888 318 c 0
 869 332 833 339 781 339 c 0
 694 339 706 340 695 340 c 0
 674 340 658 338 657 322 c 0
 649 251 621 91 621 74 c 0
 621 41 647 38 747 38 c 0
 996 38 1003 136 1029 136 c 0
 1034 136 1039 133 1039 123 c 0
 1039 91 968 -10 922 -10 c 0
 794 -10 675 0 614 0 c 0
 559 0 550 -2 501 -2 c 0
 466 -2 466 7 466 12 c 0
 466 17 473 25 489 26 c 0
 541 29 544 62 572 252 c 1
 568 255 562 258 551 258 c 0
 531 258 499 257 438 257 c 0
 317 257 350 260 314 260 c 0
 298 260 287 256 279 245 c 0
 196 137 160 74 159 69 c 0
 158 64 158 60 158 56 c 0
 158 18 209 35 209 15 c 0
 209 0 203 -2 184 -2 c 0
 169 -2 141 0 106 0 c 0
 90 0 77 -1 36 -2 c 0
 25 -2 20 2 20 7 c 0
329 312 m 0
 329 306 341 304 357 304 c 0
 375 304 417 305 580 305 c 1
 607 543 l 2
 613 598 619 629 619 646 c 0
 619 660 615 665 606 665 c 0
 598 665 584 651 574 639 c 0
 497 540 329 316 329 312 c 0
EndSplineSet
EndChar
StartChar: Ccedilla
Encoding: 199 199 161
Width: 762
Flags: MW
LayerCount: 2
Back
Fore
SplineSet
333 -79 m 1
 333 -79 367 -46 381 -46 c 0
 385 -46 431 -61 431 -105 c 0
 431 -170 363 -199 350 -199 c 0
 347 -199 345 -197 345 -195 c 0
 345 -187 385 -180 385 -139 c 0
 385 -94 333 -96 333 -79 c 1
39 312 m 0
 39 505 163 710 428 710 c 0
 566 710 661 634 670 634 c 0
 677 634 684 650 692 650 c 0
 698 650 704 649 704 634 c 0
 704 507 713 509 713 485 c 0
 713 473 710 461 699 461 c 0
 684 461 678 495 663 530 c 0
 646 572 631 589 600 610 c 0
 537 653 472 672 412 672 c 0
 223 672 124 501 124 334 c 0
 124 130 256 14 398 14 c 0
 473 14 552 47 614 117 c 0
 644 150 648 198 669 198 c 0
 671 198 685 197 685 180 c 0
 685 164 674 139 668 118 c 0
 656 79 660 61 645 53 c 0
 567 12 482 -23 378 -23 c 0
 145 -23 39 140 39 312 c 0
EndSplineSet
EndChar
StartChar: Ecircumflex
Encoding: 202 202 164
Width: 631
Flags: MW
LayerCount: 2
Back
Fore
SplineSet
278 763 m 0
 278 764 280 767 282 770 c 0
 381 895 373 910 388 910 c 2
 414 910 l 2
 419 910 424 910 428 900 c 0
 461 828 499 774 499 764 c 0
 499 761 497 758 491 758 c 0
 477 758 405 843 396 843 c 0
 381 843 297 759 285 759 c 0
 284 759 278 760 278 763 c 0
20 14 m 0
 20 19 26 27 42 28 c 0
 92 31 95 69 111 163 c 0
 116 197 124 242 131 296 c 2
 167 599 l 2
 168 608 168 615 168 620 c 0
 168 701 92 663 92 693 c 0
 92 703 97 708 115 708 c 0
 144 708 217 706 368 706 c 0
 408 706 569 710 599 710 c 0
 606 710 617 708 617 691 c 0
 617 678 613 661 613 638 c 0
 613 622 616 605 616 584 c 0
 616 572 611 556 603 556 c 0
 576 556 601 595 569 632 c 0
 564 638 532 663 464 664 c 0
 384 665 367 667 310 667 c 0
 248 667 249 659 239 599 c 0
 235 571 214 409 214 396 c 0
 214 383 217 382 257 382 c 0
 438 382 445 386 461 406 c 0
 485 436 482 458 495 458 c 0
 504 458 507 455 507 447 c 0
 507 429 492 383 487 343 c 0
 482 308 490 244 469 244 c 0
 460 244 458 251 458 260 c 0
 458 279 458 308 441 320 c 0
 422 334 386 341 334 341 c 0
 247 341 260 342 249 342 c 0
 228 342 211 341 210 325 c 0
 202 254 174 94 174 77 c 0
 174 44 200 40 300 40 c 0
 549 40 556 139 582 139 c 0
 587 139 592 135 592 125 c 0
 592 93 522 -8 476 -8 c 0
 348 -8 228 3 167 3 c 0
 112 3 104 0 55 0 c 0
 20 0 20 9 20 14 c 0
EndSplineSet
EndChar
StartChar: Igrave
Encoding: 204 204 166
Width: 325
Flags: MW
LayerCount: 2
Back
Fore
SplineSet
104 898 m 0
 104 917 151 924 156 924 c 0
 159 924 167 922 172 906 c 0
 210 785 231 768 231 756 c 0
 231 750 226 746 221 746 c 0
 207 746 104 872 104 898 c 0
20 11 m 0
 20 31 54 16 74 45 c 0
 83 58 88 70 89 79 c 0
 97 142 158 615 158 619 c 0
 158 678 87 670 72 677 c 0
 66 679 64 684 64 689 c 0
 64 697 70 704 91 704 c 0
 119 704 138 696 194 696 c 0
 237 696 268 702 288 702 c 0
 295 702 306 702 306 688 c 0
 306 672 269 680 254 662 c 0
 234 639 228 577 225 545 c 0
 197 281 167 136 167 99 c 0
 167 21 199 29 224 22 c 0
 240 18 254 20 254 9 c 0
 254 -6 246 -5 233 -5 c 0
 219 -5 174 1 132 1 c 0
 104 1 76 -5 55 -5 c 0
 33 -5 20 -1 20 11 c 0
EndSplineSet
EndChar
StartChar: Icircumflex
Encoding: 206 206 168
Width: 325
Flags: MW
LayerCount: 2
Back
Fore
SplineSet
87 763 m 0
 87 764 89 767 91 770 c 0
 190 895 182 910 197 910 c 2
 223 910 l 2
 228 910 233 910 237 900 c 0
 270 828 308 774 308 764 c 0
 308 761 306 758 300 758 c 0
 286 758 214 843 205 843 c 0
 190 843 106 759 94 759 c 0
 93 759 87 760 87 763 c 0
20 11 m 0
 20 31 54 16 74 45 c 0
 83 58 88 70 89 79 c 0
 97 142 158 615 158 619 c 0
 158 678 87 670 72 677 c 0
 66 679 64 684 64 689 c 0
 64 697 70 704 91 704 c 0
 119 704 138 696 194 696 c 0
 237 696 268 702 288 702 c 0
 295 702 306 702 306 688 c 0
 306 672 269 680 254 662 c 0
 234 639 228 577 225 545 c 0
 197 281 167 136 167 99 c 0
 167 21 199 29 224 22 c 0
 240 18 254 20 254 9 c 0
 254 -6 246 -5 233 -5 c 0
 219 -5 174 1 132 1 c 0
 104 1 76 -5 55 -5 c 0
 33 -5 20 -1 20 11 c 0
EndSplineSet
EndChar
StartChar: Idieresis
Encoding: 207 207 169
Width: 325
Flags: MW
LayerCount: 2
Back
Fore
SplineSet
95 853 m 0
 95 868 124 904 145 904 c 0
 165 904 185 876 185 857 c 0
 185 834 147 804 139 804 c 0
 113 804 95 836 95 853 c 0
249 853 m 0
 249 868 279 904 300 904 c 0
 320 904 340 876 340 857 c 0
 340 834 301 804 293 804 c 0
 267 804 249 836 249 853 c 0
20 11 m 0
 20 31 54 16 74 45 c 0
 83 58 88 70 89 79 c 0
 97 142 158 615 158 619 c 0
 158 678 87 670 72 677 c 0
 66 679 64 684 64 689 c 0
 64 697 70 704 91 704 c 0
 119 704 138 696 194 696 c 0
 237 696 268 702 288 702 c 0
 295 702 306 702 306 688 c 0
 306 672 269 680 254 662 c 0
 234 639 228 577 225 545 c 0
 197 281 167 136 167 99 c 0
 167 21 199 29 224 22 c 0
 240 18 254 20 254 9 c 0
 254 -6 246 -5 233 -5 c 0
 219 -5 174 1 132 1 c 0
 104 1 76 -5 55 -5 c 0
 33 -5 20 -1 20 11 c 0
EndSplineSet
EndChar
StartChar: Ograve
Encoding: 210 210 172
Width: 815
Flags: MW
LayerCount: 2
Back
Fore
SplineSet
345 898 m 0
 345 917 392 924 397 924 c 0
 400 924 408 922 413 906 c 0
 451 785 472 768 472 756 c 0
 472 750 467 746 462 746 c 0
 448 746 345 872 345 898 c 0
39 314 m 0
 39 509 181 716 434 716 c 0
 670 716 776 550 776 376 c 0
 776 192 655 -20 394 -20 c 0
 180 -20 39 114 39 314 c 0
125 347 m 0
 125 130 262 16 401 16 c 0
 584 16 688 204 688 380 c 0
 688 429 684 478 667 521 c 0
 630 616 547 686 420 686 c 0
 222 686 125 491 125 347 c 0
EndSplineSet
EndChar
StartChar: Oacute
Encoding: 211 211 173
Width: 815
Flags: MW
LayerCount: 2
Back
Fore
SplineSet
401 754 m 0
 401 767 424 775 492 906 c 0
 500 922 509 924 512 924 c 0
 520 924 559 917 559 901 c 0
 559 878 424 746 409 746 c 0
 404 746 401 750 401 754 c 0
39 314 m 0
 39 509 181 716 434 716 c 0
 670 716 776 550 776 376 c 0
 776 192 655 -20 394 -20 c 0
 180 -20 39 114 39 314 c 0
125 347 m 0
 125 130 262 16 401 16 c 0
 584 16 688 204 688 380 c 0
 688 429 684 478 667 521 c 0
 630 616 547 686 420 686 c 0
 222 686 125 491 125 347 c 0
EndSplineSet
EndChar
StartChar: Ocircumflex
Encoding: 212 212 174
Width: 815
Flags: MW
LayerCount: 2
Back
Fore
SplineSet
328 763 m 0
 328 764 330 767 332 770 c 0
 431 895 423 910 438 910 c 2
 464 910 l 2
 469 910 474 910 478 900 c 0
 511 828 549 774 549 764 c 0
 549 761 547 758 541 758 c 0
 527 758 455 843 446 843 c 0
 431 843 347 759 335 759 c 0
 334 759 328 760 328 763 c 0
39 314 m 0
 39 509 181 716 434 716 c 0
 670 716 776 550 776 376 c 0
 776 192 655 -20 394 -20 c 0
 180 -20 39 114 39 314 c 0
125 347 m 0
 125 130 262 16 401 16 c 0
 584 16 688 204 688 380 c 0
 688 429 684 478 667 521 c 0
 630 616 547 686 420 686 c 0
 222 686 125 491 125 347 c 0
EndSplineSet
EndChar
StartChar: Otilde
Encoding: 213 213 175
Width: 815
Flags: MW
LayerCount: 2
Back
Fore
SplineSet
295 798 m 0
 295 815 362 897 402 897 c 0
 449 897 473 849 522 849 c 0
 558 849 573 905 588 905 c 0
 593 905 597 901 597 894 c 0
 597 874 531 797 491 797 c 0
 442 797 415 845 371 845 c 0
 334 845 319 788 303 788 c 0
 298 788 295 792 295 798 c 0
39 314 m 0
 39 509 181 716 434 716 c 0
 670 716 776 550 776 376 c 0
 776 192 655 -20 394 -20 c 0
 180 -20 39 114 39 314 c 0
125 347 m 0
 125 130 262 16 401 16 c 0
 584 16 688 204 688 380 c 0
 688 429 684 478 667 521 c 0
 630 616 547 686 420 686 c 0
 222 686 125 491 125 347 c 0
EndSplineSet
EndChar
StartChar: Odieresis
Encoding: 214 214 176
Width: 815
Flags: MW
LayerCount: 2
Back
Fore
SplineSet
336 853 m 0
 336 868 365 904 386 904 c 0
 406 904 426 876 426 857 c 0
 426 834 388 804 380 804 c 0
 354 804 336 836 336 853 c 0
490 853 m 0
 490 868 520 904 541 904 c 0
 561 904 581 876 581 857 c 0
 581 834 542 804 534 804 c 0
 508 804 490 836 490 853 c 0
39 314 m 0
 39 509 181 716 434 716 c 0
 670 716 776 550 776 376 c 0
 776 192 655 -20 394 -20 c 0
 180 -20 39 114 39 314 c 0
125 347 m 0
 125 130 262 16 401 16 c 0
 584 16 688 204 688 380 c 0
 688 429 684 478 667 521 c 0
 630 616 547 686 420 686 c 0
 222 686 125 491 125 347 c 0
EndSplineSet
EndChar
StartChar: multiply
Encoding: 215 215 177
Width: 508
Flags: MW
LayerCount: 2
Back
Fore
SplineSet
79 61 m 0
 79 65 82 69 87 74 c 2
 207 195 l 2
 213 201 216 206 216 210 c 0
 216 215 213 219 209 223 c 2
 85 347 l 2
 81 351 79 355 79 358 c 0
 79 365 97 384 106 384 c 0
 110 384 115 381 120 376 c 2
 236 261 l 2
 242 255 248 249 255 249 c 0
 258 249 263 250 267 254 c 2
 392 379 l 2
 396 383 400 385 403 385 c 0
 410 385 429 367 429 359 c 0
 429 355 425 350 419 344 c 2
 298 223 l 2
 293 218 291 213 291 210 c 0
 291 206 294 202 298 198 c 2
 422 74 l 2
 427 69 429 65 429 62 c 0
 429 54 409 35 402 35 c 0
 399 35 395 37 390 42 c 2
 267 166 l 2
 262 171 257 173 253 173 c 0
 248 173 244 169 237 162 c 2
 118 42 l 2
 113 37 108 35 105 35 c 0
 98 35 79 53 79 61 c 0
EndSplineSet
EndChar
StartChar: Oslash
Encoding: 216 216 133
Width: 815
Flags: MW
LayerCount: 2
Back
Fore
SplineSet
39 314 m 0
 39 509 181 716 434 716 c 0
 522 716 565 694 570 694 c 0
 573 694 575 698 582 711 c 2
 617 773 l 2
 623 783 631 788 636 788 c 0
 641 788 662 781 662 768 c 0
 662 766 661 763 660 760 c 2
 622 694 l 2
 616 683 612 679 612 677 c 0
 612 673 776 601 776 376 c 0
 776 192 655 -20 394 -20 c 0
 290 -20 235 11 230 11 c 0
 226 11 225 5 215 -13 c 2
 167 -96 l 2
 165 -99 158 -111 151 -111 c 0
 141 -111 123 -100 123 -91 c 0
 123 -88 123 -84 126 -79 c 2
 177 7 l 2
 185 21 190 28 190 30 c 0
 190 37 39 102 39 314 c 0
125 347 m 0
 125 170 221 89 223 89 c 0
 225 89 230 97 239 114 c 2
 539 636 l 2
 546 648 549 653 549 655 c 0
 549 661 486 686 420 686 c 0
 222 686 125 491 125 347 c 0
258 62 m 0
 258 54 326 16 401 16 c 0
 584 16 688 204 688 380 c 0
 688 472 670 550 608 613 c 0
 595 626 590 631 587 631 c 0
 585 631 583 626 579 619 c 0
 264 71 258 64 258 62 c 0
EndSplineSet
EndChar
StartChar: Uacute
Encoding: 218 218 179
Width: 827
Flags: MW
LayerCount: 2
Back
Fore
SplineSet
419 754 m 0
 419 767 442 775 510 906 c 0
 518 922 527 924 530 924 c 0
 538 924 577 917 577 901 c 0
 577 878 442 746 427 746 c 0
 422 746 419 750 419 754 c 0
44 694 m 0
 44 700 48 708 61 708 c 0
 76 708 102 702 175 702 c 0
 197 702 223 708 265 708 c 0
 273 708 285 705 285 694 c 0
 285 665 220 694 213 619 c 0
 198 465 172 295 172 192 c 0
 172 136 197 25 361 25 c 0
 511 25 585 98 620 184 c 0
 653 267 693 562 693 617 c 0
 693 688 606 661 606 692 c 0
 606 698 612 705 630 705 c 0
 642 705 666 701 685 701 c 0
 727 701 770 705 789 705 c 0
 799 705 807 698 807 692 c 0
 807 672 760 688 743 631 c 0
 735 605 702 272 657 164 c 0
 625 87 582 56 515 15 c 0
 480 -6 398 -19 364 -19 c 0
 242 -19 184 6 141 50 c 0
 98 93 94 138 94 215 c 0
 94 243 131 599 131 626 c 0
 131 697 44 662 44 694 c 0
EndSplineSet
EndChar
StartChar: Thorn
Encoding: 222 222 183
Width: 553
Flags: MW
LayerCount: 2
Back
Fore
SplineSet
20 11 m 0
 20 36 66 6 88 72 c 0
 88 73 158 615 158 619 c 0
 158 678 87 670 72 677 c 0
 66 679 64 684 64 689 c 0
 64 697 70 704 91 704 c 0
 119 704 138 696 194 696 c 0
 237 696 268 702 288 702 c 0
 295 702 306 702 306 688 c 0
 306 672 269 680 254 662 c 0
 232 636 224 542 224 535 c 0
 224 528 226 527 233 527 c 0
 257 527 302 534 331 534 c 0
 439 534 514 480 514 368 c 0
 514 287 469 200 387 165 c 0
 358 153 323 148 281 148 c 0
 244 148 212 156 212 165 c 0
 212 166 212 167 215 167 c 0
 220 167 233 165 270 165 c 0
 335 165 435 232 435 357 c 0
 435 429 393 458 364 477 c 0
 334 496 298 501 271 501 c 0
 218 501 219 497 213 445 c 0
 189 236 167 133 167 99 c 0
 167 21 199 29 224 22 c 0
 240 18 254 20 254 9 c 0
 254 -6 246 -5 233 -5 c 0
 219 -5 174 1 132 1 c 0
 104 1 76 -5 55 -5 c 0
 33 -5 20 -1 20 11 c 0
EndSplineSet
EndChar
StartChar: germandbls
Encoding: 223 223 141
Width: 509
Flags: MW
LayerCount: 2
Back
Fore
SplineSet
-43 -166 m 0
 -43 -158 -34 -98 -14 -98 c 0
 -9 -98 -2 -101 -1 -111 c 0
 3 -135 24 -147 29 -147 c 0
 59 -147 58 -63 85 127 c 0
 130 449 134 553 211 661 c 0
 246 710 296 740 337 740 c 0
 371 740 459 719 459 625 c 0
 459 504 311 452 311 375 c 0
 311 347 335 313 391 251 c 0
 422 216 460 184 460 117 c 0
 460 81 432 -14 304 -14 c 0
 265 -14 192 -2 192 51 c 0
 192 82 213 87 225 87 c 0
 276 87 258 18 319 18 c 0
 392 18 399 71 399 83 c 0
 399 130 367 163 331 199 c 0
 276 256 254 299 254 334 c 0
 254 432 398 480 398 605 c 0
 398 661 363 698 322 698 c 0
 258 698 243 641 237 625 c 0
 207 547 186 426 185 416 c 0
 157 196 145 -19 119 -82 c 0
 80 -176 14 -189 -7 -189 c 0
 -24 -189 -43 -182 -43 -166 c 0
EndSplineSet
EndChar
StartChar: ae
Encoding: 230 230 136
Width: 704
Flags: MW
LayerCount: 2
Back
Fore
SplineSet
32 114 m 0
 32 226 149 420 296 420 c 0
 327 420 343 414 376 414 c 0
 396 414 408 463 428 463 c 0
 434 463 439 459 439 448 c 0
 439 430 416 382 416 359 c 0
 416 356 417 355 418 355 c 0
 428 355 464 436 585 436 c 0
 632 436 672 406 672 362 c 0
 672 290 595 249 576 241 c 0
 567 237 512 215 418 214 c 0
 404 214 401 199 401 173 c 0
 401 98 446 48 545 48 c 0
 602 48 642 91 653 91 c 0
 661 91 666 87 666 81 c 0
 666 58 579 -12 492 -12 c 0
 327 -12 345 108 331 108 c 0
 315 108 238 -15 139 -15 c 0
 44 -15 32 49 32 114 c 0
102 120 m 0
 102 70 138 40 180 40 c 0
 252 40 299 112 308 130 c 0
 331 177 358 355 358 359 c 0
 358 383 320 393 298 393 c 0
 207 393 102 258 102 120 c 0
416 251 m 0
 416 244 417 231 424 231 c 0
 521 231 603 296 603 359 c 0
 603 397 567 406 550 406 c 0
 525 406 494 386 468 359 c 0
 438 328 416 264 416 251 c 0
EndSplineSet
EndChar
StartChar: ccedilla
Encoding: 231 231 190
Width: 418
Flags: MW
LayerCount: 2
Back
Fore
SplineSet
147 -79 m 1
 147 -79 181 -46 195 -46 c 0
 199 -46 245 -61 245 -105 c 0
 245 -170 177 -199 164 -199 c 0
 161 -199 159 -197 159 -195 c 0
 159 -187 199 -180 199 -139 c 0
 199 -94 147 -96 147 -79 c 1
32 149 m 0
 32 286 144 436 286 436 c 0
 296 436 386 421 386 364 c 0
 386 344 371 325 353 325 c 0
 310 325 301 397 231 397 c 0
 222 397 193 386 166 362 c 0
 154 351 100 290 100 199 c 0
 100 97 140 46 218 46 c 0
 300 46 334 100 352 100 c 0
 360 100 365 93 365 87 c 0
 365 73 294 -12 183 -12 c 0
 110 -12 32 15 32 149 c 0
EndSplineSet
EndChar
StartChar: egrave
Encoding: 232 232 191
Width: 402
Flags: MW
LayerCount: 2
Back
Fore
SplineSet
179 634 m 0
 179 653 226 660 231 660 c 0
 234 660 242 658 247 642 c 0
 285 521 306 504 306 492 c 0
 306 486 301 482 296 482 c 0
 282 482 179 608 179 634 c 0
32 147 m 0
 32 233 76 319 145 383 c 0
 182 418 228 436 284 436 c 0
 331 436 371 406 371 362 c 0
 371 290 293 249 274 241 c 0
 265 237 211 215 117 214 c 0
 103 214 100 199 100 173 c 0
 100 98 145 48 244 48 c 0
 301 48 341 91 352 91 c 0
 360 91 364 87 364 81 c 0
 364 58 277 -12 190 -12 c 0
 63 -12 32 58 32 147 c 0
114 251 m 0
 114 244 116 231 123 231 c 0
 220 231 302 296 302 359 c 0
 302 397 266 406 249 406 c 0
 224 406 193 386 167 359 c 0
 137 328 114 264 114 251 c 0
EndSplineSet
EndChar
StartChar: eacute
Encoding: 233 233 192
Width: 402
Flags: MW
LayerCount: 2
Back
Fore
SplineSet
235 490 m 0
 235 503 258 511 326 642 c 0
 334 658 343 660 346 660 c 0
 354 660 393 653 393 637 c 0
 393 614 258 482 243 482 c 0
 238 482 235 486 235 490 c 0
32 147 m 0
 32 233 76 319 145 383 c 0
 182 418 228 436 284 436 c 0
 331 436 371 406 371 362 c 0
 371 290 293 249 274 241 c 0
 265 237 211 215 117 214 c 0
 103 214 100 199 100 173 c 0
 100 98 145 48 244 48 c 0
 301 48 341 91 352 91 c 0
 360 91 364 87 364 81 c 0
 364 58 277 -12 190 -12 c 0
 63 -12 32 58 32 147 c 0
114 251 m 0
 114 244 116 231 123 231 c 0
 220 231 302 296 302 359 c 0
 302 397 266 406 249 406 c 0
 224 406 193 386 167 359 c 0
 137 328 114 264 114 251 c 0
EndSplineSet
EndChar
StartChar: ecircumflex
Encoding: 234 234 193
Width: 402
Flags: MW
LayerCount: 2
Back
Fore
SplineSet
162 499 m 0
 162 500 164 503 166 506 c 0
 265 631 257 646 272 646 c 2
 298 646 l 2
 303 646 308 646 312 636 c 0
 345 564 383 510 383 500 c 0
 383 497 381 494 375 494 c 0
 361 494 289 579 280 579 c 0
 265 579 181 495 169 495 c 0
 168 495 162 496 162 499 c 0
32 147 m 0
 32 233 76 319 145 383 c 0
 182 418 228 436 284 436 c 0
 331 436 371 406 371 362 c 0
 371 290 293 249 274 241 c 0
 265 237 211 215 117 214 c 0
 103 214 100 199 100 173 c 0
 100 98 145 48 244 48 c 0
 301 48 341 91 352 91 c 0
 360 91 364 87 364 81 c 0
 364 58 277 -12 190 -12 c 0
 63 -12 32 58 32 147 c 0
114 251 m 0
 114 244 116 231 123 231 c 0
 220 231 302 296 302 359 c 0
 302 397 266 406 249 406 c 0
 224 406 193 386 167 359 c 0
 137 328 114 264 114 251 c 0
EndSplineSet
EndChar
StartChar: edieresis
Encoding: 235 235 194
Width: 402
Flags: MW
LayerCount: 2
Back
Fore
SplineSet
170 589 m 0
 170 604 199 640 220 640 c 0
 240 640 260 612 260 593 c 0
 260 570 222 540 214 540 c 0
 188 540 170 572 170 589 c 0
324 589 m 0
 324 604 354 640 375 640 c 0
 395 640 415 612 415 593 c 0
 415 570 376 540 368 540 c 0
 342 540 324 572 324 589 c 0
32 147 m 0
 32 233 76 319 145 383 c 0
 182 418 228 436 284 436 c 0
 331 436 371 406 371 362 c 0
 371 290 293 249 274 241 c 0
 265 237 211 215 117 214 c 0
 103 214 100 199 100 173 c 0
 100 98 145 48 244 48 c 0
 301 48 341 91 352 91 c 0
 360 91 364 87 364 81 c 0
 364 58 277 -12 190 -12 c 0
 63 -12 32 58 32 147 c 0
114 251 m 0
 114 244 116 231 123 231 c 0
 220 231 302 296 302 359 c 0
 302 397 266 406 249 406 c 0
 224 406 193 386 167 359 c 0
 137 328 114 264 114 251 c 0
EndSplineSet
EndChar
StartChar: igrave
Encoding: 236 236 195
Width: 250
Flags: MW
LayerCount: 2
Back
Fore
SplineSet
38 634 m 0
 38 653 85 660 90 660 c 0
 93 660 101 658 106 642 c 0
 144 521 165 504 165 492 c 0
 165 486 160 482 155 482 c 0
 141 482 38 608 38 634 c 0
20 396 m 0
 20 409 32 410 43 410 c 2
 53 410 l 2
 93 410 110 419 167 419 c 0
 174 419 181 415 181 408 c 0
 181 382 162 343 154 292 c 0
 124 103 124 105 124 93 c 0
 124 79 134 66 144 66 c 0
 178 66 192 118 206 118 c 0
 212 118 216 114 216 107 c 0
 216 95 198 61 187 49 c 1
 187 49 132 -10 95 -10 c 0
 65 -10 58 30 58 73 c 0
 58 149 103 305 103 362 c 0
 103 379 97 383 79 383 c 0
 58 383 42 384 34 384 c 0
 28 384 20 386 20 396 c 0
EndSplineSet
EndChar
StartChar: icircumflex
Encoding: 238 238 197
Width: 250
Flags: MW
LayerCount: 2
Back
Fore
SplineSet
21 499 m 0
 21 500 23 503 25 506 c 0
 124 631 116 646 131 646 c 2
 157 646 l 2
 162 646 167 646 171 636 c 0
 204 564 242 510 242 500 c 0
 242 497 240 494 234 494 c 0
 220 494 148 579 139 579 c 0
 124 579 40 495 28 495 c 0
 27 495 21 496 21 499 c 0
20 396 m 0
 20 409 32 410 43 410 c 2
 53 410 l 2
 93 410 110 419 167 419 c 0
 174 419 181 415 181 408 c 0
 181 382 162 343 154 292 c 0
 124 103 124 105 124 93 c 0
 124 79 134 66 144 66 c 0
 178 66 192 118 206 118 c 0
 212 118 216 114 216 107 c 0
 216 95 198 61 187 49 c 1
 187 49 132 -10 95 -10 c 0
 65 -10 58 30 58 73 c 0
 58 149 103 305 103 362 c 0
 103 379 97 383 79 383 c 0
 58 383 42 384 34 384 c 0
 28 384 20 386 20 396 c 0
EndSplineSet
EndChar
StartChar: eth
Encoding: 240 240 199
Width: 453
Flags: MW
LayerCount: 2
Back
Fore
SplineSet
32 169 m 0
 32 293 116 435 268 435 c 0
 306 435 335 423 358 403 c 1
 353 443 338 491 319 534 c 0
 310 554 309 561 304 561 c 0
 301 561 295 557 284 553 c 2
 224 531 l 2
 185 516 162 509 160 509 c 0
 150 509 142 534 142 543 c 0
 142 550 285 594 285 600 c 0
 285 602 263 635 244 656 c 0
 197 707 161 707 161 725 c 0
 161 735 189 737 196 737 c 0
 221 737 276 702 321 636 c 0
 330 623 331 617 335 617 c 0
 338 617 343 621 355 625 c 2
 415 647 l 2
 458 663 459 665 460 665 c 0
 468 665 481 646 481 630 c 0
 481 626 480 624 440 610 c 2
 380 589 l 2
 361 582 355 582 355 577 c 0
 355 573 421 454 421 297 c 0
 421 151 343 -10 186 -10 c 0
 104 -10 32 47 32 169 c 0
109 168 m 0
 109 67 149 20 196 20 c 0
 303 20 340 187 340 270 c 0
 340 364 300 405 254 405 c 0
 206 405 152 361 129 280 c 0
 119 245 109 209 109 168 c 0
EndSplineSet
EndChar
StartChar: ntilde
Encoding: 241 241 200
Width: 526
Flags: MW
LayerCount: 2
Back
Fore
SplineSet
158 534 m 0
 158 551 225 633 265 633 c 0
 312 633 336 585 385 585 c 0
 421 585 436 641 451 641 c 0
 456 641 460 637 460 630 c 0
 460 610 394 533 354 533 c 0
 305 533 278 581 234 581 c 0
 197 581 182 524 166 524 c 0
 161 524 158 528 158 534 c 0
24 321 m 0
 24 360 84 435 122 435 c 0
 180 435 159 330 168 330 c 0
 174 330 181 352 218 380 c 0
 245 401 298 437 340 437 c 0
 410 437 424 375 424 312 c 0
 424 242 407 136 407 102 c 0
 407 74 415 66 426 66 c 0
 443 66 466 88 466 88 c 1
 478 103 482 115 497 115 c 0
 504 115 506 109 506 103 c 0
 506 64 418 -6 374 -6 c 0
 354 -6 337 22 337 57 c 0
 337 133 358 267 358 304 c 0
 358 320 353 386 288 386 c 0
 265 386 246 375 223 342 c 0
 180 281 192 290 168 161 c 0
 143 26 150 38 148 24 c 0
 145 2 137 -2 111 -2 c 0
 84 -2 76 0 76 29 c 0
 76 71 120 226 120 303 c 0
 120 338 107 358 97 358 c 0
 66 358 55 302 33 302 c 0
 26 302 24 310 24 321 c 0
EndSplineSet
EndChar
StartChar: ograve
Encoding: 242 242 201
Width: 446
Flags: MW
LayerCount: 2
Back
Fore
SplineSet
174 634 m 0
 174 653 221 660 226 660 c 0
 229 660 237 658 242 642 c 0
 280 521 301 504 301 492 c 0
 301 486 296 482 291 482 c 0
 277 482 174 608 174 634 c 0
32 169 m 0
 32 293 116 435 268 435 c 0
 368 435 414 352 414 258 c 0
 414 133 332 -10 185 -10 c 0
 103 -10 32 47 32 169 c 0
109 168 m 0
 109 67 149 20 196 20 c 0
 303 20 340 187 340 270 c 0
 340 364 300 405 254 405 c 0
 206 405 152 361 129 280 c 0
 119 245 109 209 109 168 c 0
EndSplineSet
EndChar
StartChar: ocircumflex
Encoding: 244 244 203
Width: 446
Flags: MW
LayerCount: 2
Back
Fore
SplineSet
157 499 m 0
 157 500 159 503 161 506 c 0
 260 631 252 646 267 646 c 2
 293 646 l 2
 298 646 303 646 307 636 c 0
 340 564 378 510 378 500 c 0
 378 497 376 494 370 494 c 0
 356 494 284 579 275 579 c 0
 260 579 176 495 164 495 c 0
 163 495 157 496 157 499 c 0
32 169 m 0
 32 293 116 435 268 435 c 0
 368 435 414 352 414 258 c 0
 414 133 332 -10 185 -10 c 0
 103 -10 32 47 32 169 c 0
109 168 m 0
 109 67 149 20 196 20 c 0
 303 20 340 187 340 270 c 0
 340 364 300 405 254 405 c 0
 206 405 152 361 129 280 c 0
 119 245 109 209 109 168 c 0
EndSplineSet
EndChar
StartChar: otilde
Encoding: 245 245 204
Width: 446
Flags: MW
LayerCount: 2
Back
Fore
SplineSet
124 534 m 0
 124 551 191 633 231 633 c 0
 278 633 302 585 351 585 c 0
 387 585 402 641 417 641 c 0
 422 641 426 637 426 630 c 0
 426 610 360 533 320 533 c 0
 271 533 244 581 200 581 c 0
 163 581 148 524 132 524 c 0
 127 524 124 528 124 534 c 0
32 169 m 0
 32 293 116 435 268 435 c 0
 368 435 414 352 414 258 c 0
 414 133 332 -10 185 -10 c 0
 103 -10 32 47 32 169 c 0
109 168 m 0
 109 67 149 20 196 20 c 0
 303 20 340 187 340 270 c 0
 340 364 300 405 254 405 c 0
 206 405 152 361 129 280 c 0
 119 245 109 209 109 168 c 0
EndSplineSet
EndChar
StartChar: odieresis
Encoding: 246 246 205
Width: 446
Flags: MW
LayerCount: 2
Back
Fore
SplineSet
165 589 m 0
 165 604 194 640 215 640 c 0
 235 640 255 612 255 593 c 0
 255 570 217 540 209 540 c 0
 183 540 165 572 165 589 c 0
319 589 m 0
 319 604 349 640 370 640 c 0
 390 640 410 612 410 593 c 0
 410 570 371 540 363 540 c 0
 337 540 319 572 319 589 c 0
32 169 m 0
 32 293 116 435 268 435 c 0
 368 435 414 352 414 258 c 0
 414 133 332 -10 185 -10 c 0
 103 -10 32 47 32 169 c 0
109 168 m 0
 109 67 149 20 196 20 c 0
 303 20 340 187 340 270 c 0
 340 364 300 405 254 405 c 0
 206 405 152 361 129 280 c 0
 119 245 109 209 109 168 c 0
EndSplineSet
EndChar
StartChar: divide
Encoding: 247 247 206
Width: 508
Flags: MW
LayerCount: 2
Back
Fore
SplineSet
21 212 m 0
 21 225 22 232 40 232 c 2
 470 232 l 2
 486 232 486 225 486 211 c 0
 486 194 486 188 465 188 c 2
 39 188 l 2
 21 188 21 195 21 212 c 0
202 320 m 0
 202 342 222 361 244 361 c 0
 266 361 285 343 285 321 c 0
 285 299 266 280 244 280 c 0
 222 280 202 298 202 320 c 0
208 101 m 0
 208 123 226 141 248 141 c 0
 270 141 290 122 290 100 c 0
 290 78 271 60 249 60 c 0
 227 60 208 78 208 101 c 0
EndSplineSet
EndChar
StartChar: oslash
Encoding: 248 248 139
Width: 446
Flags: MW
LayerCount: 2
Back
Fore
SplineSet
32 169 m 0
 32 293 116 435 268 435 c 0
 300 435 317 426 319 426 c 0
 321 426 322 429 326 437 c 2
 356 489 l 2
 359 494 363 498 368 498 c 0
 374 498 397 491 397 478 c 0
 397 475 397 472 383 449 c 2
 358 404 l 2
 358 401 414 366 414 258 c 0
 414 133 333 -10 186 -10 c 0
 151 -10 128 1 126 1 c 0
 124 1 124 -2 119 -10 c 2
 91 -58 l 2
 80 -77 77 -83 71 -83 c 0
 66 -83 41 -73 41 -62 c 0
 41 -60 42 -56 43 -54 c 2
 71 -6 l 2
 82 13 87 19 87 23 c 0
 87 30 32 60 32 169 c 0
109 168 m 0
 109 128 121 80 123 80 c 2
 123 80 131 96 139 110 c 2
 289 372 l 2
 294 381 298 386 298 388 c 0
 298 391 279 405 254 405 c 0
 206 405 152 361 129 280 c 0
 119 245 109 209 109 168 c 0
149 42 m 0
 149 33 175 20 196 20 c 0
 303 20 340 187 340 270 c 0
 340 318 328 349 327 349 c 0
 326 349 325 347 322 342 c 2
 166 72 l 2
 156 55 149 47 149 42 c 0
EndSplineSet
EndChar
StartChar: uacute
Encoding: 250 250 208
Width: 525
Flags: MW
LayerCount: 2
Back
Fore
SplineSet
237 490 m 0
 237 503 260 511 328 642 c 0
 336 658 345 660 348 660 c 0
 356 660 395 653 395 637 c 0
 395 614 260 482 245 482 c 0
 240 482 237 486 237 490 c 0
20 294 m 0
 20 336 66 428 133 428 c 0
 169 428 171 367 171 355 c 0
 171 267 134 155 134 79 c 0
 134 62 145 52 152 52 c 0
 184 52 219 99 266 155 c 0
 331 234 359 326 382 414 c 0
 385 427 401 430 411 430 c 0
 427 430 444 423 444 408 c 0
 444 381 383 139 383 88 c 0
 383 66 396 64 405 64 c 0
 466 64 470 138 491 138 c 0
 504 138 505 126 505 117 c 0
 505 93 443 -9 349 -9 c 0
 327 -9 319 14 319 45 c 0
 319 109 337 188 337 197 c 0
 337 204 335 208 332 208 c 0
 326 208 321 186 291 144 c 0
 246 80 172 -11 99 -11 c 0
 72 -11 65 24 65 53 c 0
 65 161 110 271 110 332 c 0
 110 343 103 353 90 353 c 0
 81 353 59 327 45 295 c 0
 41 285 35 281 30 281 c 0
 24 281 20 287 20 294 c 0
EndSplineSet
EndChar
StartChar: udieresis
Encoding: 252 252 210
Width: 525
Flags: MW
LayerCount: 2
Back
Fore
SplineSet
172 589 m 0
 172 604 201 640 222 640 c 0
 242 640 262 612 262 593 c 0
 262 570 224 540 216 540 c 0
 190 540 172 572 172 589 c 0
326 589 m 0
 326 604 356 640 377 640 c 0
 397 640 417 612 417 593 c 0
 417 570 378 540 370 540 c 0
 344 540 326 572 326 589 c 0
20 294 m 0
 20 336 66 428 133 428 c 0
 169 428 171 367 171 355 c 0
 171 267 134 155 134 79 c 0
 134 62 145 52 152 52 c 0
 184 52 219 99 266 155 c 0
 331 234 359 326 382 414 c 0
 385 427 401 430 411 430 c 0
 427 430 444 423 444 408 c 0
 444 381 383 139 383 88 c 0
 383 66 396 64 405 64 c 0
 466 64 470 138 491 138 c 0
 504 138 505 126 505 117 c 0
 505 93 443 -9 349 -9 c 0
 327 -9 319 14 319 45 c 0
 319 109 337 188 337 197 c 0
 337 204 335 208 332 208 c 0
 326 208 321 186 291 144 c 0
 246 80 172 -11 99 -11 c 0
 72 -11 65 24 65 53 c 0
 65 161 110 271 110 332 c 0
 110 343 103 353 90 353 c 0
 81 353 59 327 45 295 c 0
 41 285 35 281 30 281 c 0
 24 281 20 287 20 294 c 0
EndSplineSet
EndChar
StartChar: yacute
Encoding: 253 253 211
Width: 407
Flags: MW
LayerCount: 2
Back
Fore
SplineSet
187 490 m 0
 187 503 210 511 278 642 c 0
 286 658 295 660 298 660 c 0
 306 660 345 653 345 637 c 0
 345 614 210 482 195 482 c 0
 190 482 187 486 187 490 c 0
7 -125 m 0
 7 -108 22 -92 39 -92 c 0
 79 -92 80 -125 126 -125 c 0
 184 -125 250 3 250 41 c 0
 250 97 140 355 87 355 c 0
 29 355 50 280 20 280 c 0
 14 280 10 285 10 302 c 0
 10 344 30 431 91 431 c 0
 188 431 283 147 294 147 c 0
 308 147 330 254 330 321 c 0
 330 350 305 370 305 397 c 0
 305 415 315 434 339 434 c 0
 361 434 378 412 378 381 c 0
 378 336 354 198 295 49 c 0
 248 -70 184 -184 90 -184 c 0
 47 -184 7 -171 7 -125 c 0
EndSplineSet
EndChar
StartChar: thorn
Encoding: 254 254 212
Width: 488
Flags: MW
LayerCount: 2
Back
Fore
SplineSet
3 -183 m 0
 3 -157 40 -163 47 -142 c 1
 116 372 l 2
 116 377 115 377 113 377 c 0
 102 377 74 359 62 359 c 0
 52 359 49 365 49 371 c 2
 49 375 l 2
 49 387 49 387 100 404 c 0
 125 413 123 420 125 442 c 0
 138 540 161 668 161 685 c 0
 161 697 151 705 136 705 c 0
 121 705 118 703 106 703 c 0
 86 703 78 704 78 715 c 0
 78 720 80 728 93 729 c 0
 176 735 200 754 218 754 c 0
 231 754 234 745 234 736 c 0
 234 724 232 732 207 570 c 0
 199 514 189 446 189 432 c 0
 189 425 190 425 194 425 c 0
 203 425 225 428 279 428 c 0
 371 428 456 400 456 294 c 0
 456 232 447 196 417 145 c 0
 395 107 384 81 330 42 c 0
 288 12 247 0 198 0 c 0
 183 0 158 4 144 4 c 0
 129 4 132 3 124 -56 c 0
 120 -86 114 -119 114 -129 c 0
 114 -179 197 -160 197 -183 c 0
 197 -192 191 -196 183 -196 c 0
 149 -196 111 -195 83 -195 c 0
 61 -195 41 -196 29 -196 c 2
 20 -196 l 2
 13 -196 3 -192 3 -183 c 0
141 51 m 0
 141 45 152 27 198 27 c 0
 298 27 383 167 383 257 c 0
 383 394 251 403 215 403 c 0
 199 403 197 400 191 400 c 0
 184 400 180 375 174 323 c 2
 161 212 l 2
 155 167 141 80 141 51 c 0
EndSplineSet
EndChar
StartChar: ydieresis
Encoding: 255 255 213
Width: 407
Flags: MW
LayerCount: 2
Back
Fore
SplineSet
122 589 m 0
 122 604 151 640 172 640 c 0
 192 640 212 612 212 593 c 0
 212 570 174 540 166 540 c 0
 140 540 122 572 122 589 c 0
276 589 m 0
 276 604 306 640 327 640 c 0
 347 640 367 612 367 593 c 0
 367 570 328 540 320 540 c 0
 294 540 276 572 276 589 c 0
7 -125 m 0
 7 -108 22 -92 39 -92 c 0
 79 -92 80 -125 126 -125 c 0
 184 -125 250 3 250 41 c 0
 250 97 140 355 87 355 c 0
 29 355 50 280 20 280 c 0
 14 280 10 285 10 302 c 0
 10 344 30 431 91 431 c 0
 188 431 283 147 294 147 c 0
 308 147 330 254 330 321 c 0
 330 350 305 370 305 397 c 0
 305 415 315 434 339 434 c 0
 361 434 378 412 378 381 c 0
 378 336 354 198 295 49 c 0
 248 -70 184 -184 90 -184 c 0
 47 -184 7 -171 7 -125 c 0
EndSplineSet
EndChar
StartChar: Amacron
Encoding: 256 256 236
Width: 771
Flags: MW
LayerCount: 2
Back
Fore
SplineSet
365 845 m 0
 365 857 371 872 385 872 c 0
 525 872 478 870 565 870 c 0
 575 870 578 869 578 856 c 0
 578 840 575 827 561 827 c 0
 543 827 409 828 373 828 c 0
 368 828 365 836 365 845 c 0
20 9 m 0
 20 21 33 26 45 30 c 0
 105 52 81 66 445 698 c 0
 456 718 458 718 468 718 c 0
 484 718 477 718 524 560 c 0
 559 444 666 118 672 102 c 0
 695 42 699 40 736 28 c 0
 746 25 752 20 752 8 c 0
 752 1 748 -2 721 -2 c 0
 698 -2 684 1 656 1 c 0
 619 1 600 -4 563 -4 c 0
 553 -4 536 -3 536 7 c 0
 536 36 602 20 602 65 c 0
 602 103 570 191 561 229 c 0
 559 238 557 258 524 258 c 0
 503 258 468 257 403 257 c 0
 273 257 308 260 269 260 c 0
 252 260 240 256 234 245 c 0
 172 137 149 74 149 69 c 0
 149 12 217 38 217 12 c 0
 217 -3 211 -2 202 -2 c 0
 151 -1 132 0 115 0 c 0
 98 0 83 -1 40 -2 c 0
 26 -2 20 2 20 9 c 0
271 312 m 0
 271 305 285 304 304 304 c 0
 324 304 319 305 512 305 c 0
 529 305 528 313 528 320 c 0
 528 331 446 596 432 596 c 0
 424 596 271 316 271 312 c 0
EndSplineSet
EndChar
StartChar: Abreve
Encoding: 258 258 312
Width: 771
Flags: MW
LayerCount: 2
Back
Fore
SplineSet
368 872 m 0
 368 890 369 891 373 891 c 2
 384 891 l 2
 395 891 388 821 480 821 c 0
 560 821 573 891 583 891 c 2
 590 891 l 2
 597 891 597 891 597 889 c 0
 597 872 562 768 469 768 c 0
 403 768 368 822 368 872 c 0
20 9 m 0
 20 21 33 26 45 30 c 0
 105 52 81 66 445 698 c 0
 456 718 458 718 468 718 c 0
 484 718 477 718 524 560 c 0
 559 444 666 118 672 102 c 0
 695 42 699 40 736 28 c 0
 746 25 752 20 752 8 c 0
 752 1 748 -2 721 -2 c 0
 698 -2 684 1 656 1 c 0
 619 1 600 -4 563 -4 c 0
 553 -4 536 -3 536 7 c 0
 536 36 602 20 602 65 c 0
 602 103 570 191 561 229 c 0
 559 238 557 258 524 258 c 0
 503 258 468 257 403 257 c 0
 273 257 308 260 269 260 c 0
 252 260 240 256 234 245 c 0
 172 137 149 74 149 69 c 0
 149 12 217 38 217 12 c 0
 217 -3 211 -2 202 -2 c 0
 151 -1 132 0 115 0 c 0
 98 0 83 -1 40 -2 c 0
 26 -2 20 2 20 9 c 0
271 312 m 0
 271 305 285 304 304 304 c 0
 324 304 319 305 512 305 c 0
 529 305 528 313 528 320 c 0
 528 331 446 596 432 596 c 0
 424 596 271 316 271 312 c 0
EndSplineSet
EndChar
StartChar: Aogonek
Encoding: 260 260 297
Width: 771
Flags: MW
LayerCount: 2
Back
Fore
SplineSet
20 9 m 0
 20 21 33 26 45 30 c 0
 105 52 81 66 445 698 c 0
 456 718 458 718 468 718 c 0
 484 718 476 718 524 560 c 0
 559 444 666 118 672 102 c 0
 695 42 699 40 736 28 c 0
 746 25 752 20 752 8 c 0
 752 1 748 -2 721 -2 c 0
 717 -2 700 0 678 0 c 0
 591 0 524 -46 524 -93 c 0
 524 -131 548 -157 574 -157 c 0
 600 -157 614 -131 625 -131 c 0
 628 -131 628 -134 628 -139 c 0
 628 -153 587 -195 541 -195 c 0
 490 -195 466 -169 466 -129 c 0
 466 -93 496 -55 525 -33 c 0
 556 -10 602 5 602 64 c 0
 602 108 571 187 561 229 c 0
 559 238 557 258 524 258 c 0
 503 258 468 257 403 257 c 0
 273 257 308 260 269 260 c 0
 252 260 240 256 234 245 c 0
 172 136 149 74 149 69 c 0
 149 12 217 38 217 12 c 0
 217 -3 211 -2 202 -2 c 0
 151 -1 132 0 115 0 c 0
 98 0 83 -1 40 -2 c 0
 26 -2 20 2 20 9 c 0
271 312 m 0
 271 305 285 304 304 304 c 0
 324 304 319 305 512 305 c 0
 529 305 528 313 528 320 c 0
 528 331 446 596 432 596 c 0
 424 596 271 316 271 312 c 0
EndSplineSet
EndChar
StartChar: aogonek
Encoding: 261 261 304
Width: 518
Flags: MW
LayerCount: 2
Back
Fore
SplineSet
32 114 m 0
 32 232 159 425 296 425 c 0
 327 425 348 414 381 414 c 0
 401 414 413 463 433 463 c 0
 439 463 444 459 444 448 c 0
 444 432 431 408 424 379 c 2
 424 379 383 171 383 123 c 0
 383 97 398 64 417 64 c 0
 450 64 471 129 490 129 c 0
 498 129 499 122 499 118 c 0
 499 79 440 26 427 15 c 0
 391 -15 302 -41 302 -93 c 0
 302 -131 326 -157 352 -157 c 0
 378 -157 392 -131 403 -131 c 0
 406 -131 406 -134 406 -139 c 0
 406 -153 364 -195 318 -195 c 0
 267 -195 244 -169 244 -129 c 0
 244 -50 343 -23 343 9 c 0
 343 28 336 24 330 59 c 0
 326 83 325 105 322 105 c 0
 317 105 234 -15 139 -15 c 0
 44 -15 32 49 32 114 c 0
102 120 m 0
 102 70 138 40 180 40 c 0
 252 40 299 112 308 130 c 0
 332 178 359 362 359 365 c 0
 359 393 314 400 293 400 c 0
 252 400 199 370 169 319 c 0
 132 257 102 200 102 120 c 0
EndSplineSet
EndChar
StartChar: Cacute
Encoding: 262 262 314
Width: 762
Flags: MW
LayerCount: 2
Back
Fore
SplineSet
405 754 m 0
 405 767 428 775 496 906 c 0
 504 922 513 924 516 924 c 0
 524 924 563 917 563 901 c 0
 563 878 428 746 413 746 c 0
 408 746 405 750 405 754 c 0
39 312 m 0
 39 505 163 710 428 710 c 0
 566 710 661 634 670 634 c 0
 677 634 684 650 692 650 c 0
 698 650 704 649 704 634 c 0
 704 507 713 509 713 485 c 0
 713 473 710 461 699 461 c 0
 684 461 678 495 663 530 c 0
 646 572 631 589 600 610 c 0
 537 653 472 672 412 672 c 0
 223 672 124 501 124 334 c 0
 124 130 256 14 398 14 c 0
 473 14 552 47 614 117 c 0
 644 150 648 198 669 198 c 0
 671 198 685 197 685 180 c 0
 685 164 674 139 668 118 c 0
 656 79 660 61 645 53 c 0
 567 12 482 -23 378 -23 c 0
 145 -23 39 140 39 312 c 0
EndSplineSet
EndChar
StartChar: cacute
Encoding: 263 263 327
Width: 418
Flags: MW
LayerCount: 2
Back
Fore
SplineSet
219 490 m 0
 219 503 242 511 310 642 c 0
 318 658 327 660 330 660 c 0
 338 660 377 653 377 637 c 0
 377 614 242 482 227 482 c 0
 222 482 219 486 219 490 c 0
32 149 m 0
 32 286 144 436 286 436 c 0
 296 436 386 421 386 364 c 0
 386 344 371 325 353 325 c 0
 310 325 301 397 231 397 c 0
 222 397 193 386 166 362 c 0
 154 351 100 290 100 199 c 0
 100 97 140 46 218 46 c 0
 300 46 334 100 352 100 c 0
 360 100 365 93 365 87 c 0
 365 73 294 -12 183 -12 c 0
 110 -12 32 15 32 149 c 0
EndSplineSet
EndChar
StartChar: Ccircumflex
Encoding: 264 264 338
Width: 762
Flags: MW
LayerCount: 2
Back
Fore
SplineSet
332 763 m 0
 332 764 334 767 336 770 c 0
 435 895 427 910 442 910 c 2
 468 910 l 2
 473 910 478 910 482 900 c 0
 515 828 553 774 553 764 c 0
 553 761 551 758 545 758 c 0
 531 758 459 843 450 843 c 0
 435 843 351 759 339 759 c 0
 338 759 332 760 332 763 c 0
39 312 m 0
 39 505 163 710 428 710 c 0
 566 710 661 634 670 634 c 0
 677 634 684 650 692 650 c 0
 698 650 704 649 704 634 c 0
 704 507 713 509 713 485 c 0
 713 473 710 461 699 461 c 0
 684 461 678 495 663 530 c 0
 646 572 631 589 600 610 c 0
 537 653 472 672 412 672 c 0
 223 672 124 501 124 334 c 0
 124 130 256 14 398 14 c 0
 473 14 552 47 614 117 c 0
 644 150 648 198 669 198 c 0
 671 198 685 197 685 180 c 0
 685 164 674 139 668 118 c 0
 656 79 660 61 645 53 c 0
 567 12 482 -23 378 -23 c 0
 145 -23 39 140 39 312 c 0
EndSplineSet
EndChar
StartChar: ccircumflex
Encoding: 265 265 344
Width: 418
Flags: MW
LayerCount: 2
Back
Fore
SplineSet
146 499 m 0
 146 500 148 503 150 506 c 0
 249 631 241 646 256 646 c 2
 282 646 l 2
 287 646 292 646 296 636 c 0
 329 564 367 510 367 500 c 0
 367 497 365 494 359 494 c 0
 345 494 273 579 264 579 c 0
 249 579 165 495 153 495 c 0
 152 495 146 496 146 499 c 0
32 149 m 0
 32 286 144 436 286 436 c 0
 296 436 386 421 386 364 c 0
 386 344 371 325 353 325 c 0
 310 325 301 397 231 397 c 0
 222 397 193 386 166 362 c 0
 154 351 100 290 100 199 c 0
 100 97 140 46 218 46 c 0
 300 46 334 100 352 100 c 0
 360 100 365 93 365 87 c 0
 365 73 294 -12 183 -12 c 0
 110 -12 32 15 32 149 c 0
EndSplineSet
EndChar
StartChar: cdotaccent
Encoding: 267 267 383
Width: 418
Flags: MW
LayerCount: 2
Back
Fore
SplineSet
221 593 m 0
 221 602 253 646 272 646 c 0
 292 646 310 609 310 593 c 0
 310 572 275 538 265 538 c 0
 250 538 221 580 221 593 c 0
32 149 m 0
 32 286 144 436 286 436 c 0
 296 436 386 421 386 364 c 0
 386 344 371 325 353 325 c 0
 310 325 301 397 231 397 c 0
 222 397 193 386 166 362 c 0
 154 351 100 290 100 199 c 0
 100 97 140 46 218 46 c 0
 300 46 334 100 352 100 c 0
 360 100 365 93 365 87 c 0
 365 73 294 -12 183 -12 c 0
 110 -12 32 15 32 149 c 0
EndSplineSet
EndChar
StartChar: ccaron
Encoding: 269 269 328
Width: 418
Flags: MW
LayerCount: 2
Back
Fore
SplineSet
160 640 m 0
 160 645 163 646 167 646 c 2
 169 646 l 2
 181 646 253 561 263 561 c 0
 269 561 284 573 317 602 c 0
 349 630 358 645 372 645 c 0
 375 645 379 645 379 640 c 0
 379 639 379 636 377 633 c 0
 278 508 286 494 271 494 c 2
 245 494 l 2
 240 494 235 494 231 504 c 0
 200 571 160 629 160 640 c 0
32 149 m 0
 32 286 144 436 286 436 c 0
 296 436 386 421 386 364 c 0
 386 344 371 325 353 325 c 0
 310 325 301 397 231 397 c 0
 222 397 193 386 166 362 c 0
 154 351 100 290 100 199 c 0
 100 97 140 46 218 46 c 0
 300 46 334 100 352 100 c 0
 360 100 365 93 365 87 c 0
 365 73 294 -12 183 -12 c 0
 110 -12 32 15 32 149 c 0
EndSplineSet
EndChar
StartChar: Dcaron
Encoding: 270 270 317
Width: 767
Flags: MW
LayerCount: 2
Back
Fore
SplineSet
320 904 m 0
 320 909 323 910 327 910 c 2
 329 910 l 2
 341 910 413 825 423 825 c 0
 429 825 444 837 477 866 c 0
 509 894 518 909 532 909 c 0
 535 909 539 909 539 904 c 0
 539 903 539 900 537 897 c 0
 438 772 446 758 431 758 c 2
 405 758 l 2
 400 758 395 758 391 768 c 0
 360 835 320 893 320 904 c 0
20 13 m 0
 20 39 68 12 88 73 c 0
 92 87 94 96 97 116 c 2
 165 616 l 2
 166 624 167 629 167 634 c 0
 167 655 144 674 122 675 c 0
 91 677 76 686 76 697 c 0
 76 704 82 715 107 715 c 0
 143 715 161 704 208 704 c 0
 263 704 286 714 364 714 c 0
 635 714 733 581 733 432 c 0
 733 349 703 260 655 186 c 0
 623 136 554 75 524 57 c 0
 463 20 389 0 298 0 c 0
 239 0 230 3 143 3 c 0
 83 3 62 -5 42 -5 c 0
 29 -5 20 4 20 13 c 0
172 71 m 0
 172 49 180 34 220 34 c 2
 308 34 l 2
 359 34 453 59 512 113 c 0
 628 218 641 381 641 431 c 0
 641 528 588 672 353 672 c 0
 275 672 259 671 244 617 c 0
 234 578 172 73 172 71 c 0
EndSplineSet
EndChar
StartChar: dcaron
Encoding: 271 271 330
Width: 495
Flags: MW
LayerCount: 2
Back
Fore
SplineSet
495 717 m 1
 495 717 529 749 543 749 c 0
 547 749 592 734 592 690 c 0
 592 625 525 597 512 597 c 0
 509 597 506 599 506 601 c 0
 506 609 547 616 547 657 c 0
 547 702 495 700 495 717 c 1
17 125 m 0
 17 280 147 429 266 429 c 0
 292 429 312 416 340 416 c 0
 343 416 376 679 376 686 c 0
 376 701 362 711 347 711 c 0
 336 711 313 710 312 710 c 0
 302 710 296 714 296 721 c 0
 296 738 331 734 359 741 c 0
 415 755 409 757 436 757 c 0
 445 757 452 749 452 740 c 0
 452 714 442 682 386 273 c 0
 375 197 365 134 365 104 c 0
 365 82 368 61 391 61 c 0
 435 61 458 123 474 123 c 0
 482 123 485 118 485 114 c 0
 485 93 422 -8 357 -8 c 0
 287 -8 310 104 296 104 c 0
 287 104 236 -8 137 -8 c 0
 52 -8 17 50 17 125 c 0
87 153 m 0
 87 95 111 50 172 50 c 0
 208 50 247 69 273 102 c 0
 313 152 328 328 328 368 c 0
 328 395 288 408 261 408 c 0
 169 408 87 258 87 153 c 0
EndSplineSet
EndChar
StartChar: Dcroat
Encoding: 272 272 353
Width: 767
Flags: MW
LayerCount: 2
Back
Fore
SplineSet
20 13 m 0
 20 39 68 12 88 73 c 0
 97 101 125 323 125 323 c 2
 125 336 119 336 109 336 c 2
 59 336 l 2
 49 336 46 349 46 358 c 0
 46 370 52 380 57 380 c 0
 73 380 110 378 124 378 c 0
 135 378 134 381 137 406 c 2
 165 616 l 2
 166 624 167 629 167 634 c 0
 167 655 144 674 122 675 c 0
 91 677 76 686 76 697 c 0
 76 704 82 715 107 715 c 0
 143 715 161 704 208 704 c 0
 263 704 286 714 364 714 c 0
 635 714 733 581 733 432 c 0
 733 349 703 260 655 186 c 0
 623 136 554 75 524 57 c 0
 463 20 389 0 298 0 c 0
 239 0 230 3 143 3 c 0
 83 3 62 -5 42 -5 c 0
 29 -5 20 4 20 13 c 0
172 71 m 0
 172 49 180 34 220 34 c 2
 308 34 l 2
 359 34 453 59 512 113 c 0
 628 218 641 381 641 431 c 0
 641 528 588 672 353 672 c 0
 275 672 259 671 244 617 c 0
 237 595 211 385 211 385 c 2
 211 379 214 378 224 378 c 0
 257 378 374 381 391 381 c 0
 399 381 403 369 403 358 c 0
 403 350 401 337 395 337 c 0
 375 337 343 336 294 336 c 2
 220 336 l 2
 205 336 205 335 203 318 c 0
 203 317 172 77 172 71 c 0
EndSplineSet
EndChar
StartChar: dcroat
Encoding: 273 273 331
Width: 495
Flags: MW
LayerCount: 2
Back
Fore
SplineSet
17 125 m 0
 17 280 147 429 266 429 c 0
 292 429 312 416 340 416 c 0
 342 416 358 529 358 536 c 0
 358 544 355 545 349 545 c 2
 213 545 l 2
 203 545 200 553 200 562 c 0
 200 574 204 588 211 588 c 0
 232 588 255 587 330 587 c 2
 349 587 l 2
 367 587 365 588 367 605 c 2
 371 636 l 2
 374 664 376 684 376 686 c 0
 376 701 362 711 347 711 c 0
 336 711 313 710 312 710 c 0
 302 710 296 714 296 721 c 0
 296 738 331 734 359 741 c 0
 415 755 409 757 436 757 c 0
 445 757 452 749 452 740 c 0
 452 726 450 711 439 641 c 2
 435 611 l 2
 434 604 433 599 433 596 c 0
 433 589 436 588 446 588 c 0
 461 588 485 589 495 589 c 0
 508 589 508 584 508 576 c 0
 508 563 507 545 493 545 c 2
 432 545 l 2
 423 545 424 544 422 528 c 2
 386 273 l 2
 375 197 365 134 365 104 c 0
 365 82 368 61 391 61 c 0
 435 61 458 123 474 123 c 0
 482 123 485 118 485 114 c 0
 485 93 422 -8 357 -8 c 0
 287 -8 310 104 296 104 c 0
 287 104 236 -8 137 -8 c 0
 52 -8 17 50 17 125 c 0
87 153 m 0
 87 95 111 50 172 50 c 0
 208 50 247 69 273 102 c 0
 313 152 328 328 328 368 c 0
 328 395 288 408 261 408 c 0
 169 408 87 258 87 153 c 0
EndSplineSet
EndChar
StartChar: Edotaccent
Encoding: 278 278 365
Width: 631
Flags: MW
LayerCount: 2
Back
Fore
SplineSet
353 857 m 0
 353 866 385 910 404 910 c 0
 424 910 442 873 442 857 c 0
 442 836 407 802 397 802 c 0
 382 802 353 844 353 857 c 0
20 14 m 0
 20 19 26 27 42 28 c 0
 92 31 95 69 111 163 c 0
 116 197 124 242 131 296 c 2
 167 599 l 2
 168 608 168 615 168 620 c 0
 168 701 92 663 92 693 c 0
 92 703 97 708 115 708 c 0
 144 708 217 706 368 706 c 0
 408 706 569 710 599 710 c 0
 606 710 617 708 617 691 c 0
 617 678 613 661 613 638 c 0
 613 622 616 605 616 584 c 0
 616 572 611 556 603 556 c 0
 576 556 601 595 569 632 c 0
 564 638 532 663 464 664 c 0
 384 665 367 667 310 667 c 0
 248 667 249 659 239 599 c 0
 235 571 214 409 214 396 c 0
 214 383 217 382 257 382 c 0
 438 382 445 386 461 406 c 0
 485 436 482 458 495 458 c 0
 504 458 507 455 507 447 c 0
 507 429 492 383 487 343 c 0
 482 308 490 244 469 244 c 0
 460 244 458 251 458 260 c 0
 458 279 458 308 441 320 c 0
 422 334 386 341 334 341 c 0
 247 341 260 342 249 342 c 0
 228 342 211 341 210 325 c 0
 202 254 174 94 174 77 c 0
 174 44 200 40 300 40 c 0
 549 40 556 139 582 139 c 0
 587 139 592 135 592 125 c 0
 592 93 522 -8 476 -8 c 0
 348 -8 228 3 167 3 c 0
 112 3 104 0 55 0 c 0
 20 0 20 9 20 14 c 0
EndSplineSet
EndChar
StartChar: Eogonek
Encoding: 280 280 316
Width: 631
Flags: MW
LayerCount: 2
Back
Fore
SplineSet
20 14 m 0
 20 19 26 27 42 28 c 0
 92 31 95 69 111 163 c 0
 116 197 124 242 131 296 c 2
 167 599 l 2
 168 608 168 615 168 620 c 0
 168 701 92 663 92 693 c 0
 92 703 97 708 115 708 c 0
 144 708 217 706 368 706 c 0
 408 706 569 710 599 710 c 0
 606 710 617 708 617 691 c 0
 617 678 613 661 613 638 c 0
 613 622 616 605 616 584 c 0
 616 572 611 556 603 556 c 0
 576 556 601 595 569 632 c 0
 564 638 532 663 464 664 c 0
 384 665 367 667 310 667 c 0
 248 667 249 659 239 599 c 0
 235 571 214 409 214 396 c 0
 214 383 217 382 257 382 c 0
 438 382 445 386 461 406 c 0
 485 436 482 458 495 458 c 0
 504 458 507 455 507 447 c 0
 507 429 492 383 487 343 c 0
 482 308 490 244 469 244 c 0
 460 244 458 251 458 260 c 0
 458 279 458 308 441 320 c 0
 422 334 386 341 334 341 c 0
 247 341 260 342 249 342 c 0
 228 342 211 341 210 325 c 0
 202 254 174 94 174 77 c 0
 174 44 200 40 300 40 c 0
 549 40 556 139 582 139 c 0
 587 139 592 135 592 125 c 0
 592 104 562 53 528 21 c 0
 494 -12 420 -40 420 -93 c 0
 420 -131 444 -157 470 -157 c 0
 496 -157 510 -131 521 -131 c 0
 524 -131 524 -134 524 -139 c 0
 524 -153 483 -195 437 -195 c 0
 386 -195 362 -169 362 -129 c 0
 362 -72 421 -33 421 -19 c 0
 421 -11 414 -7 359 -5 c 0
 278 -2 209 3 167 3 c 0
 112 3 104 0 55 0 c 0
 20 0 20 9 20 14 c 0
EndSplineSet
EndChar
StartChar: eogonek
Encoding: 281 281 329
Width: 402
Flags: MW
LayerCount: 2
Back
Fore
SplineSet
32 147 m 0
 32 233 76 319 145 383 c 0
 182 418 228 436 284 436 c 0
 331 436 371 406 371 362 c 0
 371 290 293 249 274 241 c 0
 265 237 211 215 117 214 c 0
 103 214 100 199 100 173 c 0
 100 98 145 48 244 48 c 0
 301 48 341 91 352 91 c 0
 360 91 364 87 364 81 c 0
 364 62 339 41 253 -6 c 0
 217 -26 188 -52 188 -93 c 0
 188 -131 212 -157 238 -157 c 0
 264 -157 278 -131 289 -131 c 0
 292 -131 292 -134 292 -139 c 0
 292 -153 251 -195 205 -195 c 0
 154 -195 130 -169 130 -129 c 0
 130 -73 191 -31 191 -19 c 0
 191 -2 32 -41 32 147 c 0
114 251 m 0
 114 244 116 231 123 231 c 0
 220 231 302 296 302 359 c 0
 302 397 266 406 249 406 c 0
 224 406 193 386 167 359 c 0
 137 328 114 264 114 251 c 0
EndSplineSet
EndChar
StartChar: ecaron
Encoding: 283 283 277
Width: 402
Flags: MW
LayerCount: 2
Back
Fore
SplineSet
176 640 m 0
 176 645 179 646 183 646 c 2
 185 646 l 2
 197 646 269 561 279 561 c 0
 285 561 300 573 333 602 c 0
 365 630 374 645 388 645 c 0
 391 645 395 645 395 640 c 0
 395 639 395 636 393 633 c 0
 294 508 302 494 287 494 c 2
 261 494 l 2
 256 494 251 494 247 504 c 0
 216 571 176 629 176 640 c 0
32 147 m 0
 32 233 76 319 145 383 c 0
 182 418 228 436 284 436 c 0
 331 436 371 406 371 362 c 0
 371 290 293 249 274 241 c 0
 265 237 211 215 117 214 c 0
 103 214 100 199 100 173 c 0
 100 98 145 48 244 48 c 0
 301 48 341 91 352 91 c 0
 360 91 364 87 364 81 c 0
 364 58 277 -12 190 -12 c 0
 63 -12 32 58 32 147 c 0
114 251 m 0
 114 244 116 231 123 231 c 0
 220 231 302 296 302 359 c 0
 302 397 266 406 249 406 c 0
 224 406 193 386 167 359 c 0
 137 328 114 264 114 251 c 0
EndSplineSet
EndChar
StartChar: gcircumflex
Encoding: 285 285 345
Width: 435
Flags: MW
LayerCount: 2
Back
Fore
SplineSet
127 499 m 0
 127 500 129 503 131 506 c 0
 230 631 222 646 237 646 c 2
 263 646 l 2
 268 646 273 646 277 636 c 0
 310 564 348 510 348 500 c 0
 348 497 346 494 340 494 c 0
 326 494 254 579 245 579 c 0
 230 579 146 495 134 495 c 0
 133 495 127 496 127 499 c 0
-24 -73 m 0
 -24 17 72 22 72 28 c 0
 72 34 60 40 60 72 c 0
 60 120 99 132 99 141 c 0
 99 149 56 158 56 267 c 0
 56 327 109 427 205 427 c 0
 247 427 286 401 315 401 c 0
 342 401 370 423 387 423 c 0
 396 423 416 418 416 397 c 0
 416 386 404 366 379 366 c 0
 353 366 334 374 326 374 c 0
 320 374 314 369 314 365 c 0
 314 358 332 331 332 287 c 0
 332 224 280 115 189 115 c 0
 143 115 128 128 112 128 c 0
 111 128 100 120 100 94 c 0
 100 10 355 34 355 -87 c 0
 355 -172 281 -195 181 -195 c 0
 78 -195 -24 -160 -24 -73 c 0
31 -61 m 0
 31 -137 113 -170 179 -170 c 0
 221 -170 291 -161 291 -105 c 0
 291 -84 261 -63 115 -4 c 0
 90 6 82 14 82 14 c 1
 67 14 31 -21 31 -61 c 0
116 250 m 0
 116 172 148 138 184 138 c 0
 227 138 274 190 274 282 c 0
 274 362 240 401 203 401 c 0
 161 401 116 349 116 250 c 0
EndSplineSet
EndChar
StartChar: Gdotaccent
Encoding: 288 288 368
Width: 773
Flags: MW
LayerCount: 2
Back
Fore
SplineSet
387 857 m 0
 387 866 419 910 438 910 c 0
 458 910 476 873 476 857 c 0
 476 836 441 802 431 802 c 0
 416 802 387 844 387 857 c 0
39 359 m 0
 39 445 85 629 272 693 c 0
 310 706 353 716 402 716 c 0
 561 716 653 642 662 642 c 0
 669 642 683 662 691 662 c 0
 701 662 704 657 704 644 c 0
 704 633 702 616 702 592 c 0
 702 558 709 521 709 508 c 0
 709 487 697 485 692 485 c 0
 673 485 679 520 650 562 c 0
 597 641 489 679 386 679 c 0
 281 679 124 623 124 357 c 0
 124 178 233 25 404 25 c 0
 512 25 599 48 599 243 c 2
 599 249 l 2
 599 315 596 328 544 328 c 2
 535 328 l 2
 520 328 506 330 506 346 c 0
 506 354 523 359 539 359 c 0
 564 359 606 356 631 356 c 0
 677 356 711 360 715 360 c 0
 726 360 734 357 734 348 c 0
 734 325 690 343 682 297 c 0
 669 216 660 121 660 105 c 2
 660 74 l 2
 660 40 659 53 618 37 c 0
 596 29 514 -10 403 -10 c 0
 159 -10 39 145 39 359 c 0
EndSplineSet
EndChar
StartChar: Gcommaaccent
Encoding: 290 290 367
Width: 773
Flags: MW
LayerCount: 2
Back
Fore
SplineSet
332 -79 m 1
 332 -79 366 -46 380 -46 c 0
 384 -46 430 -61 430 -105 c 0
 430 -170 362 -199 349 -199 c 0
 346 -199 344 -197 344 -195 c 0
 344 -187 384 -180 384 -139 c 0
 384 -94 332 -96 332 -79 c 1
39 359 m 0
 39 445 85 629 272 693 c 0
 310 706 353 716 402 716 c 0
 561 716 653 642 662 642 c 0
 669 642 683 662 691 662 c 0
 701 662 704 657 704 644 c 0
 704 633 702 616 702 592 c 0
 702 558 709 521 709 508 c 0
 709 487 697 485 692 485 c 0
 673 485 679 520 650 562 c 0
 597 641 489 679 386 679 c 0
 281 679 124 623 124 357 c 0
 124 178 233 25 404 25 c 0
 512 25 599 48 599 243 c 2
 599 249 l 2
 599 315 596 328 544 328 c 2
 535 328 l 2
 520 328 506 330 506 346 c 0
 506 354 523 359 539 359 c 0
 564 359 606 356 631 356 c 0
 677 356 711 360 715 360 c 0
 726 360 734 357 734 348 c 0
 734 325 690 343 682 297 c 0
 669 216 660 121 660 105 c 2
 660 74 l 2
 660 40 659 53 618 37 c 0
 596 29 514 -10 403 -10 c 0
 159 -10 39 145 39 359 c 0
EndSplineSet
EndChar
StartChar: Hbar
Encoding: 294 294 354
Width: 786
Flags: MW
LayerCount: 2
Back
Fore
SplineSet
20 11 m 0
 20 33 47 17 75 45 c 0
 97 67 94 99 140 472 c 0
 141 480 141 485 141 489 c 0
 141 501 136 502 121 502 c 2
 74 502 l 2
 64 502 61 510 61 519 c 0
 61 540 67 546 72 546 c 2
 130 546 l 2
 152 546 150 553 152 574 c 0
 156 612 158 615 158 621 c 0
 158 677 86 670 72 677 c 0
 66 679 64 684 64 689 c 0
 64 697 70 704 91 704 c 0
 119 704 138 697 194 697 c 0
 237 697 268 704 288 704 c 0
 295 704 306 703 306 689 c 0
 306 673 272 682 254 663 c 0
 236 644 226 566 226 552 c 0
 226 544 230 544 247 544 c 0
 344 544 482 546 584 546 c 0
 614 546 614 546 617 582 c 0
 618 594 619 603 619 605 c 0
 619 639 600 661 579 670 c 0
 564 676 525 673 525 689 c 0
 525 697 531 702 552 702 c 0
 580 702 603 699 659 699 c 0
 702 699 725 703 745 703 c 0
 752 703 767 702 767 688 c 0
 767 672 735 680 720 662 c 0
 702 641 693 581 693 564 c 0
 693 553 693 547 706 547 c 2
 752 547 l 2
 764 547 765 539 765 531 c 0
 765 519 760 503 749 503 c 2
 701 503 l 2
 684 503 686 500 683 474 c 2
 680 453 l 1
 656 247 636 133 636 100 c 0
 636 22 672 26 698 24 c 0
 713 23 731 17 731 6 c 0
 731 -4 723 -6 713 -6 c 0
 674 -6 653 3 611 3 c 0
 560 3 542 -5 521 -5 c 0
 499 -5 489 0 489 8 c 0
 489 19 496 22 508 23 c 0
 556 28 556 82 560 112 c 0
 570 183 588 323 588 328 c 0
 588 342 585 344 554 344 c 0
 534 344 503 343 454 343 c 2
 219 343 l 2
 196 343 198 342 195 318 c 2
 188 266 l 2
 175 176 167 120 167 99 c 0
 167 30 199 32 224 25 c 0
 240 21 254 20 254 9 c 0
 254 0 245 0 238 0 c 0
 196 0 185 2 132 2 c 0
 109 2 78 -3 54 -3 c 0
 34 -3 20 -1 20 11 c 0
205 399 m 0
 205 387 209 387 217 387 c 0
 288 387 499 384 570 384 c 0
 590 384 596 387 600 418 c 0
 602 433 607 492 607 492 c 2
 607 502 607 503 581 503 c 0
 471 503 336 502 309 502 c 2
 241 502 l 2
 215 502 218 501 214 472 c 0
 208 436 205 414 205 399 c 0
EndSplineSet
EndChar
StartChar: hbar
Encoding: 295 295 413
Width: 485
Flags: MW
LayerCount: 2
Back
Fore
SplineSet
29 23 m 0
 29 50 49.8280822683 151.025280714 58 206 c 0
 64.3733195352 248.875058691 86 389 103 506 c 24
 103 508 102 511 101 511 c 0
 98 511 43 485 40 485 c 0
 33 485 31 496 31 505 c 0
 31 526 38 530 41 531 c 2
 103 559 l 2
 111.975799481 563.053586863 113 569 114 580 c 2
 114 580 129 679.377045744 129 682 c 0
 129 699 119 705 101 705 c 0
 80 705 68 704 60 704 c 0
 54 704 47 706 47 716 c 0
 47 721 51 727 85 730 c 0
 167 737 171 747 193 747 c 0
 200 747 205 741 205 734 c 0
 205 723.707332418 192 668 185 626 c 24
 184 618 183 609 183 605 c 0
 183 601 184 600 186 600 c 0
 188 600 192 603 199 606 c 2
 216 614 l 2
 234 623 253 632 257 632 c 0
 263 632 268 632 268 614 c 0
 268 587 254 584 241 578 c 2
 190 554 l 2
 170.97733711 545.04815864 164.232405707 501.162028534 157 465 c 0
 155 455 145 395.133725125 145 351 c 0
 145 345 146 340 149 340 c 0
 159 340 213 425 294 425 c 0
 363 425 383 374 383 312 c 0
 383 255 359 156 359 110 c 0
 359 83 368 64 383 64 c 0
 399 64 412 74 425 82 c 0
 446 95 458 123 466 123 c 0
 472 123 476 120 476 115 c 0
 476 69 390 -3 346 -3 c 0
 305 -3 297 47 297 90 c 0
 297 152 315 234 315 294 c 0
 315 357 288 372 258 372 c 0
 222 372 166 354 139 285 c 0
 119 235 113 131 99 29 c 0
 95 3 83 -1 62 -1 c 0
 51 -1 29 3 29 23 c 0
EndSplineSet
EndChar
StartChar: Itilde
Encoding: 296 296 270
Width: 325
Flags: MW
LayerCount: 2
Back
Fore
SplineSet
54 798 m 0
 54 815 121 897 161 897 c 0
 208 897 232 849 281 849 c 0
 317 849 332 905 347 905 c 0
 352 905 356 901 356 894 c 0
 356 874 290 797 250 797 c 0
 201 797 174 845 130 845 c 0
 93 845 78 788 62 788 c 0
 57 788 54 792 54 798 c 0
20 11 m 0
 20 31 54 16 74 45 c 0
 83 58 88 70 89 79 c 0
 97 142 158 615 158 619 c 0
 158 678 87 670 72 677 c 0
 66 679 64 684 64 689 c 0
 64 697 70 704 91 704 c 0
 119 704 138 696 194 696 c 0
 237 696 268 702 288 702 c 0
 295 702 306 702 306 688 c 0
 306 672 269 680 254 662 c 0
 234 639 228 577 225 545 c 0
 197 281 167 136 167 99 c 0
 167 21 199 29 224 22 c 0
 240 18 254 20 254 9 c 0
 254 -6 246 -5 233 -5 c 0
 219 -5 174 1 132 1 c 0
 104 1 76 -5 55 -5 c 0
 33 -5 20 -1 20 11 c 0
EndSplineSet
EndChar
StartChar: itilde
Encoding: 297 297 282
Width: 250
Flags: MW
LayerCount: 2
Back
Fore
SplineSet
-12 534 m 0
 -12 551 55 633 95 633 c 0
 142 633 166 585 215 585 c 0
 251 585 266 641 281 641 c 0
 286 641 290 637 290 630 c 0
 290 610 224 533 184 533 c 0
 135 533 108 581 64 581 c 0
 27 581 12 524 -4 524 c 0
 -9 524 -12 528 -12 534 c 0
20 396 m 0
 20 409 32 410 43 410 c 2
 53 410 l 2
 93 410 110 419 167 419 c 0
 174 419 181 415 181 408 c 0
 181 382 162 343 154 292 c 0
 124 103 124 105 124 93 c 0
 124 79 134 66 144 66 c 0
 178 66 192 118 206 118 c 0
 212 118 216 114 216 107 c 0
 216 95 198 61 187 49 c 1
 187 49 132 -10 95 -10 c 0
 65 -10 58 30 58 73 c 0
 58 149 103 305 103 362 c 0
 103 379 97 383 79 383 c 0
 58 383 42 384 34 384 c 0
 28 384 20 386 20 396 c 0
EndSplineSet
EndChar
StartChar: Imacron
Encoding: 298 298 237
Width: 325
Flags: MW
LayerCount: 2
Back
Fore
SplineSet
98 845 m 0
 98 857 104 872 118 872 c 0
 258 872 211 870 298 870 c 0
 308 870 311 869 311 856 c 0
 311 840 308 827 294 827 c 0
 276 827 142 828 106 828 c 0
 101 828 98 836 98 845 c 0
20 11 m 0
 20 31 54 16 74 45 c 0
 83 58 88 70 89 79 c 0
 97 142 158 615 158 619 c 0
 158 678 87 670 72 677 c 0
 66 679 64 684 64 689 c 0
 64 697 70 704 91 704 c 0
 119 704 138 696 194 696 c 0
 237 696 268 702 288 702 c 0
 295 702 306 702 306 688 c 0
 306 672 269 680 254 662 c 0
 234 639 228 577 225 545 c 0
 197 281 167 136 167 99 c 0
 167 21 199 29 224 22 c 0
 240 18 254 20 254 9 c 0
 254 -6 246 -5 233 -5 c 0
 219 -5 174 1 132 1 c 0
 104 1 76 -5 55 -5 c 0
 33 -5 20 -1 20 11 c 0
EndSplineSet
EndChar
StartChar: Iogonek
Encoding: 302 302 370
Width: 325
Flags: MW
LayerCount: 2
Back
Fore
SplineSet
20 11 m 0
 20 36 66 6 88 72 c 0
 88 73 158 615 158 619 c 0
 158 678 87 670 72 677 c 0
 66 679 64 684 64 689 c 0
 64 697 70 704 91 704 c 0
 119 704 138 696 194 696 c 0
 237 696 268 702 288 702 c 0
 295 702 306 702 306 688 c 0
 306 672 269 680 254 662 c 0
 234 639 228 577 225 545 c 0
 197 281 167 136 167 99 c 0
 167 21 199 29 224 22 c 0
 240 18 254 20 254 9 c 0
 254 -6 246 -5 233 -5 c 0
 219 -5 171 0 157 0 c 0
 136 0 134 -9 132 -12 c 0
 113 -34 102 -55 102 -93 c 0
 102 -131 126 -157 152 -157 c 0
 176 -157 191 -142 201 -142 c 0
 205 -142 207 -144 207 -147 c 0
 207 -163 163 -195 119 -195 c 0
 68 -195 46 -164 46 -124 c 0
 46 -59 102 -17 102 -6 c 0
 102 -3 97 -1 92 -1 c 0
 85 -1 72 -5 55 -5 c 0
 33 -5 20 -1 20 11 c 0
EndSplineSet
EndChar
StartChar: Idotaccent
Encoding: 304 304 369
Width: 325
Flags: MW
LayerCount: 2
Back
Fore
SplineSet
162 857 m 0
 162 866 194 910 213 910 c 0
 233 910 251 873 251 857 c 0
 251 836 216 802 206 802 c 0
 191 802 162 844 162 857 c 0
20 11 m 0
 20 31 54 16 74 45 c 0
 83 58 88 70 89 79 c 0
 97 142 158 615 158 619 c 0
 158 678 87 670 72 677 c 0
 66 679 64 684 64 689 c 0
 64 697 70 704 91 704 c 0
 119 704 138 696 194 696 c 0
 237 696 268 702 288 702 c 0
 295 702 306 702 306 688 c 0
 306 672 269 680 254 662 c 0
 234 639 228 577 225 545 c 0
 197 281 167 136 167 99 c 0
 167 21 199 29 224 22 c 0
 240 18 254 20 254 9 c 0
 254 -6 246 -5 233 -5 c 0
 219 -5 174 1 132 1 c 0
 104 1 76 -5 55 -5 c 0
 33 -5 20 -1 20 11 c 0
EndSplineSet
EndChar
StartChar: IJ
Encoding: 306 306 355
Width: 681
Flags: MW
LayerCount: 2
Back
Fore
SplineSet
266 -39 m 0
 266 -34 281 38 303 38 c 0
 323 38 321 -17 369 -17 c 0
 427 -17 450 116 465 246 c 2
 507 604 l 2
 508 615 510 623 510 629 c 0
 510 667 466 672 442 674 c 0
 427 675 417 680 417 692 c 0
 417 700 425 708 443 708 c 0
 474 708 481 699 541 699 c 0
 597 699 623 707 638 707 c 0
 647 707 661 705 661 695 c 0
 661 658 606 719 586 597 c 0
 578 547 562 375 535 195 c 0
 528 148 515 104 498 66 c 0
 462 -16 375 -69 318 -69 c 0
 287 -69 266 -57 266 -39 c 0
20 11 m 0
 20 31 54 16 74 45 c 0
 83 58 88 70 89 79 c 0
 97 142 158 615 158 619 c 0
 158 678 87 670 72 677 c 0
 66 679 64 684 64 689 c 0
 64 697 70 704 91 704 c 0
 119 704 138 696 194 696 c 0
 237 696 268 702 288 702 c 0
 295 702 306 702 306 688 c 0
 306 672 269 680 254 662 c 0
 234 639 228 577 225 545 c 0
 197 281 167 136 167 99 c 0
 167 21 199 29 224 22 c 0
 240 18 254 20 254 9 c 0
 254 -6 246 -5 233 -5 c 0
 219 -5 174 1 132 1 c 0
 104 1 76 -5 55 -5 c 0
 33 -5 20 -1 20 11 c 0
EndSplineSet
EndChar
StartChar: ij
Encoding: 307 307 359
Width: 492
Flags: MW
LayerCount: 2
Back
Fore
SplineSet
177 -131 m 0
 177 -123 180 -115 190 -115 c 0
 212 -115 227 -157 254 -157 c 0
 275 -157 284 -121 306 54 c 0
 323 188 346 350 346 359 c 0
 346 379 326 383 314 383 c 2
 288 383 l 2
 274 383 270 389 270 395 c 0
 270 403 275 411 290 411 c 0
 298 411 309 412 321 412 c 0
 347 412 368 421 395 421 c 0
 417 421 418 412 418 405 c 0
 418 361 404 318 396 258 c 0
 354 -60 365 -99 296 -164 c 0
 278 -181 264 -200 220 -200 c 0
 195 -200 181 -196 180 -172 c 0
 179 -145 177 -139 177 -131 c 0
359 591 m 0
 359 607 389 644 410 644 c 0
 425 644 447 616 447 594 c 0
 447 575 418 540 405 540 c 0
 380 540 359 584 359 591 c 0
20 396 m 0
 20 409 32 410 43 410 c 2
 53 410 l 2
 93 410 110 419 167 419 c 0
 174 419 181 415 181 408 c 0
 181 382 162 343 154 292 c 0
 124 103 124 105 124 93 c 0
 124 79 134 66 144 66 c 0
 178 66 192 118 206 118 c 0
 212 118 216 114 216 107 c 0
 216 95 198 61 187 49 c 1
 187 49 132 -10 95 -10 c 0
 65 -10 58 30 58 73 c 0
 58 149 103 305 103 362 c 0
 103 379 97 383 79 383 c 0
 58 383 42 384 34 384 c 0
 28 384 20 386 20 396 c 0
126 593 m 0
 126 602 158 646 176 646 c 0
 196 646 215 611 215 593 c 0
 215 573 180 540 171 540 c 0
 153 540 126 583 126 593 c 0
EndSplineSet
EndChar
StartChar: Jcircumflex
Encoding: 308 308 341
Width: 405
Flags: MW
LayerCount: 2
Back
Fore
SplineSet
163 763 m 0
 163 764 165 767 167 770 c 0
 266 895 258 910 273 910 c 2
 299 910 l 2
 304 910 309 910 313 900 c 0
 346 828 384 774 384 764 c 0
 384 761 382 758 376 758 c 0
 362 758 290 843 281 843 c 0
 266 843 182 759 170 759 c 0
 169 759 163 760 163 763 c 0
-10 -39 m 0
 -10 -34 5 38 27 38 c 0
 47 38 45 -17 93 -17 c 0
 151 -17 174 116 189 246 c 2
 231 604 l 2
 232 615 234 623 234 629 c 0
 234 667 190 672 166 674 c 0
 151 675 141 680 141 692 c 0
 141 700 149 708 167 708 c 0
 198 708 205 699 265 699 c 0
 321 699 347 707 362 707 c 0
 371 707 385 705 385 695 c 0
 385 658 330 719 310 597 c 0
 302 547 286 375 259 195 c 0
 252 148 239 104 222 66 c 0
 186 -16 99 -69 42 -69 c 0
 11 -69 -10 -57 -10 -39 c 0
EndSplineSet
EndChar
StartChar: jcircumflex
Encoding: 309 309 347
Width: 242
Flags: MW
LayerCount: 2
Back
Fore
SplineSet
4 499 m 0
 4 500 6 503 8 506 c 0
 107 631 99 646 114 646 c 2
 140 646 l 2
 145 646 150 646 154 636 c 0
 187 564 225 510 225 500 c 0
 225 497 223 494 217 494 c 0
 203 494 131 579 122 579 c 0
 107 579 23 495 11 495 c 0
 10 495 4 496 4 499 c 0
-73 -131 m 0
 -73 -123 -70 -115 -60 -115 c 0
 -38 -115 -23 -157 4 -157 c 0
 25 -157 34 -121 56 54 c 0
 73 188 96 350 96 359 c 0
 96 379 76 383 64 383 c 2
 38 383 l 2
 24 383 20 389 20 395 c 0
 20 403 25 411 40 411 c 0
 48 411 59 412 71 412 c 0
 97 412 118 421 145 421 c 0
 167 421 168 412 168 405 c 0
 168 361 154 318 146 258 c 0
 104 -60 115 -99 46 -164 c 0
 28 -181 14 -200 -30 -200 c 0
 -55 -200 -69 -196 -70 -172 c 0
 -71 -145 -73 -139 -73 -131 c 0
EndSplineSet
EndChar
StartChar: Kcommaaccent
Encoding: 310 310 371
Width: 774
Flags: MW
LayerCount: 2
Back
Fore
SplineSet
290 -79 m 1
 290 -79 324 -46 338 -46 c 0
 342 -46 388 -61 388 -105 c 0
 388 -170 320 -199 307 -199 c 0
 304 -199 302 -197 302 -195 c 0
 302 -187 342 -180 342 -139 c 0
 342 -94 290 -96 290 -79 c 1
20 13 m 0
 20 41 75 5 96 88 c 0
 112 153 161 596 161 620 c 0
 161 653 131 676 93 678 c 0
 78 679 75 690 75 695 c 0
 75 704 87 707 93 707 c 0
 95 707 131 701 208 701 c 0
 251 701 274 705 292 705 c 0
 299 705 311 703 311 695 c 0
 311 684 297 686 278 675 c 0
 235 650 236 627 214 414 c 0
 212 396 210 385 210 379 c 0
 210 372 212 370 217 370 c 0
 229 370 445 533 526 596 c 0
 540 607 579 636 579 656 c 0
 579 683 531 672 531 694 c 0
 531 699 532 706 558 706 c 0
 567 706 624 700 650 700 c 0
 685 700 716 706 733 706 c 0
 746 706 754 700 754 690 c 0
 754 678 749 673 741 671 c 0
 714 662 707 682 571 584 c 2
 355 429 l 2
 332 412 299 394 299 381 c 0
 299 375 304 372 308 368 c 0
 558 93 575 32 690 26 c 0
 704 25 713 21 713 12 c 0
 713 -1 701 -2 696 -2 c 0
 684 -2 627 2 597 2 c 0
 552 2 546 1 540 1 c 0
 523 1 513 19 323 245 c 0
 244 338 246 338 233 338 c 0
 224 338 218 333 214 329 c 0
 205 321 198 320 192 261 c 0
 188 225 176 145 176 113 c 0
 176 37 186 36 239 28 c 0
 257 26 270 21 270 13 c 0
 270 9 268 0 247 0 c 0
 193 0 196 3 163 3 c 0
 111 3 68 -2 49 -2 c 0
 22 -2 20 6 20 13 c 0
EndSplineSet
EndChar
StartChar: kra
Encoding: 312 312 360
Width: 452
Flags: MW
LayerCount: 2
Back
Fore
SplineSet
130 262 m 2
 130 262 126 243 126 234 c 0
 126 220 126 215 135 215 c 0
 145 215 257 293 290 347 c 0
 312 384 310 433 357 433 c 0
 377 433 389 416 389 396 c 0
 389 337 235 260 235 254 c 0
 235 249 261 207 285 164 c 0
 312 116 336 67 353 67 c 0
 388 67 410 123 423 123 c 0
 430 123 432 114 432 105 c 0
 432 68 372 -3 335 -3 c 0
 278 -3 211 218 179 218 c 0
 177 218 166 211 155 205 c 0
 112 181 118 190 114 160 c 2
 96 29 l 2
 93 3 77 -1 62 -1 c 0
 51 -1 29 3 29 23 c 0
 29 50 48 152 56 206 c 2
 70 301 l 2
 72 314 74 328 76 338 c 0
 82 366 84 384 84 385 c 0
 84 394 79 404 61 404 c 0
 40 404 28 406 20 406 c 0
 14 406 5 408 5 418 c 0
 5 423 7 433 20 433 c 0
 102 436 116 448 142 448 c 0
 149 448 160 444 160 433 c 0
 160 429 156 405 153 387 c 2
 130 262 l 2
EndSplineSet
EndChar
StartChar: Lcommaaccent
Encoding: 315 315 373
Width: 589
Flags: MW
LayerCount: 2
Back
Fore
SplineSet
233 -79 m 1
 233 -79 267 -46 281 -46 c 0
 285 -46 331 -61 331 -105 c 0
 331 -170 263 -199 250 -199 c 0
 247 -199 245 -197 245 -195 c 0
 245 -187 285 -180 285 -139 c 0
 285 -94 233 -96 233 -79 c 1
25 10 m 0
 25 32 52 19 78 42 c 0
 106 67 94 66 138 377 c 0
 152 477 167 595 167 632 c 0
 167 670 145 686 106 687 c 0
 89 687 77 697 77 707 c 0
 77 712 80 719 93 719 c 0
 103 719 129 711 207 711 c 0
 261 711 280 715 298 715 c 0
 311 715 319 710 319 702 c 0
 319 677 257 701 246 627 c 0
 242 598 175 111 175 93 c 0
 175 49 184 38 284 38 c 0
 567 38 543 137 572 137 c 0
 577 137 584 135 584 122 c 0
 584 90 538 25 528 16 c 0
 503 -6 489 -8 467 -8 c 2
 420 -8 l 2
 333 -8 234 3 174 3 c 0
 119 3 97 -3 48 -3 c 0
 30 -3 25 4 25 10 c 0
EndSplineSet
EndChar
StartChar: Lcaron
Encoding: 317 317 298
Width: 589
Flags: MW
LayerCount: 2
Back
Fore
SplineSet
385 717 m 1
 385 717 419 749 433 749 c 0
 437 749 482 734 482 690 c 0
 482 625 415 597 402 597 c 0
 399 597 396 599 396 601 c 0
 396 609 437 616 437 657 c 0
 437 702 385 700 385 717 c 1
25 10 m 0
 25 32 52 19 78 42 c 0
 106 67 94 66 138 377 c 0
 152 477 167 595 167 632 c 0
 167 670 145 686 106 687 c 0
 89 687 77 697 77 707 c 0
 77 712 80 719 93 719 c 0
 103 719 129 711 207 711 c 0
 261 711 280 715 298 715 c 0
 311 715 319 710 319 702 c 0
 319 677 257 701 246 627 c 0
 242 598 175 111 175 93 c 0
 175 49 184 38 284 38 c 0
 567 38 543 137 572 137 c 0
 577 137 584 135 584 122 c 0
 584 90 538 25 528 16 c 0
 503 -6 489 -8 467 -8 c 2
 420 -8 l 2
 333 -8 234 3 174 3 c 0
 119 3 97 -3 48 -3 c 0
 30 -3 25 4 25 10 c 0
EndSplineSet
EndChar
StartChar: ldot
Encoding: 320 320 361
Width: 532
Flags: MW
LayerCount: 2
Back
Fore
SplineSet
335 332 m 0
 335 341 366 384 384 384 c 0
 404 384 423 349 423 331 c 0
 423 311 388 278 379 278 c 0
 361 278 335 322 335 332 c 0
46 86 m 0
 46 143 72 261 74 277 c 0
 83 340 88 411 98 475 c 0
 115 583 130 673 130 685 c 0
 130 697 120 705 105 705 c 0
 90 705 88 704 76 704 c 0
 56 704 47 707 47 718 c 0
 47 723 49 731 62 732 c 0
 135 737 157 747 183 747 c 0
 199 747 204 741 204 731 c 0
 204 717 197 704 194 685 c 0
 157 491 174 528 142 313 c 0
 125 195 113 132 113 98 c 0
 113 64 116 59 129 59 c 0
 184 59 194 130 220 130 c 0
 227 130 232 124 232 114 c 0
 232 104 206 70 182 42 c 0
 156 12 114 -8 95 -8 c 0
 75 -8 46 -8 46 86 c 0
EndSplineSet
EndChar
StartChar: Lslash
Encoding: 321 321 132
Width: 584
Flags: MW
LayerCount: 2
Back
Fore
SplineSet
20 10 m 0
 20 32 47 19 73 42 c 0
 96 63 92 63 120 283 c 0
 120 284 121 291 121 292 c 0
 121 296 117 297 115 297 c 0
 114 297 111 296 109 295 c 2
 59 277 l 2
 56 276 52 275 49 275 c 0
 42 275 37 279 37 294 c 0
 37 306 41 316 45 318 c 2
 117 343 l 2
 129 347 130 355 131 367 c 0
 145 467 162 595 162 632 c 0
 162 670 140 686 101 687 c 0
 84 687 72 697 72 707 c 0
 72 712 75 719 88 719 c 0
 98 719 124 711 202 711 c 0
 256 711 275 715 293 715 c 0
 306 715 314 710 314 702 c 0
 314 677 252 701 241 627 c 0
 241 626 208 389 208 384 c 0
 208 380 210 379 212 379 c 0
 214 379 216 380 220 381 c 2
 430 461 l 2
 434 463 443 467 449 467 c 0
 455 467 459 464 459 454 c 0
 459 425 450 422 433 416 c 2
 215 334 l 2
 204 330 200 326 198 312 c 0
 183 196 170 101 170 93 c 0
 170 49 179 38 279 38 c 0
 562 38 538 137 567 137 c 0
 572 137 579 135 579 122 c 0
 579 90 533 25 523 16 c 0
 498 -6 484 -8 462 -8 c 2
 415 -8 l 2
 328 -8 229 3 169 3 c 0
 114 3 92 -3 43 -3 c 0
 25 -3 20 4 20 10 c 0
EndSplineSet
EndChar
StartChar: lslash
Encoding: 322 322 138
Width: 261
Flags: MW
LayerCount: 2
Back
Fore
SplineSet
6 331 m 0
 6 352 13 356 16 357 c 2
 78 385 l 2
 87 389 88 395 89 406 c 0
 101 512 130 666 130 685 c 0
 130 697 120 705 105 705 c 0
 90 705 88 704 76 704 c 0
 56 704 47 707 47 718 c 0
 47 723 49 731 62 732 c 0
 135 737 157 747 183 747 c 0
 199 747 204 741 204 731 c 0
 204 719 177 617 160 452 c 0
 159 442 158 435 158 431 c 0
 158 427 159 426 161 426 c 0
 163 426 167 429 174 432 c 2
 191 440 l 2
 209 449 228 458 232 458 c 0
 238 458 243 458 243 440 c 0
 243 413 229 410 216 404 c 2
 165 380 l 2
 146 371 150 375 138 291 c 0
 123 187 113 130 113 98 c 0
 113 64 116 59 129 59 c 0
 184 59 194 130 220 130 c 0
 227 130 232 124 232 114 c 0
 232 104 206 70 182 42 c 0
 156 12 114 -8 95 -8 c 0
 75 -8 46 -8 46 86 c 0
 46 157 81 323 81 334 c 0
 81 337 80 339 79 339 c 0
 76 339 18 311 15 311 c 0
 8 311 6 322 6 331 c 0
EndSplineSet
EndChar
StartChar: nacute
Encoding: 324 324 332
Width: 526
Flags: MW
LayerCount: 2
Back
Fore
SplineSet
264 490 m 0
 264 503 287 511 355 642 c 0
 363 658 372 660 375 660 c 0
 383 660 422 653 422 637 c 0
 422 614 287 482 272 482 c 0
 267 482 264 486 264 490 c 0
24 321 m 0
 24 360 84 435 122 435 c 0
 180 435 159 330 168 330 c 0
 174 330 181 352 218 380 c 0
 245 401 298 437 340 437 c 0
 410 437 424 375 424 312 c 0
 424 242 407 136 407 102 c 0
 407 74 415 66 426 66 c 0
 443 66 466 88 466 88 c 1
 478 103 482 115 497 115 c 0
 504 115 506 109 506 103 c 0
 506 64 418 -6 374 -6 c 0
 354 -6 337 22 337 57 c 0
 337 133 358 267 358 304 c 0
 358 320 353 386 288 386 c 0
 265 386 246 375 223 342 c 0
 180 281 192 290 168 161 c 0
 143 26 150 38 148 24 c 0
 145 2 137 -2 111 -2 c 0
 84 -2 76 0 76 29 c 0
 76 71 120 226 120 303 c 0
 120 338 107 358 97 358 c 0
 66 358 55 302 33 302 c 0
 26 302 24 310 24 321 c 0
EndSplineSet
EndChar
StartChar: Ncaron
Encoding: 327 327 319
Width: 804
Flags: MW
LayerCount: 2
Back
Fore
SplineSet
331 904 m 0
 331 909 334 910 338 910 c 2
 340 910 l 2
 352 910 424 825 434 825 c 0
 440 825 455 837 488 866 c 0
 520 894 529 909 543 909 c 0
 546 909 550 909 550 904 c 0
 550 903 550 900 548 897 c 0
 449 772 457 758 442 758 c 2
 416 758 l 2
 411 758 406 758 402 768 c 0
 371 835 331 893 331 904 c 0
20 6 m 0
 20 22 43 15 62 32 c 0
 101 65 102 117 129 292 c 0
 141 369 166 503 166 571 c 0
 166 624 144 636 117 661 c 0
 88 688 28 661 28 691 c 0
 28 703 53 710 95 710 c 0
 108 710 123 707 137 707 c 0
 142 707 159 708 167 708 c 0
 190 708 190 702 216 666 c 0
 587 153 575 127 591 127 c 0
 621 127 669 611 669 616 c 0
 669 700 588 664 588 702 c 0
 588 710 597 712 613 712 c 0
 625 712 662 708 689 708 c 0
 731 708 740 712 759 712 c 0
 780 712 785 709 785 698 c 0
 785 689 768 687 755 683 c 0
 716 671 705 615 696 538 c 0
 660 232 624 48 618 21 c 0
 617 15 610 -6 597 -6 c 0
 574 -6 546 72 395 290 c 0
 275 463 243 502 232 524 c 0
 227 534 218 536 216 536 c 0
 209 536 201 530 197 489 c 0
 174 266 144 162 144 79 c 0
 144 44 164 34 183 28 c 0
 203 22 224 21 224 7 c 0
 224 -4 213 -5 207 -5 c 0
 181 -5 197 -2 107 -2 c 0
 72 -2 55 -5 42 -5 c 0
 21 -5 20 2 20 6 c 0
EndSplineSet
EndChar
StartChar: ncaron
Encoding: 328 328 333
Width: 526
Flags: MW
LayerCount: 2
Back
Fore
SplineSet
205 640 m 0
 205 645 208 646 212 646 c 2
 214 646 l 2
 226 646 298 561 308 561 c 0
 314 561 329 573 362 602 c 0
 394 630 403 645 417 645 c 0
 420 645 424 645 424 640 c 0
 424 639 424 636 422 633 c 0
 323 508 331 494 316 494 c 2
 290 494 l 2
 285 494 280 494 276 504 c 0
 245 571 205 629 205 640 c 0
24 321 m 0
 24 360 84 435 122 435 c 0
 180 435 159 330 168 330 c 0
 174 330 181 352 218 380 c 0
 245 401 298 437 340 437 c 0
 410 437 424 375 424 312 c 0
 424 242 407 136 407 102 c 0
 407 74 415 66 426 66 c 0
 443 66 466 88 466 88 c 1
 478 103 482 115 497 115 c 0
 504 115 506 109 506 103 c 0
 506 64 418 -6 374 -6 c 0
 354 -6 337 22 337 57 c 0
 337 133 358 267 358 304 c 0
 358 320 353 386 288 386 c 0
 265 386 246 375 223 342 c 0
 180 281 192 290 168 161 c 0
 143 26 150 38 148 24 c 0
 145 2 137 -2 111 -2 c 0
 84 -2 76 0 76 29 c 0
 76 71 120 226 120 303 c 0
 120 338 107 358 97 358 c 0
 66 358 55 302 33 302 c 0
 26 302 24 310 24 321 c 0
EndSplineSet
EndChar
StartChar: napostrophe
Encoding: 329 329 362
Width: 736
Flags: MW
LayerCount: 2
Back
Fore
SplineSet
234 321 m 0
 234 360 294 435 332 435 c 0
 390 435 369 330 378 330 c 0
 384 330 391 352 428 380 c 0
 455 401 508 437 550 437 c 0
 620 437 634 375 634 312 c 0
 634 242 617 136 617 102 c 0
 617 74 625 66 636 66 c 0
 653 66 676 88 676 88 c 1
 688 103 692 115 707 115 c 0
 714 115 716 109 716 103 c 0
 716 64 628 -6 584 -6 c 0
 564 -6 547 22 547 57 c 0
 547 133 568 267 568 304 c 0
 568 320 563 386 498 386 c 0
 475 386 456 375 433 342 c 0
 390 281 402 290 378 161 c 0
 353 26 360 38 358 24 c 0
 355 2 347 -2 321 -2 c 0
 294 -2 286 0 286 29 c 0
 286 71 330 226 330 303 c 0
 330 338 317 358 307 358 c 0
 276 358 265 302 243 302 c 0
 236 302 234 310 234 321 c 0
36 439 m 0
 36 462 73 459 95 517 c 0
 100 529 107 544 107 562 c 0
 107 621 56 623 56 650 c 0
 56 659 92 708 113 708 c 0
 121 708 166 687 166 605 c 0
 166 498 68 427 48 427 c 0
 38 427 36 434 36 439 c 0
EndSplineSet
EndChar
StartChar: Omacron
Encoding: 332 332 240
Width: 815
Flags: MW
LayerCount: 2
Back
Fore
SplineSet
339 845 m 0
 339 857 345 872 359 872 c 0
 499 872 452 870 539 870 c 0
 549 870 552 869 552 856 c 0
 552 840 549 827 535 827 c 0
 517 827 383 828 347 828 c 0
 342 828 339 836 339 845 c 0
39 314 m 0
 39 509 181 716 434 716 c 0
 670 716 776 550 776 376 c 0
 776 192 655 -20 394 -20 c 0
 180 -20 39 114 39 314 c 0
125 347 m 0
 125 130 262 16 401 16 c 0
 584 16 688 204 688 380 c 0
 688 429 684 478 667 521 c 0
 630 616 547 686 420 686 c 0
 222 686 125 491 125 347 c 0
EndSplineSet
EndChar
StartChar: omacron
Encoding: 333 333 235
Width: 446
Flags: MW
LayerCount: 2
Back
Fore
SplineSet
168 581 m 0
 168 593 174 608 188 608 c 0
 328 608 281 606 368 606 c 0
 378 606 381 605 381 592 c 0
 381 576 378 563 364 563 c 0
 346 563 212 564 176 564 c 0
 171 564 168 572 168 581 c 0
32 169 m 0
 32 293 116 435 268 435 c 0
 368 435 414 352 414 258 c 0
 414 133 332 -10 185 -10 c 0
 103 -10 32 47 32 169 c 0
109 168 m 0
 109 67 149 20 196 20 c 0
 303 20 340 187 340 270 c 0
 340 364 300 405 254 405 c 0
 206 405 152 361 129 280 c 0
 119 245 109 209 109 168 c 0
EndSplineSet
EndChar
StartChar: Ohungarumlaut
Encoding: 336 336 320
Width: 815
Flags: MW
LayerCount: 2
Back
Fore
SplineSet
335 754 m 0
 335 767 357 775 426 906 c 0
 434 922 443 924 446 924 c 0
 454 924 493 917 493 901 c 0
 493 877 357 746 343 746 c 0
 338 746 335 750 335 754 c 0
488 754 m 0
 488 767 511 775 580 906 c 0
 588 922 597 924 600 924 c 0
 608 924 647 917 647 901 c 0
 647 877 511 746 497 746 c 0
 492 746 488 750 488 754 c 0
39 314 m 0
 39 509 181 716 434 716 c 0
 670 716 776 550 776 376 c 0
 776 192 655 -20 394 -20 c 0
 180 -20 39 114 39 314 c 0
125 347 m 0
 125 130 262 16 401 16 c 0
 584 16 688 204 688 380 c 0
 688 429 684 478 667 521 c 0
 630 616 547 686 420 686 c 0
 222 686 125 491 125 347 c 0
EndSplineSet
EndChar
StartChar: ohungarumlaut
Encoding: 337 337 334
Width: 446
Flags: MW
LayerCount: 2
Back
Fore
SplineSet
164 490 m 0
 164 503 186 511 255 642 c 0
 263 658 272 660 275 660 c 0
 283 660 322 653 322 637 c 0
 322 613 186 482 172 482 c 0
 167 482 164 486 164 490 c 0
317 490 m 0
 317 503 340 511 409 642 c 0
 417 658 426 660 429 660 c 0
 437 660 476 653 476 637 c 0
 476 613 340 482 326 482 c 0
 321 482 317 486 317 490 c 0
32 169 m 0
 32 293 116 435 268 435 c 0
 368 435 414 352 414 258 c 0
 414 133 332 -10 185 -10 c 0
 103 -10 32 47 32 169 c 0
109 168 m 0
 109 67 149 20 196 20 c 0
 303 20 340 187 340 270 c 0
 340 364 300 405 254 405 c 0
 206 405 152 361 129 280 c 0
 119 245 109 209 109 168 c 0
EndSplineSet
EndChar
StartChar: OE
Encoding: 338 338 134
Width: 1047
Flags: MW
LayerCount: 2
Back
Fore
SplineSet
39 314 m 0
 39 509 181 716 434 716 c 0
 515 716 433 703 784 703 c 0
 824 703 985 708 1015 708 c 0
 1022 708 1032 705 1032 688 c 0
 1032 675 1029 659 1029 636 c 0
 1029 620 1032 603 1032 582 c 0
 1032 570 1027 553 1019 553 c 0
 992 553 1017 593 985 630 c 0
 980 636 947 660 879 661 c 0
 799 662 782 664 725 664 c 0
 663 664 664 657 654 597 c 0
 650 569 630 407 630 394 c 0
 630 381 633 379 673 379 c 0
 854 379 860 384 876 404 c 0
 900 434 897 456 910 456 c 0
 919 456 922 452 922 444 c 0
 922 426 909 380 903 340 c 0
 898 305 905 241 884 241 c 0
 875 241 874 249 874 258 c 0
 874 277 873 306 856 318 c 0
 837 332 802 339 750 339 c 0
 663 339 675 340 664 340 c 0
 643 340 627 338 626 322 c 0
 618 251 590 91 590 74 c 0
 590 59 596 50 611 45 c 0
 629 39 662 38 716 38 c 0
 965 38 972 136 998 136 c 0
 1003 136 1008 133 1008 123 c 0
 1008 91 937 -10 891 -10 c 0
 763 -10 644 0 583 0 c 0
 468 0 500 -20 394 -20 c 0
 180 -20 39 114 39 314 c 0
125 347 m 0
 125 130 262 16 401 16 c 0
 514 16 508 55 526 161 c 0
 531 195 540 240 547 294 c 2
 583 597 l 2
 584 606 584 612 584 617 c 0
 584 671 448 686 420 686 c 0
 222 686 125 491 125 347 c 0
EndSplineSet
EndChar
StartChar: oe
Encoding: 339 339 140
Width: 701
Flags: MW
LayerCount: 2
Back
Fore
SplineSet
32 169 m 0
 32 293 116 435 268 435 c 0
 376 435 397 340 401 340 c 0
 413 340 456 436 583 436 c 0
 630 436 669 406 669 362 c 0
 669 290 592 249 573 241 c 0
 564 237 510 215 416 214 c 0
 402 214 398 199 398 173 c 0
 398 98 443 48 542 48 c 0
 599 48 639 91 650 91 c 0
 658 91 663 87 663 81 c 0
 663 58 576 -12 489 -12 c 0
 361 -12 348 62 345 62 c 0
 342 62 290 -13 186 -13 c 0
 104 -13 32 47 32 169 c 0
109 168 m 0
 109 67 149 20 196 20 c 0
 303 20 340 187 340 270 c 0
 340 364 300 405 254 405 c 0
 206 405 152 361 129 280 c 0
 119 245 109 209 109 168 c 0
413 251 m 0
 413 244 414 231 421 231 c 0
 518 231 600 296 600 359 c 0
 600 397 564 406 547 406 c 0
 522 406 491 386 465 359 c 0
 435 328 413 264 413 251 c 0
EndSplineSet
EndChar
StartChar: Rcaron
Encoding: 344 344 321
Width: 637
Flags: MW
LayerCount: 2
Back
Fore
SplineSet
235 904 m 0
 235 909 238 910 242 910 c 2
 244 910 l 2
 256 910 328 825 338 825 c 0
 344 825 359 837 392 866 c 0
 424 894 433 909 447 909 c 0
 450 909 454 909 454 904 c 0
 454 903 454 900 452 897 c 0
 353 772 361 758 346 758 c 2
 320 758 l 2
 315 758 310 758 306 768 c 0
 275 835 235 893 235 904 c 0
20 9 m 0
 20 32 45 25 72 40 c 0
 97 54 90 60 133 428 c 0
 141 493 158 611 158 624 c 0
 158 665 123 676 96 678 c 0
 78 679 64 680 64 690 c 0
 64 705 73 708 94 708 c 0
 115 708 150 702 175 702 c 0
 231 702 260 710 340 710 c 0
 364 710 386 710 407 708 c 0
 501 700 555 632 555 557 c 0
 555 485 506 407 396 369 c 0
 389 367 387 360 387 358 c 0
 387 338 479 123 516 74 c 0
 543 37 565 26 598 26 c 0
 608 26 617 22 617 15 c 0
 617 6 602 -8 547 -8 c 0
 466 -8 451 9 412 96 c 0
 341 255 322 350 296 350 c 0
 290 350 256 349 250 349 c 0
 235 349 226 350 215 350 c 0
 200 350 196 333 189 262 c 2
 175 121 l 2
 175 115 172 91 172 86 c 0
 172 18 261 37 261 10 c 0
 261 0 246 -3 227 -3 c 0
 199 -3 163 3 152 3 c 0
 104 3 58 -6 47 -6 c 0
 37 -6 20 -2 20 9 c 0
208 412 m 0
 208 389 224 386 239 386 c 2
 253 386 l 2
 338 386 355 389 373 393 c 0
 447 410 468 503 468 546 c 0
 468 610 421 676 325 676 c 0
 273 676 237 669 233 614 c 0
 226 514 208 426 208 412 c 0
EndSplineSet
EndChar
StartChar: rcaron
Encoding: 345 345 335
Width: 352
Flags: MW
LayerCount: 2
Back
Fore
SplineSet
109 640 m 0
 109 645 112 646 116 646 c 2
 118 646 l 2
 130 646 202 561 212 561 c 0
 218 561 233 573 266 602 c 0
 298 630 307 645 321 645 c 0
 324 645 328 645 328 640 c 0
 328 639 328 636 326 633 c 0
 227 508 235 494 220 494 c 2
 194 494 l 2
 189 494 184 494 180 504 c 0
 149 571 109 629 109 640 c 0
15 296 m 0
 15 410 100 434 109 434 c 0
 130 434 140 415 146 399 c 0
 171 334 172 333 174 333 c 0
 181 333 231 436 305 436 c 0
 331 436 342 419 342 405 c 0
 342 392 334 379 331 368 c 0
 329 361 327 330 309 330 c 0
 287 330 291 372 255 372 c 0
 210 372 185 241 180 199 c 2
 175 166 l 2
 153 -4 155 -4 119 -4 c 2
 114 -4 l 2
 104 -4 84 -2 84 22 c 0
 84 62 127 209 127 284 c 0
 127 334 111 352 93 352 c 0
 52 352 44 292 38 285 c 0
 35 282 32 279 27 279 c 0
 23 279 15 282 15 296 c 0
EndSplineSet
EndChar
StartChar: scircumflex
Encoding: 349 349 348
Width: 333
Flags: MW
LayerCount: 2
Back
Fore
SplineSet
95 499 m 0
 95 500 97 503 99 506 c 0
 198 631 190 646 205 646 c 2
 231 646 l 2
 236 646 241 646 245 636 c 0
 278 564 316 510 316 500 c 0
 316 497 314 494 308 494 c 0
 294 494 222 579 213 579 c 0
 198 579 114 495 102 495 c 0
 101 495 95 496 95 499 c 0
15 54 m 0
 15 85 35 90 47 90 c 0
 98 90 81 21 142 21 c 0
 215 21 222 73 222 85 c 0
 222 132 189 161 153 197 c 0
 113 238 75 264 75 324 c 0
 75 391 133 437 211 437 c 0
 265 437 304 424 304 385 c 0
 304 354 271 351 266 351 c 0
 230 351 226 407 187 407 c 0
 149 407 134 384 134 354 c 0
 134 316 189 275 213 249 c 0
 244 214 282 186 282 119 c 0
 282 83 254 -12 126 -12 c 0
 87 -12 15 1 15 54 c 0
EndSplineSet
EndChar
StartChar: Scedilla
Encoding: 350 350 300
Width: 481
Flags: MW
LayerCount: 2
Back
Fore
SplineSet
171 -79 m 1
 171 -79 205 -46 219 -46 c 0
 223 -46 269 -61 269 -105 c 0
 269 -170 201 -199 188 -199 c 0
 185 -199 183 -197 183 -195 c 0
 183 -187 223 -180 223 -139 c 0
 223 -94 171 -96 171 -79 c 1
20 134 m 0
 20 139 22 157 36 157 c 0
 42 157 45 152 47 146 c 0
 66 85 120 22 224 22 c 0
 345 22 366 99 366 133 c 0
 366 181 339 217 295 262 c 2
 178 378 l 2
 138 419 83 483 83 555 c 0
 83 638 118 667 149 688 c 0
 172 704 207 716 251 716 c 0
 311 716 379 681 397 681 c 0
 401 681 419 697 428 697 c 0
 434 697 441 693 441 676 c 0
 441 665 440 654 440 641 c 2
 440 624 l 2
 440 598 452 551 452 538 c 0
 452 525 442 518 436 518 c 0
 409 518 429 569 362 634 c 0
 328 667 289 682 243 682 c 0
 162 682 151 623 151 593 c 0
 151 495 253 433 345 337 c 0
 397 283 436 241 436 158 c 0
 436 100 391 -14 201 -14 c 0
 157 -14 90 -11 57 8 c 0
 37 19 20 102 20 134 c 0
EndSplineSet
EndChar
StartChar: scedilla
Encoding: 351 351 307
Width: 333
Flags: MW
LayerCount: 2
Back
Fore
SplineSet
86 -79 m 1
 86 -79 120 -46 134 -46 c 0
 138 -46 184 -61 184 -105 c 0
 184 -170 116 -199 103 -199 c 0
 100 -199 98 -197 98 -195 c 0
 98 -187 138 -180 138 -139 c 0
 138 -94 86 -96 86 -79 c 1
15 54 m 0
 15 85 35 90 47 90 c 0
 98 90 81 21 142 21 c 0
 215 21 222 73 222 85 c 0
 222 132 189 161 153 197 c 0
 113 238 75 264 75 324 c 0
 75 391 133 437 211 437 c 0
 265 437 304 424 304 385 c 0
 304 354 271 351 266 351 c 0
 230 351 226 407 187 407 c 0
 149 407 134 384 134 354 c 0
 134 316 189 275 213 249 c 0
 244 214 282 186 282 119 c 0
 282 83 254 -12 126 -12 c 0
 87 -12 15 1 15 54 c 0
EndSplineSet
EndChar
StartChar: Scaron
Encoding: 352 352 217
Width: 481
Flags: MW
LayerCount: 2
Back
Fore
SplineSet
176 904 m 0
 176 909 179 910 183 910 c 2
 185 910 l 2
 197 910 269 825 279 825 c 0
 285 825 300 837 333 866 c 0
 365 894 374 909 388 909 c 0
 391 909 395 909 395 904 c 0
 395 903 395 900 393 897 c 0
 294 772 302 758 287 758 c 2
 261 758 l 2
 256 758 251 758 247 768 c 0
 216 835 176 893 176 904 c 0
20 134 m 0
 20 139 22 157 36 157 c 0
 42 157 45 152 47 146 c 0
 66 85 120 22 224 22 c 0
 345 22 366 99 366 133 c 0
 366 181 339 217 295 262 c 2
 178 378 l 2
 138 419 83 483 83 555 c 0
 83 638 118 667 149 688 c 0
 172 704 207 716 251 716 c 0
 311 716 379 681 397 681 c 0
 401 681 419 697 428 697 c 0
 434 697 441 693 441 676 c 0
 441 665 440 654 440 641 c 2
 440 624 l 2
 440 598 452 551 452 538 c 0
 452 525 442 518 436 518 c 0
 409 518 429 569 362 634 c 0
 328 667 289 682 243 682 c 0
 162 682 151 623 151 593 c 0
 151 495 253 433 345 337 c 0
 397 283 436 241 436 158 c 0
 436 100 391 -14 201 -14 c 0
 157 -14 90 -11 57 8 c 0
 37 19 20 102 20 134 c 0
EndSplineSet
EndChar
StartChar: scaron
Encoding: 353 353 220
Width: 333
Flags: MW
LayerCount: 2
Back
Fore
SplineSet
109 640 m 0
 109 645 112 646 116 646 c 2
 118 646 l 2
 130 646 202 561 212 561 c 0
 218 561 233 573 266 602 c 0
 298 630 307 645 321 645 c 0
 324 645 328 645 328 640 c 0
 328 639 328 636 326 633 c 0
 227 508 235 494 220 494 c 2
 194 494 l 2
 189 494 184 494 180 504 c 0
 149 571 109 629 109 640 c 0
15 54 m 0
 15 85 35 90 47 90 c 0
 98 90 81 21 142 21 c 0
 215 21 222 73 222 85 c 0
 222 132 189 161 153 197 c 0
 113 238 75 264 75 324 c 0
 75 391 133 437 211 437 c 0
 265 437 304 424 304 385 c 0
 304 354 271 351 266 351 c 0
 230 351 226 407 187 407 c 0
 149 407 134 384 134 354 c 0
 134 316 189 275 213 249 c 0
 244 214 282 186 282 119 c 0
 282 83 254 -12 126 -12 c 0
 87 -12 15 1 15 54 c 0
EndSplineSet
EndChar
StartChar: Tcedilla
Encoding: 354 354 323
Width: 692
Flags: MW
LayerCount: 2
Back
Fore
SplineSet
236 -79 m 1
 236 -79 270 -46 284 -46 c 0
 288 -46 334 -61 334 -105 c 0
 334 -170 266 -199 253 -199 c 0
 250 -199 248 -197 248 -195 c 0
 248 -187 288 -180 288 -139 c 0
 288 -94 236 -96 236 -79 c 1
29 573 m 0
 29 604 41 602 61 680 c 0
 67 702 77 706 107 706 c 0
 177 706 144 703 365 703 c 0
 535 703 612 707 646 707 c 0
 674 707 674 696 674 687 c 0
 674 629 678 595 678 576 c 0
 678 555 668 553 659 553 c 0
 643 553 652 562 632 617 c 0
 621 648 607 650 483 650 c 2
 438 650 l 2
 400 650 406 643 395 538 c 0
 372 317 342 137 342 86 c 0
 342 5 428 45 428 13 c 0
 428 1 419 -2 403 -2 c 0
 383 -2 340 4 296 4 c 0
 264 4 228 -1 210 -1 c 0
 193 -1 178 2 178 13 c 0
 178 29 192 28 209 30 c 0
 224 32 239 35 250 52 c 0
 257 63 259 78 261 93 c 0
 275 198 330 628 330 638 c 0
 330 654 314 654 259 654 c 0
 120 654 108 643 87 620 c 0
 56 584 67 551 42 551 c 0
 32 551 29 562 29 573 c 0
EndSplineSet
EndChar
StartChar: tcedilla
Encoding: 355 355 337
Width: 299
Flags: MW
LayerCount: 2
Back
Fore
SplineSet
57 -79 m 1
 57 -79 91 -46 105 -46 c 0
 109 -46 155 -61 155 -105 c 0
 155 -170 87 -199 74 -199 c 0
 71 -199 69 -197 69 -195 c 0
 69 -187 109 -180 109 -139 c 0
 109 -94 57 -96 57 -79 c 1
29 390 m 0
 29 410 67 409 111 455 c 0
 151 497 153 510 169 510 c 0
 174 510 179 507 179 498 c 0
 179 485 161 438 161 423 c 0
 161 417 163 416 196 416 c 0
 235 416 243 417 254 417 c 0
 275 417 280 410 280 398 c 0
 280 375 274 369 256 369 c 0
 240 369 197 374 175 374 c 0
 146 374 149 356 143 315 c 0
 134 253 111 123 111 107 c 0
 111 54 148 52 152 52 c 0
 207 52 230 96 246 96 c 0
 249 96 257 96 257 82 c 0
 257 56 172 -12 110 -12 c 0
 83 -12 46 4 46 82 c 0
 46 174 88 336 88 363 c 0
 88 384 29 362 29 390 c 0
EndSplineSet
EndChar
StartChar: Tcaron
Encoding: 356 356 301
Width: 692
Flags: MW
LayerCount: 2
Back
Fore
SplineSet
282 904 m 0
 282 909 285 910 289 910 c 2
 291 910 l 2
 303 910 375 825 385 825 c 0
 391 825 406 837 439 866 c 0
 471 894 480 909 494 909 c 0
 497 909 501 909 501 904 c 0
 501 903 501 900 499 897 c 0
 400 772 408 758 393 758 c 2
 367 758 l 2
 362 758 357 758 353 768 c 0
 322 835 282 893 282 904 c 0
29 573 m 0
 29 604 41 602 61 680 c 0
 67 702 77 706 107 706 c 0
 177 706 144 703 365 703 c 0
 535 703 612 707 646 707 c 0
 674 707 674 696 674 687 c 0
 674 629 678 595 678 576 c 0
 678 555 668 553 659 553 c 0
 643 553 652 562 632 617 c 0
 621 648 607 650 483 650 c 2
 438 650 l 2
 400 650 406 643 395 538 c 0
 372 317 342 137 342 86 c 0
 342 5 428 45 428 13 c 0
 428 1 419 -2 403 -2 c 0
 383 -2 340 4 296 4 c 0
 264 4 228 -1 210 -1 c 0
 193 -1 178 2 178 13 c 0
 178 29 192 28 209 30 c 0
 224 32 239 35 250 52 c 0
 257 63 259 78 261 93 c 0
 275 198 330 628 330 638 c 0
 330 654 314 654 259 654 c 0
 120 654 108 643 87 620 c 0
 56 584 67 551 42 551 c 0
 32 551 29 562 29 573 c 0
EndSplineSet
EndChar
StartChar: tcaron
Encoding: 357 357 308
Width: 299
Flags: MW
LayerCount: 2
Back
Fore
SplineSet
209 634 m 1
 209 634 243 666 257 666 c 0
 261 666 306 651 306 607 c 0
 306 542 239 514 226 514 c 0
 223 514 220 516 220 518 c 0
 220 526 261 533 261 574 c 0
 261 619 209 617 209 634 c 1
29 390 m 0
 29 410 67 409 111 455 c 0
 151 497 153 510 169 510 c 0
 174 510 179 507 179 498 c 0
 179 485 161 438 161 423 c 0
 161 417 163 416 196 416 c 0
 235 416 243 417 254 417 c 0
 275 417 280 410 280 398 c 0
 280 375 274 369 256 369 c 0
 240 369 197 374 175 374 c 0
 146 374 149 356 143 315 c 0
 134 253 111 123 111 107 c 0
 111 54 148 52 152 52 c 0
 207 52 230 96 246 96 c 0
 249 96 257 96 257 82 c 0
 257 56 172 -12 110 -12 c 0
 83 -12 46 4 46 82 c 0
 46 174 88 336 88 363 c 0
 88 384 29 362 29 390 c 0
EndSplineSet
EndChar
StartChar: Tbar
Encoding: 358 358 358
Width: 692
Flags: MW
LayerCount: 2
Back
Fore
SplineSet
29 573 m 0
 29 604 41 602 61 680 c 0
 67 702 77 706 107 706 c 0
 177 706 144 703 365 703 c 0
 535 703 612 707 646 707 c 0
 674 707 674 696 674 687 c 0
 674 629 678 595 678 576 c 0
 678 555 668 553 659 553 c 0
 643 553 652 562 632 617 c 0
 621 648 607 650 483 650 c 2
 438 650 l 2
 396 650 407 643 384 445 c 0
 380 409 379 405 379 401 c 0
 379 393 381 387 390 387 c 2
 566 387 l 2
 576 387 579 379 579 370 c 0
 579 358 573 343 568 343 c 0
 553 343 466 344 390 344 c 0
 372 344 370 338 369 324 c 0
 354 207 342 119 342 86 c 0
 342 5 428 45 428 13 c 0
 428 1 419 -2 403 -2 c 0
 383 -2 340 4 296 4 c 0
 264 4 228 -1 210 -1 c 0
 193 -1 178 2 178 13 c 0
 178 42 226 15 250 52 c 0
 257 63 259 78 261 93 c 0
 291 330 292 333 292 335 c 0
 292 343 289 345 276 345 c 0
 189 345 141 342 102 342 c 0
 100 342 96 348 96 355 c 0
 96 378 102 386 108 386 c 0
 128 386 140 387 189 387 c 2
 281 387 l 2
 301 387 301 403 302 415 c 0
 317 531 330 633 330 638 c 0
 330 654 314 654 259 654 c 0
 120 654 108 643 87 620 c 0
 56 584 67 551 42 551 c 0
 32 551 29 562 29 573 c 0
EndSplineSet
EndChar
StartChar: tbar
Encoding: 359 359 363
Width: 299
Flags: MW
LayerCount: 2
Back
Fore
SplineSet
15 229 m 0
 15 241 21 256 26 256 c 2
 61 256 l 2
 71 256 71 263 73 275 c 0
 81 317 88 352 88 363 c 0
 88 384 29 362 29 390 c 0
 29 410 67 409 111 455 c 0
 151 497 153 510 169 510 c 0
 174 510 179 507 179 498 c 0
 179 485 161 438 161 423 c 0
 161 417 163 416 196 416 c 0
 235 416 243 417 254 417 c 0
 275 417 280 410 280 398 c 0
 280 375 274 369 256 369 c 0
 240 369 197 374 175 374 c 0
 146 374 149 356 143 315 c 0
 140 298 135 267 135 265 c 0
 135 258 138 255 148 255 c 0
 253 255 208 257 250 257 c 0
 256 257 260 251 260 244 c 0
 260 216 248 213 237 213 c 2
 141 213 l 1
 134 213 l 2
 130 213 126 212 125 206 c 0
 117 157 111 116 111 107 c 0
 111 54 148 52 152 52 c 0
 207 52 230 96 246 96 c 0
 249 96 257 96 257 82 c 0
 257 56 172 -12 110 -12 c 0
 83 -12 46 4 46 82 c 0
 46 141 61 202 61 208 c 0
 61 211 58 213 51 213 c 2
 28 213 l 2
 20 213 15 220 15 229 c 0
EndSplineSet
EndChar
StartChar: Umacron
Encoding: 362 362 238
Width: 827
Flags: MW
LayerCount: 2
Back
Fore
SplineSet
357 845 m 0
 357 857 363 872 377 872 c 0
 517 872 470 870 557 870 c 0
 567 870 570 869 570 856 c 0
 570 840 567 827 553 827 c 0
 535 827 401 828 365 828 c 0
 360 828 357 836 357 845 c 0
44 694 m 0
 44 700 48 708 61 708 c 0
 76 708 102 702 175 702 c 0
 197 702 223 708 265 708 c 0
 273 708 285 705 285 694 c 0
 285 665 220 694 213 619 c 0
 198 465 172 295 172 192 c 0
 172 136 197 25 361 25 c 0
 511 25 585 98 620 184 c 0
 653 267 693 562 693 617 c 0
 693 688 606 661 606 692 c 0
 606 698 612 705 630 705 c 0
 642 705 666 701 685 701 c 0
 727 701 770 705 789 705 c 0
 799 705 807 698 807 692 c 0
 807 672 760 688 743 631 c 0
 735 605 702 272 657 164 c 0
 625 87 582 56 515 15 c 0
 480 -6 398 -19 364 -19 c 0
 242 -19 184 6 141 50 c 0
 98 93 94 138 94 215 c 0
 94 243 131 599 131 626 c 0
 131 697 44 662 44 694 c 0
EndSplineSet
EndChar
StartChar: Uring
Encoding: 366 366 274
Width: 827
Flags: MW
LayerCount: 2
Back
Fore
SplineSet
391 844 m 0
 391 890 435 930 475 930 c 0
 523 930 539 887 539 859 c 0
 539 801 473 776 458 776 c 0
 401 776 391 818 391 844 c 0
424 848 m 0
 424 826 438 810 461 810 c 0
 471 810 506 820 506 859 c 0
 506 875 500 895 470 895 c 0
 453 895 424 879 424 848 c 0
44 694 m 0
 44 700 48 708 61 708 c 0
 76 708 102 702 175 702 c 0
 197 702 223 708 265 708 c 0
 273 708 285 705 285 694 c 0
 285 665 220 694 213 619 c 0
 198 465 172 295 172 192 c 0
 172 136 197 25 361 25 c 0
 511 25 585 98 620 184 c 0
 653 267 693 562 693 617 c 0
 693 688 606 661 606 692 c 0
 606 698 612 705 630 705 c 0
 642 705 666 701 685 701 c 0
 727 701 770 705 789 705 c 0
 799 705 807 698 807 692 c 0
 807 672 760 688 743 631 c 0
 735 605 702 272 657 164 c 0
 625 87 582 56 515 15 c 0
 480 -6 398 -19 364 -19 c 0
 242 -19 184 6 141 50 c 0
 98 93 94 138 94 215 c 0
 94 243 131 599 131 626 c 0
 131 697 44 662 44 694 c 0
EndSplineSet
EndChar
StartChar: uhungarumlaut
Encoding: 369 369 336
Width: 525
Flags: MW
LayerCount: 2
Back
Fore
SplineSet
171 490 m 0
 171 503 193 511 262 642 c 0
 270 658 279 660 282 660 c 0
 290 660 329 653 329 637 c 0
 329 613 193 482 179 482 c 0
 174 482 171 486 171 490 c 0
324 490 m 0
 324 503 347 511 416 642 c 0
 424 658 433 660 436 660 c 0
 444 660 483 653 483 637 c 0
 483 613 347 482 333 482 c 0
 328 482 324 486 324 490 c 0
20 294 m 0
 20 336 66 428 133 428 c 0
 169 428 171 367 171 355 c 0
 171 267 134 155 134 79 c 0
 134 62 145 52 152 52 c 0
 184 52 219 99 266 155 c 0
 331 234 359 326 382 414 c 0
 385 427 401 430 411 430 c 0
 427 430 444 423 444 408 c 0
 444 381 383 139 383 88 c 0
 383 66 396 64 405 64 c 0
 466 64 470 138 491 138 c 0
 504 138 505 126 505 117 c 0
 505 93 443 -9 349 -9 c 0
 327 -9 319 14 319 45 c 0
 319 109 337 188 337 197 c 0
 337 204 335 208 332 208 c 0
 326 208 321 186 291 144 c 0
 246 80 172 -11 99 -11 c 0
 72 -11 65 24 65 53 c 0
 65 161 110 271 110 332 c 0
 110 343 103 353 90 353 c 0
 81 353 59 327 45 295 c 0
 41 285 35 281 30 281 c 0
 24 281 20 287 20 294 c 0
EndSplineSet
EndChar
StartChar: uogonek
Encoding: 371 371 394
Width: 525
Flags: MW
LayerCount: 2
Back
Fore
SplineSet
20 294 m 0
 20 336 66 428 133 428 c 0
 169 428 171 367 171 355 c 0
 171 267 134 155 134 79 c 0
 134 62 145 52 152 52 c 0
 184 52 219 99 266 155 c 0
 331 234 358 326 382 414 c 0
 385 427 401 430 411 430 c 0
 427 430 444 423 444 408 c 0
 444 381 383 139 383 88 c 0
 383 66 396 64 405 64 c 0
 466 64 470 138 491 138 c 0
 504 138 505 126 505 117 c 0
 505 99 478 55 431 15 c 0
 395 -15 306 -41 306 -93 c 0
 306 -131 330 -157 356 -157 c 0
 382 -157 396 -131 407 -131 c 0
 410 -131 411 -134 411 -139 c 0
 411 -153 369 -195 323 -195 c 0
 272 -195 248 -169 248 -129 c 0
 248 -55 330 -33 330 -7 c 0
 330 5 319 5 319 45 c 0
 319 109 337 188 337 197 c 0
 337 204 335 208 332 208 c 0
 326 208 321 186 291 144 c 0
 246 80 172 -11 99 -11 c 0
 72 -11 65 24 65 53 c 0
 65 161 110 271 110 332 c 0
 110 343 103 353 90 353 c 0
 81 353 59 327 45 295 c 0
 41 285 35 281 30 281 c 0
 24 281 20 287 20 294 c 0
EndSplineSet
EndChar
StartChar: Wcircumflex
Encoding: 372 372 381
Width: 1053
Flags: MW
LayerCount: 2
Back
Fore
SplineSet
425 763 m 0
 425 764 427 767 429 770 c 0
 528 895 520 910 535 910 c 2
 561 910 l 2
 566 910 571 910 575 900 c 0
 608 828 646 774 646 764 c 0
 646 761 644 758 638 758 c 0
 624 758 552 843 543 843 c 0
 528 843 444 759 432 759 c 0
 431 759 425 760 425 763 c 0
20 700 m 0
 20 708 31 710 40 710 c 0
 54 710 86 703 132 703 c 0
 152 703 190 707 211 707 c 0
 238 707 239 700 239 695 c 0
 239 678 205 689 187 671 c 0
 179 663 177 650 177 628 c 0
 177 605 300 103 317 103 c 0
 321 103 451 311 451 333 c 0
 451 353 450 350 446 366 c 2
 403 536 l 2
 389 591 380 647 345 669 c 0
 318 686 294 682 294 698 c 0
 294 704 298 708 323 708 c 0
 345 708 372 703 400 703 c 0
 420 703 458 707 479 707 c 0
 506 707 510 703 510 695 c 0
 510 668 455 701 455 640 c 0
 455 632 477 549 500 463 c 0
 504 446 505 436 510 436 c 0
 526 436 612 628 612 640 c 0
 612 690 545 674 545 698 c 0
 545 705 553 708 571 708 c 0
 585 708 616 705 649 705 c 0
 665 705 674 708 713 708 c 0
 733 708 743 702 743 694 c 0
 743 672 723 691 693 666 c 0
 667 644 636 583 603 522 c 0
 526 382 526 389 526 371 c 0
 526 349 599 101 609 101 c 0
 618 101 890 600 890 643 c 0
 890 695 816 668 816 697 c 0
 816 706 825 710 837 710 c 0
 851 710 900 706 933 706 c 0
 949 706 990 710 999 710 c 0
 1019 710 1033 703 1033 695 c 0
 1033 672 1003 689 973 664 c 0
 927 626 858 451 780 319 c 0
 709 198 629 46 586 -15 c 0
 583 -20 577 -25 565 -25 c 0
 546 -25 548 -2 537 39 c 2
 478 263 l 2
 475 275 473 283 470 283 c 0
 466 283 308 9 289 -14 c 0
 286 -17 283 -21 277 -21 c 0
 266 -21 262 -14 249 39 c 0
 91 673 104 645 69 667 c 0
 42 684 20 680 20 700 c 0
EndSplineSet
EndChar
StartChar: wcircumflex
Encoding: 373 373 395
Width: 675
Flags: MW
LayerCount: 2
Back
Fore
SplineSet
291 499 m 0
 291 500 293 503 295 506 c 0
 394 631 386 646 401 646 c 2
 427 646 l 2
 432 646 437 646 441 636 c 0
 474 564 512 510 512 500 c 0
 512 497 510 494 504 494 c 0
 490 494 418 579 409 579 c 0
 394 579 310 495 298 495 c 0
 297 495 291 496 291 499 c 0
10 248 m 0
 10 348 90 429 131 429 c 0
 163 429 173 380 173 350 c 0
 173 268 161 217 161 117 c 0
 161 86 181 56 200 56 c 0
 250 56 303 149 324 198 c 0
 338 232 354 289 367 381 c 0
 372 415 373 427 401 427 c 0
 424 427 430 417 430 402 c 0
 430 361 403 290 403 198 c 0
 403 168 406 137 413 103 c 0
 420 73 429 53 455 53 c 0
 531 53 607 229 607 287 c 0
 607 376 588 364 588 396 c 0
 588 412 610 429 626 429 c 0
 639 429 655 423 655 384 c 0
 655 332 630 223 600 166 c 0
 534 40 446 -10 406 -10 c 0
 377 -10 349 24 347 163 c 0
 347 177 345 182 344 182 c 0
 339 182 257 -11 161 -11 c 0
 110 -11 100 74 100 144 c 0
 100 161 10 137 10 248 c 0
43 243 m 0
 43 229 44 217 47 209 c 0
 57 187 73 182 86 182 c 0
 102 182 104 194 109 242 c 0
 112 268 114 306 114 320 c 0
 114 328 110 342 99 342 c 0
 83 342 43 293 43 243 c 0
EndSplineSet
EndChar
StartChar: ycircumflex
Encoding: 375 375 396
Width: 407
Flags: MW
LayerCount: 2
Back
Fore
SplineSet
114 499 m 0
 114 500 116 503 118 506 c 0
 217 631 209 646 224 646 c 2
 250 646 l 2
 255 646 260 646 264 636 c 0
 297 564 335 510 335 500 c 0
 335 497 333 494 327 494 c 0
 313 494 241 579 232 579 c 0
 217 579 133 495 121 495 c 0
 120 495 114 496 114 499 c 0
7 -125 m 0
 7 -108 22 -92 39 -92 c 0
 79 -92 80 -125 126 -125 c 0
 184 -125 250 3 250 41 c 0
 250 97 140 355 87 355 c 0
 29 355 50 280 20 280 c 0
 14 280 10 285 10 302 c 0
 10 344 30 431 91 431 c 0
 188 431 283 147 294 147 c 0
 308 147 330 254 330 321 c 0
 330 350 305 370 305 397 c 0
 305 415 315 434 339 434 c 0
 361 434 378 412 378 381 c 0
 378 336 354 198 295 49 c 0
 248 -70 184 -184 90 -184 c 0
 47 -184 7 -171 7 -125 c 0
EndSplineSet
EndChar
StartChar: Ydieresis
Encoding: 376 376 218
Width: 690
Flags: MW
LayerCount: 2
Back
Fore
SplineSet
269 853 m 0
 269 868 298 904 319 904 c 0
 339 904 359 876 359 857 c 0
 359 834 321 804 313 804 c 0
 287 804 269 836 269 853 c 0
423 853 m 0
 423 868 453 904 474 904 c 0
 494 904 514 876 514 857 c 0
 514 834 475 804 467 804 c 0
 441 804 423 836 423 853 c 0
20 700 m 0
 20 707 26 714 53 714 c 0
 66 714 129 710 146 710 c 0
 169 710 218 714 235 714 c 0
 261 714 265 706 265 699 c 0
 265 678 215 683 215 657 c 0
 215 627 244 566 259 540 c 0
 298 468 341 359 348 359 c 0
 351 359 534 602 534 654 c 0
 534 696 463 665 463 698 c 0
 463 709 470 712 489 712 c 0
 500 712 526 710 542 710 c 0
 587 710 607 713 645 713 c 0
 670 713 671 705 671 698 c 0
 671 683 629 682 607 659 c 0
 564 614 432 405 396 365 c 0
 371 337 361 321 353 248 c 0
 341 133 337 85 337 79 c 0
 337 62 345 52 359 40 c 0
 391 14 432 30 432 8 c 0
 432 0 431 -6 413 -6 c 0
 399 -6 331 1 300 1 c 0
 254 1 240 -7 216 -7 c 0
 195 -7 189 0 189 6 c 0
 189 24 209 22 227 27 c 0
 247 33 252 50 257 89 c 2
 257 89 284 273 284 302 c 0
 284 331 261 365 155 570 c 0
 112 654 89 673 67 680 c 0
 55 684 20 677 20 700 c 0
EndSplineSet
EndChar
StartChar: zacute
Encoding: 378 378 309
Width: 409
Flags: MW
LayerCount: 2
Back
Fore
SplineSet
200 490 m 0
 200 503 223 511 291 642 c 0
 299 658 308 660 311 660 c 0
 319 660 358 653 358 637 c 0
 358 614 223 482 208 482 c 0
 203 482 200 486 200 490 c 0
20 16 m 0
 20 21 22 25 29 32 c 2
 29 32 271 280 271 296 c 0
 271 297 270 299 267 300 c 0
 135 356 131 364 114 364 c 0
 99 364 84 345 84 332 c 0
 84 309 101 296 101 288 c 0
 101 284 95 279 89 279 c 0
 81 279 51 303 51 350 c 0
 51 392 89 430 129 430 c 0
 171 430 207 397 258 378 c 0
 289 367 308 362 321 362 c 0
 351 362 334 421 367 421 c 0
 378 421 390 414 390 402 c 0
 390 390 377 378 369 369 c 2
 176 154 l 2
 147 122 141 115 141 111 c 0
 141 98 190 72 212 46 c 0
 248 5 284 -71 306 -71 c 0
 342 -71 328 -17 367 -17 c 0
 382 -17 389 -31 389 -40 c 0
 389 -69 344 -97 288 -97 c 0
 232 -97 188 -30 181 -22 c 0
 150 14 112 49 93 49 c 0
 79 49 54 0 35 0 c 0
 28 0 20 7 20 16 c 0
EndSplineSet
EndChar
StartChar: Zcaron
Encoding: 381 381 219
Width: 587
Flags: MW
LayerCount: 2
Back
Fore
SplineSet
240 904 m 0
 240 909 243 910 247 910 c 2
 249 910 l 2
 261 910 333 825 343 825 c 0
 349 825 364 837 397 866 c 0
 429 894 438 909 452 909 c 0
 455 909 459 909 459 904 c 0
 459 903 459 900 457 897 c 0
 358 772 366 758 351 758 c 2
 325 758 l 2
 320 758 315 758 311 768 c 0
 280 835 240 893 240 904 c 0
20 4 m 0
 20 20 45 44 112 133 c 0
 229 289 469 608 469 632 c 0
 469 635 456 636 436 636 c 0
 420 636 414 635 383 635 c 0
 345 635 298 645 271 645 c 0
 239 645 204 643 178 637 c 0
 123 624 89 583 89 547 c 0
 89 484 125 505 125 480 c 0
 125 471 115 464 102 464 c 0
 64 464 57 517 57 537 c 0
 57 550 62 579 72 604 c 0
 82 630 101 648 125 671 c 0
 171 715 216 715 281 715 c 0
 385 715 442 701 496 701 c 0
 512 701 527 707 545 707 c 0
 558 707 567 707 567 691 c 0
 567 668 132 99 132 79 c 0
 132 68 146 68 205 68 c 2
 248 68 l 2
 346 68 393 62 435 62 c 0
 475 62 510 67 510 89 c 0
 510 106 454 101 454 139 c 0
 454 169 482 185 502 185 c 0
 537 185 547 148 547 136 c 0
 547 79 520 49 488 23 c 0
 484 20 462 -10 370 -10 c 0
 213 -10 190 -4 155 -4 c 0
 108 -4 100 -9 46 -9 c 0
 36 -9 20 -7 20 4 c 0
EndSplineSet
EndChar
StartChar: zcaron
Encoding: 382 382 222
Width: 409
Flags: MW
LayerCount: 2
Back
Fore
SplineSet
141 640 m 0
 141 645 144 646 148 646 c 2
 150 646 l 2
 162 646 234 561 244 561 c 0
 250 561 265 573 298 602 c 0
 330 630 339 645 353 645 c 0
 356 645 360 645 360 640 c 0
 360 639 360 636 358 633 c 0
 259 508 267 494 252 494 c 2
 226 494 l 2
 221 494 216 494 212 504 c 0
 181 571 141 629 141 640 c 0
20 16 m 0
 20 21 22 25 29 32 c 2
 29 32 271 280 271 296 c 0
 271 297 270 299 267 300 c 0
 135 356 131 364 114 364 c 0
 99 364 84 345 84 332 c 0
 84 309 101 296 101 288 c 0
 101 284 95 279 89 279 c 0
 81 279 51 303 51 350 c 0
 51 392 89 430 129 430 c 0
 171 430 207 397 258 378 c 0
 289 367 308 362 321 362 c 0
 351 362 334 421 367 421 c 0
 378 421 390 414 390 402 c 0
 390 390 377 378 369 369 c 2
 176 154 l 2
 147 122 141 115 141 111 c 0
 141 98 190 72 212 46 c 0
 248 5 284 -71 306 -71 c 0
 342 -71 328 -17 367 -17 c 0
 382 -17 389 -31 389 -40 c 0
 389 -69 344 -97 288 -97 c 0
 232 -97 188 -30 181 -22 c 0
 150 14 112 49 93 49 c 0
 79 49 54 0 35 0 c 0
 28 0 20 7 20 16 c 0
EndSplineSet
EndChar
StartChar: Acaron
Encoding: 461 461 264
Width: 771
Flags: MW
LayerCount: 2
Back
Fore
SplineSet
20 9 m 0
 20 21 33 26 45 30 c 0
 105 52 81 66 445 698 c 0
 456 718 458 718 468 718 c 0
 484 718 477 718 524 560 c 0
 559 444 666 118 672 102 c 0
 695 42 699 40 736 28 c 0
 746 25 752 20 752 8 c 0
 752 1 748 -2 721 -2 c 0
 698 -2 684 1 656 1 c 0
 619 1 600 -4 563 -4 c 0
 553 -4 536 -3 536 7 c 0
 536 36 602 20 602 65 c 0
 602 103 570 191 561 229 c 0
 559 238 557 258 524 258 c 0
 503 258 468 257 403 257 c 0
 273 257 308 260 269 260 c 0
 252 260 240 256 234 245 c 0
 172 137 149 74 149 69 c 0
 149 12 217 38 217 12 c 0
 217 -3 211 -2 202 -2 c 0
 151 -1 132 0 115 0 c 0
 98 0 83 -1 40 -2 c 0
 26 -2 20 2 20 9 c 0
271 312 m 0
 271 305 285 304 304 304 c 0
 324 304 319 305 512 305 c 0
 529 305 528 313 528 320 c 0
 528 331 446 596 432 596 c 0
 424 596 271 316 271 312 c 0
375 904 m 4
 375 909 378 910 382 910 c 6
 384 910 l 6
 396 910 468 825 478 825 c 4
 484 825 499 837 532 866 c 4
 564 894 573 909 587 909 c 4
 590 909 594 909 594 904 c 4
 594 903 594 900 592 897 c 4
 493 772 501 758 486 758 c 6
 460 758 l 6
 455 758 450 758 446 768 c 4
 415 835 375 893 375 904 c 4
EndSplineSet
EndChar
StartChar: acaron
Encoding: 462 462 276
Width: 518
Flags: MW
LayerCount: 2
Back
Fore
SplineSet
32 114 m 0
 32 170 57 227 88 277 c 0
 124 334 170 382 223 407 c 0
 250 420 270 425 296 425 c 0
 327 425 348 414 381 414 c 0
 401 414 413 463 433 463 c 0
 439 463 444 459 444 448 c 0
 444 432 431 408 424 379 c 0
 415 342 409 296 401 251 c 0
 393 207 383 161 383 123 c 0
 383 97 398 64 417 64 c 0
 450 64 471 129 490 129 c 0
 498 129 499 122 499 118 c 0
 499 108 494 93 481 75 c 0
 456 39 411 -7 384 -7 c 0
 320 -7 329 105 322 105 c 0
 317 105 234 -15 139 -15 c 0
 44 -15 32 49 32 114 c 0
102 120 m 0
 102 70 138 40 180 40 c 0
 252 40 299 112 308 130 c 0
 332 178 359 362 359 365 c 0
 359 393 314 400 293 400 c 0
 252 400 199 370 169 319 c 0
 140 271 116 226 107 174 c 0
 104 156 102 138 102 120 c 0
211 640 m 4
 211 645 214 646 218 646 c 6
 220 646 l 6
 232 646 304 561 314 561 c 4
 320 561 335 573 368 602 c 4
 400 630 409 645 423 645 c 4
 426 645 430 645 430 640 c 4
 430 639 430 636 428 633 c 4
 329 508 337 494 322 494 c 6
 296 494 l 6
 291 494 286 494 282 504 c 4
 251 571 211 629 211 640 c 4
EndSplineSet
EndChar
StartChar: Icaron
Encoding: 463 463 268
Width: 325
Flags: MW
LayerCount: 2
Back
Fore
SplineSet
20 11 m 0
 20 31 54 16 74 45 c 0
 83 58 88 70 89 79 c 0
 97 142 158 615 158 619 c 0
 158 678 87 670 72 677 c 0
 66 679 64 684 64 689 c 0
 64 697 70 704 91 704 c 0
 119 704 138 696 194 696 c 0
 237 696 268 702 288 702 c 0
 295 702 306 702 306 688 c 0
 306 672 269 680 254 662 c 0
 234 639 228 577 225 545 c 0
 197 281 167 136 167 99 c 0
 167 21 199 29 224 22 c 0
 240 18 254 20 254 9 c 0
 254 -6 246 -5 233 -5 c 0
 219 -5 174 1 132 1 c 0
 104 1 76 -5 55 -5 c 0
 33 -5 20 -1 20 11 c 0
117 904 m 4
 117 909 120 910 124 910 c 6
 126 910 l 6
 138 910 210 825 220 825 c 4
 226 825 241 837 274 866 c 4
 306 894 315 909 329 909 c 4
 332 909 336 909 336 904 c 4
 336 903 336 900 334 897 c 4
 235 772 243 758 228 758 c 6
 202 758 l 6
 197 758 192 758 188 768 c 4
 157 835 117 893 117 904 c 4
EndSplineSet
EndChar
StartChar: icaron
Encoding: 464 464 280
Width: 250
Flags: MW
LayerCount: 2
Back
Fore
SplineSet
20 396 m 0
 20 409 32 410 43 410 c 2
 53 410 l 2
 93 410 110 419 167 419 c 0
 174 419 181 415 181 408 c 0
 181 382 162 343 154 292 c 0
 124 103 124 105 124 93 c 0
 124 79 134 66 144 66 c 0
 178 66 192 118 206 118 c 0
 212 118 216 114 216 107 c 0
 216 95 198 61 187 49 c 1
 187 49 132 -10 95 -10 c 0
 65 -10 58 30 58 73 c 0
 58 149 103 305 103 362 c 0
 103 379 97 383 79 383 c 0
 58 383 42 384 34 384 c 0
 28 384 20 386 20 396 c 0
65 640 m 4
 65 645 68 646 72 646 c 6
 74 646 l 6
 86 646 158 561 168 561 c 4
 174 561 189 573 222 602 c 4
 254 630 263 645 277 645 c 4
 280 645 284 645 284 640 c 4
 284 639 284 636 282 633 c 4
 183 508 191 494 176 494 c 6
 150 494 l 6
 145 494 140 494 136 504 c 4
 105 571 65 629 65 640 c 4
EndSplineSet
EndChar
StartChar: Ocaron
Encoding: 465 465 271
Width: 815
Flags: MW
LayerCount: 2
Back
Fore
SplineSet
39 314 m 0
 39 509 181 716 434 716 c 0
 670 716 776 550 776 376 c 0
 776 192 655 -20 394 -20 c 0
 180 -20 39 114 39 314 c 0
125 347 m 0
 125 130 262 16 401 16 c 0
 584 16 688 204 688 380 c 0
 688 429 684 478 667 521 c 0
 630 616 547 686 420 686 c 0
 222 686 125 491 125 347 c 0
343 904 m 4
 343 909 346 910 350 910 c 6
 352 910 l 6
 364 910 436 825 446 825 c 4
 452 825 467 837 500 866 c 4
 532 894 541 909 555 909 c 4
 558 909 562 909 562 904 c 4
 562 903 562 900 560 897 c 4
 461 772 469 758 454 758 c 6
 428 758 l 6
 423 758 418 758 414 768 c 4
 383 835 343 893 343 904 c 4
EndSplineSet
EndChar
StartChar: ocaron
Encoding: 466 466 283
Width: 446
Flags: MW
LayerCount: 2
Back
Fore
SplineSet
32 169 m 0
 32 293 116 435 268 435 c 0
 368 435 414 352 414 258 c 0
 414 133 332 -10 185 -10 c 0
 103 -10 32 47 32 169 c 0
109 168 m 0
 109 67 149 20 196 20 c 0
 303 20 340 187 340 270 c 0
 340 364 300 405 254 405 c 0
 206 405 152 361 129 280 c 0
 119 245 109 209 109 168 c 0
176 640 m 4
 176 645 179 646 183 646 c 6
 185 646 l 6
 197 646 269 561 279 561 c 4
 285 561 300 573 333 602 c 4
 365 630 374 645 388 645 c 4
 391 645 395 645 395 640 c 4
 395 639 395 636 393 633 c 4
 294 508 302 494 287 494 c 6
 261 494 l 6
 256 494 251 494 247 504 c 4
 216 571 176 629 176 640 c 4
EndSplineSet
EndChar
StartChar: Ucaron
Encoding: 467 467 273
Width: 827
Flags: MW
LayerCount: 2
Back
Fore
SplineSet
44 694 m 0
 44 700 48 708 61 708 c 0
 76 708 102 702 175 702 c 0
 197 702 223 708 265 708 c 0
 273 708 285 705 285 694 c 0
 285 665 220 694 213 619 c 0
 198 465 172 295 172 192 c 0
 172 136 197 25 361 25 c 0
 511 25 585 98 620 184 c 0
 653 267 693 562 693 617 c 0
 693 688 606 661 606 692 c 0
 606 698 612 705 630 705 c 0
 642 705 666 701 685 701 c 0
 727 701 770 705 789 705 c 0
 799 705 807 698 807 692 c 0
 807 672 760 688 743 631 c 0
 735 605 702 272 657 164 c 0
 625 87 582 56 515 15 c 0
 480 -6 398 -19 364 -19 c 0
 242 -19 184 6 141 50 c 0
 98 93 94 138 94 215 c 0
 94 243 131 599 131 626 c 0
 131 697 44 662 44 694 c 0
366 904 m 0
 366 909 369 910 373 910 c 2
 375 910 l 2
 387 910 459 825 469 825 c 0
 475 825 490 837 523 866 c 0
 555 894 564 909 578 909 c 0
 581 909 585 909 585 904 c 0
 585 903 585 900 583 897 c 0
 484 772 492 758 477 758 c 2
 451 758 l 2
 446 758 441 758 437 768 c 0
 406 835 366 893 366 904 c 0
EndSplineSet
EndChar
StartChar: ucaron
Encoding: 468 468 285
Width: 525
Flags: MW
LayerCount: 2
Back
Fore
SplineSet
20 294 m 0
 20 336 66 428 133 428 c 0
 169 428 171 367 171 355 c 0
 171 267 134 155 134 79 c 0
 134 62 145 52 152 52 c 0
 184 52 219 99 266 155 c 0
 331 234 359 326 382 414 c 0
 385 427 401 430 411 430 c 0
 427 430 444 423 444 408 c 0
 444 381 383 139 383 88 c 0
 383 66 396 64 405 64 c 0
 466 64 470 138 491 138 c 0
 504 138 505 126 505 117 c 0
 505 93 443 -9 349 -9 c 0
 327 -9 319 14 319 45 c 0
 319 109 337 188 337 197 c 0
 337 204 335 208 332 208 c 0
 326 208 321 186 291 144 c 0
 246 80 172 -11 99 -11 c 0
 72 -11 65 24 65 53 c 0
 65 161 110 271 110 332 c 0
 110 343 103 353 90 353 c 0
 81 353 59 327 45 295 c 0
 41 285 35 281 30 281 c 0
 24 281 20 287 20 294 c 0
176 640 m 4
 176 645 179 646 183 646 c 6
 185 646 l 6
 197 646 269 561 279 561 c 4
 285 561 300 573 333 602 c 4
 365 630 374 645 388 645 c 4
 391 645 395 645 395 640 c 4
 395 639 395 636 393 633 c 4
 294 508 302 494 287 494 c 6
 261 494 l 6
 256 494 251 494 247 504 c 4
 216 571 176 629 176 640 c 4
EndSplineSet
EndChar
StartChar: ngrave
Encoding: 505 505 292
Width: 526
Flags: MW
LayerCount: 2
Back
Fore
SplineSet
24 321 m 0
 24 360 84 435 122 435 c 0
 180 435 159 330 168 330 c 0
 174 330 181 352 218 380 c 0
 245 401 298 437 340 437 c 0
 410 437 424 375 424 312 c 0
 424 242 407 136 407 102 c 0
 407 74 415 66 426 66 c 0
 443 66 466 88 466 88 c 1
 478 103 482 115 497 115 c 0
 504 115 506 109 506 103 c 0
 506 64 418 -6 374 -6 c 0
 354 -6 337 22 337 57 c 0
 337 133 358 267 358 304 c 0
 358 320 353 386 288 386 c 0
 265 386 246 375 223 342 c 0
 180 281 192 290 168 161 c 0
 143 26 150 38 148 24 c 0
 145 2 137 -2 111 -2 c 0
 84 -2 76 0 76 29 c 0
 76 71 120 226 120 303 c 0
 120 338 107 358 97 358 c 0
 66 358 55 302 33 302 c 0
 26 302 24 310 24 321 c 0
174 634 m 4
 174 653 221 660 226 660 c 4
 229 660 237 658 242 642 c 4
 280 521 301 504 301 492 c 4
 301 486 296 482 291 482 c 4
 277 482 174 608 174 634 c 4
EndSplineSet
EndChar
StartChar: commaturnedmod
Encoding: 699 699 99
Width: 439
Flags: MW
LayerCount: 2
Back
Fore
SplineSet
170 561 m 0
 170 626 238 654 251 654 c 0
 254 654 256 652 256 650 c 0
 256 642 216 635 216 594 c 0
 216 549 268 551 268 534 c 1
 268 534 234 501 220 501 c 0
 216 501 170 517 170 561 c 0
EndSplineSet
EndChar
StartChar: apostrophemod
Encoding: 700 700 98
Width: 439
Flags: MW
LayerCount: 2
Back
Fore
SplineSet
172 707 m 1
 172 707 206 739 220 739 c 0
 224 739 269 724 269 680 c 0
 269 615 202 587 189 587 c 0
 186 587 183 589 183 591 c 0
 183 599 224 606 224 647 c 0
 224 692 172 690 172 707 c 1
EndSplineSet
EndChar
StartChar: circumflex
Encoding: 710 710 126
Width: 439
Flags: MW
LayerCount: 2
Back
Fore
SplineSet
114 499 m 0
 114 500 116 503 118 506 c 0
 217 631 209 646 224 646 c 2
 250 646 l 2
 255 646 260 646 264 636 c 0
 297 564 335 510 335 500 c 0
 335 497 333 494 327 494 c 0
 313 494 241 579 232 579 c 0
 217 579 133 495 121 495 c 0
 120 495 114 496 114 499 c 0
EndSplineSet
EndChar
StartChar: ring
Encoding: 730 730 128
Width: 439
Flags: MW
LayerCount: 2
Back
Fore
SplineSet
159 580 m 0
 159 626 203 666 243 666 c 0
 291 666 307 623 307 595 c 0
 307 537 241 512 226 512 c 0
 169 512 159 554 159 580 c 0
192 584 m 0
 192 562 206 546 229 546 c 0
 239 546 274 556 274 595 c 0
 274 611 268 631 238 631 c 0
 221 631 192 615 192 584 c 0
EndSplineSet
EndChar
StartChar: tilde
Encoding: 732 732 97
Width: 439
Flags: MW
LayerCount: 2
Back
Fore
SplineSet
81 534 m 0
 81 551 148 633 188 633 c 0
 235 633 259 585 308 585 c 0
 344 585 359 641 374 641 c 0
 379 641 383 637 383 630 c 0
 383 610 317 533 277 533 c 0
 228 533 201 581 157 581 c 0
 120 581 105 524 89 524 c 0
 84 524 81 528 81 534 c 0
EndSplineSet
EndChar
StartChar: brevecmb
Encoding: 774 774 403
Width: 0
Flags: MW
LayerCount: 2
Back
Fore
SplineSet
-311 608 m 0
 -311 626 -310 627 -306 627 c 2
 -295 627 l 2
 -284 627 -291 557 -199 557 c 0
 -119 557 -106 627 -96 627 c 2
 -89 627 l 2
 -82 627 -82 627 -82 625 c 0
 -82 608 -117 504 -210 504 c 0
 -276 504 -311 558 -311 608 c 0
EndSplineSet
EndChar
StartChar: dotaccentcmb
Encoding: 775 775 404
Width: 0
Flags: MW
LayerCount: 2
Back
Fore
SplineSet
-250 593 m 0
 -250 602 -218 646 -199 646 c 0
 -179 646 -161 609 -161 593 c 0
 -161 572 -196 538 -206 538 c 0
 -221 538 -250 580 -250 593 c 0
EndSplineSet
EndChar
StartChar: hungarumlautcmb
Encoding: 779 779 405
Width: 0
Flags: MW
LayerCount: 2
Back
Fore
SplineSet
-318 490 m 0
 -318 503 -296 511 -227 642 c 0
 -219 658 -210 660 -207 660 c 0
 -199 660 -160 653 -160 637 c 0
 -160 613 -296 482 -310 482 c 0
 -315 482 -318 486 -318 490 c 0
-165 490 m 0
 -165 503 -142 511 -73 642 c 0
 -65 658 -56 660 -53 660 c 0
 -45 660 -6 653 -6 637 c 0
 -6 613 -142 482 -156 482 c 0
 -161 482 -165 486 -165 490 c 0
EndSplineSet
EndChar
StartChar: caroncmb
Encoding: 780 780 407
Width: 0
Flags: MW
LayerCount: 2
Back
Fore
SplineSet
-311 640 m 0
 -311 645 -308 646 -304 646 c 2
 -302 646 l 2
 -290 646 -218 561 -208 561 c 0
 -202 561 -187 573 -154 602 c 0
 -122 630 -113 645 -99 645 c 0
 -96 645 -92 645 -92 640 c 0
 -92 639 -92 636 -94 633 c 0
 -193 508 -185 494 -200 494 c 2
 -226 494 l 2
 -231 494 -236 494 -240 504 c 0
 -271 571 -311 629 -311 640 c 0
EndSplineSet
EndChar
StartChar: ogonekcmb
Encoding: 808 808 406
Width: 0
Flags: MW
LayerCount: 2
Back
Fore
SplineSet
-312 -121 m 0
 -314 -140 -304 -204 -235 -204 c 0
 -189 -204 -140 -161 -138 -147 c 0
 -137 -142 -141 -139 -144 -139 c 0
 -155 -139 -171 -164 -197 -164 c 0
 -238 -164 -249 -119 -247 -104 c 0
 -242 -63 -221 -19 -165 -3 c 0
 -151 1 -132 11 -140 24 c 0
 -156 50 -193 30 -203 19 c 0
 -236 -16 -303 -45 -312 -121 c 0
EndSplineSet
EndChar
StartChar: tonos
Encoding: 900 900 350
Width: 421
Flags: MW
LayerCount: 2
Back
Fore
SplineSet
188 416 m 1
 276 589 l 2
 290 617 307 631 326 631 c 0
 335 631 343 628 350 621 c 0
 357 614 360 606 359 597 c 0
 357 583 350 569 337 554 c 2
 203 407 l 1
 188 416 l 1
EndSplineSet
Colour: ffff
EndChar
StartChar: dieresistonos
Encoding: 901 901 351
Width: 421
Flags: MW
LayerCount: 2
Back
Fore
SplineSet
121 450 m 0
 122 462 128 472 137 480 c 0
 146 488 158 493 170 493 c 256
 182 493 192 488 199 480 c 0
 206 472 208 462 207 450 c 0
 206 438 201 428 192 420 c 0
 183 412 171 407 159 407 c 256
 147 407 137 412 130 420 c 0
 123 428 120 438 121 450 c 0
244 456 m 1
 311 638 l 2
 322 669 338 684 359 684 c 0
 382 684 393 673 390 650 c 0
 389 639 383 627 374 614 c 2
 260 449 l 1
 244 456 l 1
325 450 m 0
 326 462 332 472 341 480 c 0
 350 488 362 493 374 493 c 256
 386 493 396 488 403 480 c 0
 410 472 412 462 411 450 c 0
 410 438 405 428 396 420 c 0
 387 412 375 407 363 407 c 256
 351 407 341 412 334 420 c 0
 327 428 324 438 325 450 c 0
EndSplineSet
Colour: ffff
EndChar
StartChar: Macute
Encoding: 7742 7742 289
Width: 911
Flags: MW
LayerCount: 2
Back
Fore
SplineSet
20 10 m 0
 20 22 23 20 58 34 c 0
 97 49 103 105 125 225 c 0
 139 299 175 458 175 519 c 0
 175 533 174 547 174 562 c 0
 174 605 157 637 144 655 c 0
 127 677 112 680 83 680 c 2
 68 680 l 2
 62 680 53 683 53 695 c 0
 53 711 102 712 124 712 c 2
 130 712 l 2
 157 712 175 713 194 713 c 0
 217 713 224 690 272 571 c 0
 353 370 468 126 475 126 c 0
 482 126 531 221 636 432 c 0
 655 470 685 526 709 577 c 0
 755 674 759 708 782 708 c 2
 812 708 l 2
 830 708 861 712 867 712 c 0
 884 712 891 705 891 698 c 0
 891 693 883 684 877 683 c 0
 843 676 822 694 808 564 c 0
 803 518 803 484 803 454 c 2
 803 376 l 2
 803 322 801 270 801 234 c 0
 801 209 799 234 799 106 c 0
 799 48 812 32 849 25 c 0
 856 24 864 23 873 22 c 0
 882 21 888 15 888 10 c 0
 888 -1 878 -4 860 -4 c 0
 836 -4 799 1 756 1 c 0
 728 1 709 -4 673 -4 c 0
 659 -4 652 3 652 8 c 0
 652 31 702 14 718 66 c 0
 732 113 733 356 733 390 c 0
 733 499 729 505 727 505 c 0
 721 505 707 486 688 449 c 2
 542 166 l 2
 460 7 468 3 449 3 c 0
 440 3 424 38 247 440 c 0
 224 493 224 493 219 493 c 0
 214 493 206 459 205 449 c 0
 188 307 143 131 143 71 c 0
 143 41 164 33 186 29 c 0
 208 25 230 25 230 10 c 0
 230 -1 217 -2 209 -2 c 0
 175 -2 130 1 116 1 c 0
 104 1 87 -2 43 -2 c 0
 31 -2 20 0 20 10 c 0
468 754 m 0
 468 767 491 775 559 906 c 0
 567 922 576 924 579 924 c 0
 587 924 626 917 626 901 c 0
 626 878 491 746 476 746 c 0
 471 746 468 750 468 754 c 0
EndSplineSet
EndChar
StartChar: macute
Encoding: 7743 7743 290
Width: 762
Flags: MW
LayerCount: 2
Back
Fore
SplineSet
24 322 m 0
 24 352 82 433 120 433 c 0
 178 433 161 330 174 330 c 0
 181 330 204 388 297 421 c 0
 322 430 341 432 355 432 c 0
 404 432 414 389 414 358 c 2
 414 337 l 2
 414 333 415 329 416 329 c 0
 423 329 429 349 453 371 c 0
 483 400 531 433 577 433 c 0
 656 433 659 340 659 327 c 0
 659 282 639 130 639 97 c 0
 639 71 648 62 659 62 c 0
 677 62 702 85 702 85 c 1
 714 100 717 113 732 113 c 0
 739 113 742 107 742 101 c 0
 742 62 654 -3 610 -3 c 0
 590 -3 573 25 573 60 c 0
 573 79 595 247 595 308 c 0
 595 361 562 385 541 385 c 0
 474 385 430 279 428 271 c 0
 413 218 405 91 398 21 c 0
 396 -3 370 -6 357 -6 c 0
 337 -6 329 9 329 26 c 0
 329 51 365 218 365 313 c 0
 365 325 359 384 294 384 c 0
 271 384 206 365 177 218 c 0
 162 140 157 50 151 17 c 0
 149 4 131 -5 113 -5 c 0
 95 -5 78 0 78 29 c 0
 78 71 123 230 123 307 c 0
 123 346 107 356 97 356 c 0
 66 356 58 298 36 298 c 0
 25 298 24 309 24 322 c 0
358 490 m 4
 358 503 381 511 449 642 c 4
 457 658 466 660 469 660 c 4
 477 660 516 653 516 637 c 4
 516 614 381 482 366 482 c 4
 361 482 358 486 358 490 c 4
EndSplineSet
EndChar
StartChar: figuredash
Encoding: 8210 8210 113
Width: 508
Flags: MW
LayerCount: 2
Back
Fore
SplineSet
0 214 m 0
 0 236 10 238 34 238 c 2
 486 238 l 2
 501 238 508 236 508 208 c 0
 508 195 499 185 486 185 c 2
 38 185 l 2
 0 185 0 186 0 214 c 0
EndSplineSet
EndChar
StartChar: emdash
Encoding: 8212 8212 408
Width: 1000
Flags: MW
LayerCount: 2
Back
Fore
SplineSet
0 214 m 0
 0 236 10 238 34 238 c 2
 979 238 l 2
 994 238 1000 236 1000 208 c 0
 1000 195 992 185 979 185 c 2
 38 185 l 2
 0 185 0 186 0 214 c 0
EndSplineSet
EndChar
StartChar: quotesinglbase
Encoding: 8218 8218 119
Width: 239
Flags: MW
LayerCount: 2
Back
Fore
SplineSet
36 -47 m 0
 36 -24 73 -27 95 31 c 0
 100 43 107 58 107 76 c 0
 107 135 56 137 56 164 c 0
 56 173 92 222 113 222 c 0
 121 222 166 201 166 119 c 0
 166 12 68 -60 48 -60 c 0
 38 -60 36 -52 36 -47 c 0
EndSplineSet
EndChar
StartChar: quotedblleft
Encoding: 8220 8220 107
Width: 410
Flags: MW
LayerCount: 2
Back
Fore
SplineSet
73 530 m 0
 73 637 171 708 191 708 c 0
 201 708 204 700 204 695 c 0
 204 672 166 676 144 618 c 0
 139 606 132 590 132 572 c 0
 132 513 183 511 183 484 c 0
 183 475 147 427 126 427 c 0
 118 427 73 448 73 530 c 0
244 530 m 0
 244 637 342 708 362 708 c 0
 372 708 375 700 375 695 c 0
 375 672 337 676 315 618 c 0
 310 606 303 590 303 572 c 0
 303 513 354 511 354 484 c 0
 354 475 318 427 297 427 c 0
 289 427 244 448 244 530 c 0
EndSplineSet
EndChar
StartChar: quotedblbase
Encoding: 8222 8222 120
Width: 410
Flags: MW
LayerCount: 2
Back
Fore
SplineSet
36 -47 m 0
 36 -24 73 -27 95 31 c 0
 100 43 107 58 107 76 c 0
 107 135 56 137 56 164 c 0
 56 173 92 222 113 222 c 0
 121 222 166 201 166 119 c 0
 166 12 68 -60 48 -60 c 0
 38 -60 36 -52 36 -47 c 0
207 -47 m 0
 207 -24 244 -27 266 31 c 0
 271 43 278 58 278 76 c 0
 278 135 227 137 227 164 c 0
 227 173 263 222 284 222 c 0
 292 222 337 201 337 119 c 0
 337 12 239 -60 219 -60 c 0
 209 -60 207 -52 207 -47 c 0
EndSplineSet
EndChar
StartChar: dagger
Encoding: 8224 8224 114
Width: 535
Flags: MW
LayerCount: 2
Back
Fore
SplineSet
63 516 m 0
 63 526 67 600 90 600 c 0
 98 600 146 549 240 549 c 0
 253 549 253 553 253 583 c 0
 253 651 229 710 229 725 c 0
 229 734 241 747 288 747 c 0
 302 747 342 746 342 728 c 0
 342 723 285 611 285 553 c 0
 285 549 288 548 290 548 c 0
 368 548 443 602 457 602 c 0
 466 602 471 590 471 565 c 0
 471 545 465 481 444 481 c 0
 437 481 394 522 295 522 c 0
 281 522 279 520 279 455 c 0
 279 367 304 348 304 340 c 0
 304 315 266 347 209 -189 c 0
 207 -212 201 -215 191 -215 c 2
 188 -215 l 2
 180 -215 176 -213 176 -201 c 0
 176 -191 204 46 204 200 c 0
 204 319 188 322 188 335 c 0
 188 350 228 357 246 512 c 0
 246 515 247 518 247 519 c 0
 247 522 245 522 240 522 c 0
 148 522 92 479 78 479 c 0
 69 479 63 491 63 516 c 0
EndSplineSet
EndChar
StartChar: daggerdbl
Encoding: 8225 8225 115
Width: 580
Flags: MW
LayerCount: 2
Back
Fore
SplineSet
59 -10 m 0
 59 -2 62 79 85 79 c 0
 93 79 179 31 241 31 c 0
 246 31 250 33 250 37 c 0
 253 65 254 91 254 115 c 0
 254 204 238 262 238 285 c 0
 238 301 276 319 296 500 c 0
 296 504 297 507 297 509 c 0
 297 512 296 513 291 513 c 0
 288 513 284 512 281 512 c 0
 211 508 142 469 129 469 c 0
 120 469 114 481 114 506 c 0
 114 516 118 590 141 590 c 0
 149 590 203 539 291 539 c 0
 304 539 305 543 305 583 c 0
 305 657 280 701 280 715 c 0
 280 724 291 737 338 737 c 0
 352 737 393 736 393 718 c 0
 393 707 347 649 336 545 c 0
 336 542 336 538 340 538 c 0
 420 538 493 592 507 592 c 0
 516 592 521 580 521 555 c 0
 521 545 518 471 495 471 c 0
 487 471 433 513 339 513 c 0
 335 513 333 512 333 508 c 0
 329 469 327 437 327 411 c 0
 327 319 346 296 346 288 c 0
 346 280 302 204 284 47 c 0
 284 43 283 40 283 38 c 0
 283 35 284 33 289 33 c 0
 372 33 442 81 456 81 c 0
 465 81 470 67 470 42 c 0
 470 21 464 -46 443 -46 c 0
 437 -46 374 -2 293 -2 c 0
 279 -2 275 -2 275 -50 c 0
 275 -127 303 -169 303 -183 c 0
 303 -192 291 -205 242 -205 c 0
 227 -205 185 -205 185 -187 c 0
 185 -183 245 -73 245 -12 c 0
 245 -7 242 -1 235 -1 c 0
 191 -1 87 -48 73 -48 c 0
 64 -48 59 -35 59 -10 c 0
EndSplineSet
EndChar
StartChar: bullet
Encoding: 8226 8226 118
Width: 419
Flags: MW
LayerCount: 2
Back
Fore
SplineSet
59 331 m 0
 59 414 126 481 209 481 c 0
 292 481 360 414 360 331 c 0
 360 248 293 180 210 180 c 0
 127 180 59 248 59 331 c 0
EndSplineSet
EndChar
StartChar: ellipsis
Encoding: 8230 8230 123
Width: 666
Flags: MW
LayerCount: 2
Back
Fore
SplineSet
493 46 m 0
 493 55 510 70 526 84 c 0
 539 96 554 113 567 113 c 0
 576 113 584 101 596 83 c 0
 604 72 617 67 617 46 c 0
 617 33 601 24 586 10 c 0
 574 -2 564 -15 550 -15 c 0
 534 -15 530 2 517 15 c 0
 502 30 493 36 493 46 c 0
271 46 m 0
 271 55 288 70 304 84 c 0
 317 96 332 113 345 113 c 0
 354 113 362 101 374 83 c 0
 382 72 395 67 395 46 c 0
 395 33 379 24 364 10 c 0
 352 -2 342 -15 328 -15 c 0
 312 -15 308 2 295 15 c 0
 280 30 271 36 271 46 c 0
49 46 m 0
 49 55 66 70 82 84 c 0
 95 96 110 113 123 113 c 0
 132 113 140 101 152 83 c 0
 160 72 173 67 173 46 c 0
 173 33 157 24 142 10 c 0
 130 -2 120 -15 106 -15 c 0
 90 -15 86 2 73 15 c 0
 58 30 49 36 49 46 c 0
EndSplineSet
EndChar
StartChar: perthousand
Encoding: 8240 8240 124
Width: 1105
Flags: MW
LayerCount: 2
Back
Fore
SplineSet
720 64 m 0
 720 168 793 293 918 293 c 0
 994 293 1026 238 1026 170 c 0
 1026 62 946 -78 841 -78 c 0
 759 -78 720 -12 720 64 c 0
791 73 m 0
 791 0 813 -46 851 -46 c 0
 915 -46 960 73 960 165 c 0
 960 217 939 262 910 262 c 0
 830 262 791 158 791 73 c 0
59 344 m 0
 59 441 138 577 258 577 c 0
 333 577 346 508 408 508 c 0
 489 508 589 611 619 638 c 0
 625 644 632 646 637 646 c 0
 644 646 646 642 646 637 c 0
 646 630 641 621 638 616 c 0
 167 -88 184 -85 172 -89 c 0
 169 -90 165 -91 162 -91 c 0
 145 -91 129 -78 129 -67 c 0
 129 -53 138 -42 169 3 c 2
 334 240 l 2
 462 424 536 516 536 524 c 0
 536 527 534 528 532 528 c 0
 525 528 471 484 410 484 c 0
 386 484 365 494 361 494 c 0
 360 494 360 494 360 493 c 0
 360 491 362 484 362 474 c 0
 362 401 353 362 311 300 c 0
 288 266 248 220 169 220 c 0
 133 220 59 256 59 344 c 0
131 364 m 0
 131 291 153 247 191 247 c 0
 260 247 297 364 297 456 c 0
 297 508 279 548 250 548 c 0
 170 548 131 449 131 364 c 0
386 64 m 0
 386 168 459 293 584 293 c 0
 660 293 692 238 692 170 c 0
 692 62 612 -78 507 -78 c 0
 425 -78 386 -12 386 64 c 0
457 73 m 0
 457 0 479 -46 517 -46 c 0
 581 -46 626 73 626 165 c 0
 626 217 605 262 576 262 c 0
 496 262 457 158 457 73 c 0
EndSplineSet
EndChar
StartChar: minute
Encoding: 8242 8242 226
Width: 247
Flags: MW
LayerCount: 2
Back
Fore
SplineSet
59 367 m 0
 59 370 61 374 64 379 c 2
 223 725 l 2
 231 742 247 751 272 751 c 0
 285 751 297 748 306 741 c 0
 318 734 323 724 322 712 c 0
 321 707 319 701 315 696 c 2
 88 371 l 2
 82 363 76 359 71 358 c 0
 62 358 58 361 59 367 c 0
EndSplineSet
Colour: ffff00
EndChar
StartChar: second
Encoding: 8243 8243 227
Width: 424
Flags: MW
LayerCount: 2
Back
Fore
SplineSet
59 367 m 0
 59 370 61 374 64 379 c 2
 223 725 l 2
 231 742 247 751 272 751 c 0
 285 751 297 748 306 741 c 0
 318 734 323 724 322 712 c 0
 321 707 319 701 315 696 c 2
 88 371 l 2
 82 363 76 359 71 358 c 0
 62 358 58 361 59 367 c 0
235 367 m 0
 235 370 237 374 240 379 c 2
 399 725 l 2
 407 742 423 751 447 751 c 0
 460 751 472 748 482 741 c 0
 494 734 499 724 498 712 c 0
 497 707 495 701 491 696 c 2
 264 371 l 2
 258 363 252 359 247 358 c 0
 238 358 234 361 235 367 c 0
EndSplineSet
Colour: ffff00
EndChar
StartChar: guilsinglleft
Encoding: 8249 8249 109
Width: 228
Flags: MW
LayerCount: 2
Back
Fore
SplineSet
19 215 m 0
 19 221 25 225 27 227 c 0
 173 349 172 349 176 349 c 0
 182 349 189 337 189 331 c 0
 189 319 89 227 89 217 c 0
 89 204 164 115 164 102 c 0
 164 96 154 84 147 84 c 0
 143 84 144 84 24 208 c 0
 22 210 19 212 19 215 c 0
EndSplineSet
EndChar
StartChar: guilsinglright
Encoding: 8250 8250 110
Width: 228
Flags: MW
LayerCount: 2
Back
Fore
SplineSet
39 102 m 0
 39 114 138 206 138 216 c 0
 138 229 64 317 64 330 c 0
 64 336 74 349 81 349 c 0
 85 349 84 349 204 225 c 0
 206 223 208 220 208 217 c 0
 208 211 203 208 201 206 c 0
 55 84 56 84 52 84 c 0
 45 84 39 96 39 102 c 0
EndSplineSet
EndChar
StartChar: overline
Encoding: 8254 8254 409
Width: 213
Flags: MW
LayerCount: 2
Back
Fore
SplineSet
78 739 m 0
 78 752 79 760 97 760 c 2
 275 760 l 2
 291 760 291 753 291 739 c 0
 291 722 291 715 270 715 c 2
 96 715 l 2
 78 715 78 722 78 739 c 0
EndSplineSet
EndChar
StartChar: fraction
Encoding: 8260 8260 103
Width: 220
Flags: MW
LayerCount: 2
Back
Fore
SplineSet
-111 -72 m 0
 -111 -56 279 523 345 622 c 0
 345 623 363 650 372 650 c 0
 379 650 390 642 390 637 c 0
 390 630 384 621 381 616 c 0
 -90 -88 -72 -85 -84 -89 c 0
 -87 -90 -92 -91 -95 -91 c 0
 -111 -91 -111 -82 -111 -72 c 0
EndSplineSet
EndChar
StartChar: zero.superior
Encoding: 8304 8304 247
Width: 327
Flags: MW
LayerCount: 2
Back
Fore
SplineSet
25 493 m 0
 25 664 109 784 198 784 c 0
 269 784 302 712 302 619 c 0
 302 482 241 340 137 340 c 0
 52 340 25 409 25 493 c 0
76 541 m 0
 76 454 104 374 157 374 c 0
 219 374 256 483 256 583 c 0
 256 664 231 736 177 736 c 0
 110 736 76 636 76 541 c 0
EndSplineSet
EndChar
StartChar: four.superior
Encoding: 8308 8308 248
Width: 327
Flags: MW
LayerCount: 2
Back
Fore
SplineSet
7 454 m 0
 7 456 8 475 8 477 c 0
 9 491 131 646 222 761 c 0
 235 777 245 791 253 791 c 0
 260 791 262 785 262 779 c 0
 262 774 229 523 229 507 c 0
 229 502 230 501 235 501 c 2
 249 501 l 2
 275 501 265 529 282 529 c 0
 287 529 289 522 289 521 c 2
 289 521 277 462 274 455 c 0
 271 450 268 446 265 446 c 2
 228 446 l 2
 222 446 224 432 219 375 c 0
 215 331 217 335 189 330 c 0
 181 329 175 327 171 327 c 0
 160 327 157 331 157 340 c 0
 157 354 174 420 174 444 c 0
 174 446 172 447 168 447 c 0
 154 447 52 446 24 446 c 0
 7 446 7 447 7 454 c 0
60 506 m 0
 60 502 64 501 71 501 c 2
 165 501 l 2
 181 501 181 502 182 514 c 0
 196 623 204 678 204 686 c 0
 204 689 203 690 201 690 c 0
 196 690 60 524 60 506 c 0
EndSplineSet
EndChar
StartChar: five.superior
Encoding: 8309 8309 249
Width: 327
Flags: MW
LayerCount: 2
Back
Fore
SplineSet
46 378 m 0
 46 386 51 390 55 390 c 0
 64 390 71 376 107 376 c 0
 118 376 212 386 212 495 c 0
 212 540 183 581 134 581 c 0
 100 581 100 580 92 580 c 0
 83 580 79 587 79 592 c 0
 79 606 92 662 113 766 c 0
 115 775 113 784 126 784 c 2
 144 784 l 2
 205 784 228 782 241 782 c 0
 263 782 273 810 286 810 c 0
 289 810 291 807 291 803 c 0
 291 796 283 772 266 727 c 0
 261 715 256 713 210 713 c 0
 185 713 161 715 147 715 c 0
 131 715 132 714 128 701 c 0
 123 685 116 650 116 646 c 0
 116 643 120 643 164 643 c 0
 236 643 269 587 269 526 c 0
 269 468 237 347 112 347 c 0
 99 347 46 356 46 378 c 0
EndSplineSet
EndChar
StartChar: six.superior
Encoding: 8310 8310 250
Width: 327
Flags: MW
LayerCount: 2
Back
Fore
SplineSet
23 511 m 0
 23 609 68 678 121 731 c 0
 171 780 236 794 271 794 c 0
 280 794 290 792 290 787 c 0
 290 778 285 773 270 773 c 0
 172 771 105 636 105 611 c 0
 105 608 108 607 109 607 c 0
 117 607 139 634 180 634 c 0
 248 634 285 564 285 509 c 0
 285 416 230 346 149 346 c 0
 48 346 23 455 23 511 c 0
88 498 m 0
 88 438 114 373 162 373 c 0
 193 373 224 407 224 477 c 0
 224 560 187 601 151 601 c 0
 108 601 88 551 88 498 c 0
EndSplineSet
EndChar
StartChar: seven.superior
Encoding: 8311 8311 251
Width: 327
Flags: MW
LayerCount: 2
Back
Fore
SplineSet
63 679 m 2
 63 679 68 718 79 746 c 0
 83 756 88 785 102 785 c 0
 121 785 120 782 197 782 c 2
 215 782 l 2
 268 782 278 784 289 784 c 0
 296 784 301 781 301 767 c 0
 301 692 161 485 161 386 c 0
 161 369 160 361 160 358 c 0
 160 345 137 342 124 342 c 0
 106 342 88 344 88 373 c 0
 88 484 265 683 265 712 c 0
 265 714 261 719 254 719 c 2
 144 719 l 2
 95 719 92 709 85 687 c 0
 82 678 83 669 73 669 c 0
 66 669 63 673 63 679 c 2
EndSplineSet
EndChar
StartChar: eight.superior
Encoding: 8312 8312 252
Width: 327
Flags: MW
LayerCount: 2
Back
Fore
SplineSet
29 453 m 0
 29 545 124 571 132 576 c 1
 128 583 73 606 73 672 c 0
 73 736 117 792 186 792 c 0
 259 792 290 742 290 706 c 0
 290 617 212 601 204 596 c 1
 209 589 286 558 286 478 c 0
 286 395 227 343 148 343 c 0
 86 343 29 383 29 453 c 0
84 463 m 0
 84 396 118 368 152 368 c 0
 198 368 230 409 230 459 c 0
 230 516 194 536 143 567 c 1
 128 567 84 531 84 463 c 0
122 695 m 0
 122 639 187 607 191 607 c 0
 212 607 243 650 243 690 c 0
 243 716 226 765 185 765 c 0
 137 765 122 723 122 695 c 0
EndSplineSet
EndChar
